<?xml version="1.0" encoding="utf-8"?>
<svg version="1.1" id="Layer_1" x="0px" y="0px" viewBox="0 0 792 612" style="enable-background:new 0 0 792 612;" xmlns="http://www.w3.org/2000/svg">
  <style type="text/css">
	.st0{opacity:0.51;fill:#E8E9E7;stroke:#343565;stroke-width:0.75;stroke-miterlimit:10;enable-background:new    ;}
	.st1{opacity:0.31;fill:#625395;stroke:#FFFFFF;stroke-width:4;stroke-miterlimit:10;enable-background:new    ;}
	.st2{fill:#E8E9E7;}
	.st3{opacity:0.31;fill:#139BD3;stroke:#FFFFFF;stroke-width:3;stroke-miterlimit:10;enable-background:new    ;}
	.st4{opacity:0.31;fill:#FFFFFF;stroke:#7B3B82;stroke-width:3;stroke-miterlimit:10;enable-background:new    ;}
	.st5{opacity:0.31;}
	.st6{opacity:0.59;fill:#625395;stroke:#FFFFFF;stroke-width:4;stroke-miterlimit:10;enable-background:new    ;}
	.st7{opacity:0.59;fill:#139BD3;stroke:#FFFFFF;stroke-width:3;stroke-miterlimit:10;enable-background:new    ;}
	.st8{opacity:0.59;fill:#FFFFFF;stroke:#7B3B82;stroke-width:3;stroke-miterlimit:10;enable-background:new    ;}
	.st9{fill:#343565;}
	.st10{opacity:0.43;}
	.st11{clip-path:url(#SVGID_2_);}
	.st12{fill:none;stroke:#343565;stroke-width:1.07;stroke-miterlimit:10;}
	.st13{fill:none;stroke:#FFFFFF;stroke-width:1.07;stroke-miterlimit:10;}
	.st14{clip-path:url(#SVGID_4_);}
	.st15{fill:none;stroke:#231F20;stroke-linecap:round;stroke-linejoin:round;}
	.st16{fill:none;}
	.st17{fill:#1679A8;}
	.st18{font-family:'ArialMT';}
	.st19{font-size:22.13px;}
	.st20{fill:#F1F1F2;}
	.st21{fill:#E2282B;}
	.st22{enable-background:new    ;}
	.st23{fill:#5C5C5F;}
	.st24{font-family:'Futura-Medium';}
	.st25{font-size:13.87px;}
	.st26{fill:#1D1D1B;}
	.st27{fill:#7F8080;}
	.st28{fill:#5B5A5D;}
	.st29{fill-rule:evenodd;clip-rule:evenodd;fill:#7F8080;}
	.st30{fill-rule:evenodd;clip-rule:evenodd;fill:#5B5A5D;}
	.st31{fill:#111011;}
	.st32{fill:#FFFFFF;}
	.st33{fill:#E23235;}
	.st34{fill:#E3E04E;}
	.st35{fill:#2D579C;}
</style>
  <title>cara a</title>
  <rect id="_Path_" x="30" y="41.7" class="st0" width="730.3" height="490.6"/>
  <path id="_Path_2" class="st1" d="M676,41.2L676,41.2c16.7-16.4,43.4-16.3,60,0.2l57.2,57.2v120.7L675.8,101.6 C659.2,84.9,659.3,57.9,676,41.2L676,41.2z"/>
  <polygon id="_Path_3" class="st2" points="791.2,50.2 737.8,-1 791.2,-1 "/>
  <polygon id="_Path_4" class="st2" points="-0.2,50.2 53.2,-1 -0.2,-1 "/>
  <path class="st3" d="M730.8,203.2L730.8,203.2c-10.6,11.6-10.2,29.5,1,40.6l43.6,43.2l18.9,19.2V224l-21-21.5 c-11.3-11.6-29.8-11.8-41.4-0.5C731.5,202.4,731.1,202.8,730.8,203.2z"/>
  <path id="_Path_5" class="st4" d="M795.2,397.5v-88.2l0,0c-10.2-10.3-26.9-10.4-37.2-0.2c-0.1,0.1-0.3,0.3-0.4,0.4l-6.2,6.5 c-9.8,10.1-9.7,26.2,0.1,36.3L795.2,397.5z"/>
  <g class="st5">
    <path id="_Path_6" class="st6" d="M110.3,544.6L110.3,544.6c-16.7,16.4-43.4,16.3-60-0.2l-57.2-57.2V366.5l117.4,117.7 c16.6,16.6,16.7,43.5,0.1,60.1C110.6,544.4,110.5,544.5,110.3,544.6z"/>
    <path class="st7" d="M55.8,382.5L55.8,382.5c10.6-11.6,10.2-29.5-1-40.6l-43.6-43.2l-18.9-19.2v82.2l21,21.5 c11.3,11.6,29.8,11.8,41.4,0.5C55,383.3,55.4,382.9,55.8,382.5z"/>
    <path id="_Path_7" class="st8" d="M-8.9,188.2v88.3l0,0c10.2,10.3,26.9,10.4,37.2,0.2c0.1-0.1,0.3-0.3,0.4-0.4l6.2-6.5 c9.8-10.1,9.7-26.2-0.1-36.3L-8.9,188.2z"/>
  </g>
  <g class="st10">
    <g>
      <g>
        <g>
          <g>
            <g>
              <g>
                <defs>
                  <rect id="SVGID_1_" x="610.5" y="210.5" width="204.8" height="68.6"/>
                </defs>
                <clipPath id="SVGID_2_">
                  <rect x="610.5" y="210.5" width="204.8" height="68.6" style="overflow: visible;"/>
                </clipPath>
                <g class="st11">
                  <path class="st12" d="M761.2,238.1l-103,0.8c-2.6,0-4.7,2.2-4.7,4.8s2.2,4.7,4.8,4.7l0,0l103-0.8c2.6,0,4.7-2.2,4.7-4.8 S763.9,238.1,761.2,238.1z"/>
                  <path class="st13" d="M815.8,237.7L779,238c-2.6,0-4.7,2.2-4.7,4.8s2.2,4.7,4.8,4.7l0,0l36.7-0.3c2.6,0,4.7-2.2,4.7-4.8 S818.4,237.7,815.8,237.7z"/>
                  <path class="st13" d="M784.8,219l-17.8,0.1c-2,0-3.5,1.6-3.5,3.6s1.6,3.5,3.6,3.5l0,0l17.8-0.1c1.9,0,3.5-1.6,3.5-3.5v-0.1 c0-1.9-1.5-3.5-3.4-3.5C784.9,219,784.8,219,784.8,219z"/>
                  <path class="st12" d="M693.8,257.9l-35.5-0.1c-2.6,0-4.7,2.2-4.7,4.8s2.2,4.7,4.8,4.7l35.5,0.1c2.6,0,4.7-2.2,4.7-4.8 S696.5,257.9,693.8,257.9z"/>
                  <path class="st12" d="M725.5,218.2l-103,0.8c-2.6,0-4.7,2.2-4.7,4.8s2.2,4.7,4.8,4.7l103-0.8c2.6,0,4.7-2.2,4.7-4.8 S728.2,218.2,725.5,218.2z"/>
                </g>
              </g>
            </g>
          </g>
        </g>
      </g>
    </g>
  </g>
  <g class="st10">
    <g>
      <g>
        <g>
          <g>
            <g>
              <g>
                <defs>
                  <rect id="SVGID_3_" x="-1.4" y="94.8" width="248.1" height="71.1"/>
                </defs>
                <clipPath id="SVGID_4_">
                  <rect x="-1.4" y="94.8" width="248.1" height="71.1" style="overflow: visible;"/>
                </clipPath>
                <g class="st14">
                  <path class="st12" d="M111.4,136.4l-107-0.8c-2.7,0-4.9-2.2-4.9-5l0,0c0-2.7,2.1-4.9,4.8-4.9c0.1,0,0.1,0,0.2,0l107.1,0.8 c2.7,0,4.9,2.2,4.9,5l0,0C116.5,134.2,114.2,136.4,111.4,136.4z"/>
                  <path class="st12" d="M168.1,136.9l-38.1-0.3c-2.7,0.4-5.2-1.6-5.6-4.3s1.6-5.2,4.3-5.6c0.5-0.1,0.9-0.1,1.4,0l38.1,0.3 c2.7,0.4,4.6,3,4.2,5.7C172,134.9,170.3,136.6,168.1,136.9L168.1,136.9z"/>
                  <path class="st12" d="M217.4,122.5l-38.1-0.3c-2.7,0.4-5.2-1.6-5.6-4.3s1.6-5.2,4.3-5.6c0.5-0.1,0.9-0.1,1.4,0l38.1,0.3 c2.7,0,4.9,2.2,4.9,5l0,0C222.4,120.3,220.2,122.5,217.4,122.5z"/>
                  <path class="st12" d="M136,156.3l-18.5-0.1c-2,0-3.7-1.7-3.7-3.7s1.7-3.7,3.7-3.7l18.5,0.1c2,0,3.7,1.7,3.7,3.7 S138.1,156.3,136,156.3L136,156.3z"/>
                  <path class="st12" d="M167.6,146.8l-8.6-0.1c-1.4,0-2.5-1.2-2.5-2.6s1.2-2.5,2.6-2.5l8.6,0.1c1.4,0,2.5,1.1,2.5,2.5v0.1 C170.2,145.7,169,146.8,167.6,146.8z"/>
                  <path class="st12" d="M41.5,115.8l-36.9,0.1c-2.7,0.4-5.2-1.6-5.6-4.3c-0.4-2.7,1.6-5.2,4.3-5.6c0.5-0.1,0.9-0.1,1.4,0 l36.9-0.1c2.7,0,4.9,2.2,4.9,5l0,0c0,2.7-2.1,4.9-4.8,4.9C41.6,115.8,41.5,115.8,41.5,115.8z"/>
                  <path class="st12" d="M74.4,157.1l-107.2-0.9c-2.7,0-4.9-2.2-4.9-5l0,0c0-2.7,2.1-4.9,4.8-4.9c0.1,0,0.1,0,0.2,0l107.1,0.8 c2.8,0,5,2.2,5,5S77.2,157.1,74.4,157.1L74.4,157.1z"/>
                </g>
              </g>
            </g>
          </g>
        </g>
      </g>
    </g>
  </g>
  <rect x="352.5" y="499" class="st16" width="3" height="1"/>
  <rect id="_Path_10" x="-13.2" y="558.7" class="st20" width="810" height="56.3"/>
  <g>
    <path class="st27" d="M292.1,585.6v-4h0.6v0.6c0.3-0.4,0.7-0.7,1.3-0.7c0.2,0,0.5,0,0.7,0.1c0.2,0.1,0.4,0.2,0.5,0.3 c0.1,0.1,0.2,0.3,0.2,0.5c0,0.1,0,0.3,0,0.7v2.5h-0.7v-2.5c0-0.3,0-0.5-0.1-0.6c-0.1-0.1-0.2-0.2-0.3-0.3c-0.1-0.1-0.3-0.1-0.5-0.1 c-0.3,0-0.6,0.1-0.8,0.3c-0.2,0.2-0.3,0.5-0.3,1.1v2.2H292.1z"/>
    <path class="st27" d="M296.2,584.4l0.7-0.1c0,0.3,0.1,0.5,0.3,0.6c0.2,0.1,0.4,0.2,0.7,0.2c0.3,0,0.6-0.1,0.7-0.2 c0.2-0.1,0.2-0.3,0.2-0.5c0-0.2-0.1-0.3-0.2-0.4c-0.1-0.1-0.3-0.1-0.7-0.2c-0.5-0.1-0.9-0.2-1.1-0.3c-0.2-0.1-0.3-0.2-0.5-0.4 c-0.1-0.2-0.2-0.3-0.2-0.5c0-0.2,0-0.4,0.1-0.5c0.1-0.2,0.2-0.3,0.3-0.4c0.1-0.1,0.3-0.1,0.4-0.2c0.2-0.1,0.4-0.1,0.6-0.1 c0.3,0,0.6,0,0.9,0.1c0.2,0.1,0.4,0.2,0.5,0.4c0.1,0.2,0.2,0.4,0.2,0.6l-0.7,0.1c0-0.2-0.1-0.4-0.3-0.5c-0.2-0.1-0.4-0.2-0.6-0.2 c-0.3,0-0.6,0.1-0.7,0.2c-0.1,0.1-0.2,0.2-0.2,0.4c0,0.1,0,0.2,0.1,0.2c0.1,0.1,0.1,0.1,0.3,0.2c0.1,0,0.3,0.1,0.6,0.2 c0.5,0.1,0.8,0.2,1,0.3c0.2,0.1,0.3,0.2,0.5,0.4c0.1,0.2,0.2,0.4,0.2,0.6c0,0.2-0.1,0.4-0.2,0.6c-0.1,0.2-0.3,0.4-0.6,0.5 c-0.3,0.1-0.5,0.2-0.9,0.2c-0.5,0-0.9-0.1-1.2-0.3C296.5,585.1,296.3,584.8,296.2,584.4"/>
    <path class="st27" d="M302,585l0.1,0.6c-0.2,0-0.4,0.1-0.5,0.1c-0.3,0-0.5,0-0.6-0.1c-0.1-0.1-0.2-0.2-0.3-0.3 c-0.1-0.1-0.1-0.4-0.1-0.8l0-2.3l-0.5,0l0-0.5l0.5,0l0-1l0.7-0.4l0,1.4h0.7l0,0.5h-0.7l0,2.4c0,0.2,0,0.3,0,0.4 c0,0.1,0.1,0.1,0.1,0.1c0.1,0,0.1,0,0.2,0C301.8,585,301.9,585,302,585"/>
    <path class="st27" d="M302.7,580h0.7v0.8h-0.7V580z M302.7,581.5h0.7v4h-0.7V581.5z"/>
    <path class="st27" d="M306,585l0.1,0.6c-0.2,0-0.4,0.1-0.5,0.1c-0.3,0-0.5,0-0.6-0.1c-0.1-0.1-0.2-0.2-0.3-0.3 c-0.1-0.1-0.1-0.4-0.1-0.8v-2.3h-0.5v-0.5h0.5v-1l0.7-0.4v1.4h0.7v0.5h-0.7v2.4c0,0.2,0,0.3,0,0.4c0,0.1,0.1,0.1,0.1,0.1 c0.1,0,0.1,0,0.2,0C305.7,585,305.9,585,306,585"/>
    <path class="st27" d="M309.4,585.6V585c-0.3,0.5-0.8,0.7-1.3,0.7c-0.2,0-0.5,0-0.7-0.1c-0.2-0.1-0.4-0.2-0.5-0.3 c-0.1-0.1-0.2-0.3-0.2-0.5c0-0.1,0-0.3,0-0.6v-2.5h0.7v2.2c0,0.4,0,0.6,0,0.7c0,0.2,0.1,0.3,0.3,0.4c0.1,0.1,0.3,0.2,0.5,0.2 c0.2,0,0.4-0.1,0.6-0.2c0.2-0.1,0.3-0.2,0.4-0.4c0.1-0.2,0.1-0.4,0.1-0.8v-2.2h0.7v4H309.4z"/>
    <path class="st27" d="M312.6,585l0.1,0.6c-0.2,0-0.4,0.1-0.5,0.1c-0.3,0-0.5,0-0.6-0.1c-0.1-0.1-0.2-0.2-0.3-0.3 c-0.1-0.1-0.1-0.4-0.1-0.8v-2.3h-0.5v-0.5h0.5v-1l0.7-0.4v1.4h0.7v0.5h-0.7v2.4c0,0.2,0,0.3,0,0.4c0,0.1,0.1,0.1,0.1,0.1 c0.1,0,0.1,0,0.2,0C312.4,585,312.5,585,312.6,585"/>
    <path class="st27" d="M313,583.5c0-0.7,0.2-1.3,0.6-1.7c0.4-0.3,0.8-0.4,1.3-0.4c0.6,0,1,0.2,1.4,0.5c0.4,0.4,0.5,0.9,0.5,1.5 c0,0.5-0.1,0.9-0.2,1.2c-0.2,0.3-0.4,0.5-0.7,0.7c-0.3,0.2-0.6,0.2-1,0.2c-0.6,0-1-0.2-1.4-0.5C313.2,584.8,313,584.2,313,583.5 M313.8,583.5c0,0.5,0.1,0.9,0.3,1.2c0.2,0.3,0.5,0.4,0.9,0.4c0.3,0,0.6-0.1,0.9-0.4c0.2-0.3,0.3-0.7,0.3-1.2 c0-0.5-0.1-0.9-0.3-1.1c-0.2-0.3-0.5-0.4-0.9-0.4c-0.3,0-0.6,0.1-0.9,0.4C313.9,582.6,313.8,583,313.8,583.5"/>
    <polygon class="st27" points="320,585.6 320,580 320.8,580 323.8,584.4 323.8,580 324.5,580 324.5,585.6 323.7,585.6 320.7,581.2 &#10;&#9;&#9;320.7,585.6 &#9;"/>
    <path class="st27" d="M328.4,585.1c-0.3,0.2-0.5,0.4-0.7,0.5c-0.2,0.1-0.5,0.1-0.8,0.1c-0.5,0-0.8-0.1-1-0.3 c-0.2-0.2-0.4-0.5-0.4-0.8c0-0.2,0-0.4,0.1-0.5c0.1-0.2,0.2-0.3,0.4-0.4c0.2-0.1,0.3-0.2,0.5-0.2c0.1,0,0.3-0.1,0.6-0.1 c0.6-0.1,1-0.1,1.2-0.2c0-0.1,0-0.2,0-0.2c0-0.3-0.1-0.5-0.2-0.6c-0.2-0.2-0.4-0.2-0.8-0.2c-0.3,0-0.6,0.1-0.7,0.2 c-0.2,0.1-0.3,0.3-0.3,0.6l-0.7-0.1c0.1-0.3,0.2-0.5,0.3-0.7c0.1-0.2,0.3-0.3,0.6-0.4c0.3-0.1,0.6-0.1,0.9-0.1c0.4,0,0.6,0,0.9,0.1 c0.2,0.1,0.4,0.2,0.5,0.3c0.1,0.1,0.2,0.3,0.2,0.5c0,0.1,0,0.3,0,0.6v0.9c0,0.6,0,1,0,1.2c0,0.2,0.1,0.3,0.2,0.5h-0.7 C328.4,585.4,328.4,585.3,328.4,585.1 M328.3,583.5c-0.3,0.1-0.6,0.2-1.1,0.3c-0.3,0-0.5,0.1-0.6,0.1c-0.1,0-0.2,0.1-0.3,0.2 c-0.1,0.1-0.1,0.2-0.1,0.3c0,0.2,0.1,0.3,0.2,0.5c0.1,0.1,0.3,0.2,0.6,0.2c0.3,0,0.5-0.1,0.7-0.2c0.2-0.1,0.4-0.3,0.5-0.5 c0.1-0.2,0.1-0.4,0.1-0.7V583.5z"/>
    <path class="st27" d="M332.8,584.1l0.7,0.1c-0.1,0.5-0.3,0.8-0.6,1.1c-0.3,0.3-0.7,0.4-1.1,0.4c-0.6,0-1-0.2-1.4-0.5 c-0.3-0.4-0.5-0.9-0.5-1.6c0-0.4,0.1-0.8,0.2-1.1c0.1-0.3,0.4-0.6,0.7-0.7c0.3-0.2,0.6-0.2,1-0.2c0.4,0,0.8,0.1,1.1,0.3 c0.3,0.2,0.5,0.5,0.5,0.9l-0.7,0.1c-0.1-0.3-0.2-0.5-0.3-0.6c-0.2-0.1-0.4-0.2-0.6-0.2c-0.4,0-0.6,0.1-0.9,0.4 c-0.2,0.2-0.3,0.6-0.3,1.2c0,0.5,0.1,0.9,0.3,1.2c0.2,0.2,0.5,0.4,0.8,0.4c0.3,0,0.5-0.1,0.7-0.2 C332.6,584.7,332.7,584.4,332.8,584.1"/>
    <path class="st27" d="M334.1,580h0.7v0.8h-0.7V580z M334.1,581.5h0.7v4h-0.7V581.5z"/>
    <path class="st27" d="M335.6,583.5c0-0.7,0.2-1.3,0.6-1.7c0.4-0.3,0.8-0.4,1.3-0.4c0.6,0,1,0.2,1.4,0.5c0.4,0.4,0.5,0.9,0.5,1.5 c0,0.5-0.1,0.9-0.2,1.2c-0.2,0.3-0.4,0.5-0.7,0.7c-0.3,0.2-0.6,0.2-1,0.2c-0.6,0-1-0.2-1.4-0.5 C335.8,584.8,335.6,584.2,335.6,583.5 M336.3,583.5c0,0.5,0.1,0.9,0.3,1.2c0.2,0.3,0.5,0.4,0.9,0.4c0.3,0,0.6-0.1,0.9-0.4 c0.2-0.3,0.3-0.7,0.3-1.2c0-0.5-0.1-0.9-0.3-1.1c-0.2-0.3-0.5-0.4-0.9-0.4c-0.3,0-0.6,0.1-0.9,0.4 C336.4,582.6,336.3,583,336.3,583.5"/>
    <path class="st27" d="M340.3,585.6v-4h0.6v0.6c0.3-0.4,0.7-0.7,1.3-0.7c0.2,0,0.5,0,0.7,0.1c0.2,0.1,0.4,0.2,0.5,0.3 c0.1,0.1,0.2,0.3,0.2,0.5c0,0.1,0,0.3,0,0.7v2.5h-0.7v-2.5c0-0.3,0-0.5-0.1-0.6c-0.1-0.1-0.2-0.2-0.3-0.3c-0.1-0.1-0.3-0.1-0.5-0.1 c-0.3,0-0.6,0.1-0.8,0.3c-0.2,0.2-0.3,0.5-0.3,1.1v2.2H340.3z"/>
    <path class="st27" d="M347.4,585.1c-0.3,0.2-0.5,0.4-0.7,0.5c-0.2,0.1-0.5,0.1-0.8,0.1c-0.5,0-0.8-0.1-1-0.3 c-0.2-0.2-0.4-0.5-0.4-0.8c0-0.2,0-0.4,0.1-0.5c0.1-0.2,0.2-0.3,0.4-0.4c0.1-0.1,0.3-0.2,0.5-0.2c0.1,0,0.3-0.1,0.6-0.1 c0.6-0.1,1-0.1,1.2-0.2c0-0.1,0-0.2,0-0.2c0-0.3-0.1-0.5-0.2-0.6c-0.2-0.2-0.4-0.2-0.8-0.2c-0.3,0-0.6,0.1-0.7,0.2 c-0.2,0.1-0.3,0.3-0.3,0.6l-0.7-0.1c0.1-0.3,0.2-0.5,0.3-0.7c0.1-0.2,0.3-0.3,0.6-0.4c0.3-0.1,0.6-0.1,0.9-0.1c0.4,0,0.6,0,0.9,0.1 c0.2,0.1,0.4,0.2,0.5,0.3c0.1,0.1,0.2,0.3,0.2,0.5c0,0.1,0,0.3,0,0.6v0.9c0,0.6,0,1,0,1.2c0,0.2,0.1,0.3,0.2,0.5h-0.7 C347.5,585.4,347.4,585.3,347.4,585.1 M347.3,583.5c-0.3,0.1-0.6,0.2-1.1,0.3c-0.3,0-0.5,0.1-0.6,0.1c-0.1,0-0.2,0.1-0.3,0.2 c-0.1,0.1-0.1,0.2-0.1,0.3c0,0.2,0.1,0.3,0.2,0.5c0.1,0.1,0.4,0.2,0.6,0.2c0.3,0,0.5-0.1,0.7-0.2c0.2-0.1,0.4-0.3,0.5-0.5 c0.1-0.2,0.1-0.4,0.1-0.7V583.5z"/>
    <rect x="349.1" y="580" class="st27" width="0.7" height="5.6"/>
    <path class="st27" d="M292.5,594.6v-0.5c-0.3,0.4-0.6,0.6-1.2,0.6c-0.3,0-0.6-0.1-0.9-0.3c-0.3-0.2-0.5-0.4-0.6-0.7 c-0.2-0.3-0.2-0.7-0.2-1.1c0-0.4,0.1-0.8,0.2-1.1c0.1-0.3,0.3-0.6,0.6-0.8c0.3-0.2,0.6-0.3,0.9-0.3c0.2,0,0.5,0.1,0.7,0.2 c0.2,0.1,0.4,0.2,0.5,0.4v-2h0.7v5.6H292.5z M290.3,592.6c0,0.5,0.1,0.9,0.3,1.2c0.2,0.3,0.5,0.4,0.8,0.4c0.3,0,0.6-0.1,0.8-0.4 c0.2-0.2,0.3-0.6,0.3-1.1c0-0.6-0.1-1-0.3-1.2c-0.2-0.3-0.5-0.4-0.8-0.4c-0.3,0-0.6,0.1-0.8,0.4C290.4,591.7,290.3,592,290.3,592.6 "/>
    <path class="st27" d="M297.1,593.3l0.7,0.1c-0.1,0.4-0.3,0.7-0.6,1c-0.3,0.2-0.7,0.3-1.2,0.3c-0.6,0-1.1-0.2-1.4-0.5 c-0.4-0.4-0.5-0.9-0.5-1.5c0-0.7,0.2-1.2,0.5-1.6c0.4-0.4,0.8-0.6,1.4-0.6c0.6,0,1,0.2,1.4,0.6c0.4,0.4,0.5,0.9,0.5,1.6 c0,0,0,0.1,0,0.2h-3.1c0,0.4,0.2,0.8,0.4,1c0.2,0.2,0.5,0.4,0.9,0.4c0.3,0,0.5-0.1,0.7-0.2C296.9,593.8,297,593.6,297.1,593.3 M294.8,592.2h2.3c0-0.3-0.1-0.6-0.3-0.8c-0.2-0.3-0.5-0.4-0.9-0.4c-0.3,0-0.6,0.1-0.8,0.3C295,591.6,294.8,591.8,294.8,592.2"/>
    <path class="st28" d="M304.6,592.5l1.1,0.3c-0.2,0.6-0.5,1.1-0.8,1.4c-0.4,0.3-0.9,0.4-1.5,0.4c-0.8,0-1.4-0.3-1.9-0.8 c-0.5-0.5-0.7-1.2-0.7-2.1c0-0.9,0.2-1.6,0.7-2.2c0.5-0.5,1.1-0.8,1.9-0.8c0.7,0,1.3,0.2,1.7,0.6c0.3,0.2,0.5,0.6,0.6,1l-1.1,0.3 c-0.1-0.3-0.2-0.5-0.4-0.7c-0.2-0.2-0.5-0.3-0.8-0.3c-0.4,0-0.8,0.1-1,0.4c-0.3,0.3-0.4,0.8-0.4,1.4c0,0.7,0.1,1.2,0.4,1.5 c0.3,0.3,0.6,0.5,1,0.5c0.3,0,0.6-0.1,0.8-0.3C304.4,593.3,304.5,593,304.6,592.5"/>
    <path class="st28" d="M307.5,591.8l-1-0.2c0.1-0.4,0.3-0.7,0.6-0.9c0.3-0.2,0.7-0.3,1.2-0.3c0.5,0,0.8,0.1,1.1,0.2 c0.2,0.1,0.4,0.3,0.5,0.4c0.1,0.2,0.1,0.5,0.1,1l0,1.2c0,0.4,0,0.6,0.1,0.8c0,0.2,0.1,0.3,0.2,0.5h-1.1c0-0.1-0.1-0.2-0.1-0.3 c0-0.1,0-0.1,0-0.1c-0.2,0.2-0.4,0.3-0.6,0.4c-0.2,0.1-0.4,0.1-0.7,0.1c-0.4,0-0.8-0.1-1-0.3c-0.2-0.2-0.4-0.5-0.4-0.9 c0-0.2,0.1-0.4,0.2-0.6c0.1-0.2,0.3-0.3,0.5-0.4c0.2-0.1,0.5-0.2,0.9-0.3c0.5-0.1,0.9-0.2,1.1-0.3v-0.1c0-0.2-0.1-0.4-0.2-0.4 c-0.1-0.1-0.3-0.1-0.6-0.1c-0.2,0-0.3,0-0.5,0.1C307.7,591.5,307.6,591.6,307.5,591.8 M309,592.7c-0.1,0-0.4,0.1-0.7,0.2 c-0.3,0.1-0.5,0.1-0.6,0.2c-0.1,0.1-0.2,0.2-0.2,0.4c0,0.1,0.1,0.3,0.2,0.4c0.1,0.1,0.3,0.2,0.4,0.2c0.2,0,0.4-0.1,0.6-0.2 c0.1-0.1,0.2-0.2,0.3-0.4c0-0.1,0-0.3,0-0.5V592.7z"/>
    <path class="st28" d="M311.1,590.6h1v0.6c0.1-0.2,0.3-0.4,0.5-0.5c0.2-0.1,0.5-0.2,0.8-0.2c0.5,0,0.9,0.2,1.2,0.6 c0.3,0.4,0.5,0.9,0.5,1.5c0,0.7-0.2,1.2-0.5,1.6c-0.3,0.4-0.7,0.6-1.2,0.6c-0.2,0-0.4,0-0.6-0.1c-0.2-0.1-0.4-0.2-0.6-0.5v2h-1.1 V590.6z M312.2,592.5c0,0.5,0.1,0.8,0.3,1c0.2,0.2,0.4,0.3,0.7,0.3c0.3,0,0.5-0.1,0.6-0.3c0.2-0.2,0.3-0.5,0.3-1 c0-0.4-0.1-0.7-0.3-0.9c-0.2-0.2-0.4-0.3-0.6-0.3c-0.3,0-0.5,0.1-0.7,0.3C312.3,591.8,312.2,592.1,312.2,592.5"/>
    <path class="st28" d="M316.8,591.8l-1-0.2c0.1-0.4,0.3-0.7,0.6-0.9c0.3-0.2,0.7-0.3,1.2-0.3c0.5,0,0.8,0.1,1.1,0.2 c0.2,0.1,0.4,0.3,0.5,0.4c0.1,0.2,0.1,0.5,0.1,1l0,1.2c0,0.4,0,0.6,0.1,0.8c0,0.2,0.1,0.3,0.2,0.5h-1.1c0-0.1-0.1-0.2-0.1-0.3 c0-0.1,0-0.1,0-0.1c-0.2,0.2-0.4,0.3-0.6,0.4c-0.2,0.1-0.4,0.1-0.7,0.1c-0.4,0-0.8-0.1-1-0.3c-0.2-0.2-0.4-0.5-0.4-0.9 c0-0.2,0.1-0.4,0.2-0.6c0.1-0.2,0.3-0.3,0.5-0.4c0.2-0.1,0.5-0.2,0.9-0.3c0.5-0.1,0.9-0.2,1.1-0.3v-0.1c0-0.2-0.1-0.4-0.2-0.4 c-0.1-0.1-0.3-0.1-0.6-0.1c-0.2,0-0.3,0-0.5,0.1C317,591.5,316.9,591.6,316.8,591.8 M318.3,592.7c-0.1,0-0.4,0.1-0.7,0.2 c-0.3,0.1-0.5,0.1-0.6,0.2c-0.1,0.1-0.2,0.2-0.2,0.4c0,0.1,0.1,0.3,0.2,0.4c0.1,0.1,0.3,0.2,0.4,0.2c0.2,0,0.4-0.1,0.6-0.2 c0.1-0.1,0.2-0.2,0.3-0.4c0-0.1,0-0.3,0-0.5V592.7z"/>
    <path class="st28" d="M324,591.8l-1.1,0.2c0-0.2-0.1-0.4-0.2-0.5c-0.1-0.1-0.3-0.2-0.5-0.2c-0.3,0-0.5,0.1-0.7,0.3 c-0.2,0.2-0.2,0.5-0.2,0.9c0,0.5,0.1,0.8,0.2,1c0.2,0.2,0.4,0.3,0.7,0.3c0.2,0,0.4-0.1,0.5-0.2c0.1-0.1,0.2-0.3,0.3-0.6l1.1,0.2 c-0.1,0.5-0.3,0.8-0.6,1.1c-0.3,0.2-0.7,0.4-1.3,0.4c-0.6,0-1.1-0.2-1.4-0.6c-0.4-0.4-0.5-0.9-0.5-1.6c0-0.7,0.2-1.2,0.5-1.6 c0.4-0.4,0.8-0.6,1.5-0.6c0.5,0,0.9,0.1,1.2,0.3C323.7,591,323.9,591.3,324,591.8"/>
    <path class="st28" d="M324.8,589h1.1v1h-1.1V589z M324.8,590.6h1.1v4h-1.1V590.6z"/>
    <path class="st28" d="M329,590.6v0.9h-0.7v1.6c0,0.3,0,0.5,0,0.6c0,0.1,0,0.1,0.1,0.1c0.1,0,0.1,0.1,0.2,0.1c0.1,0,0.2,0,0.4-0.1 l0.1,0.8c-0.3,0.1-0.5,0.2-0.9,0.2c-0.2,0-0.4,0-0.5-0.1c-0.2-0.1-0.3-0.1-0.3-0.3c-0.1-0.1-0.1-0.2-0.2-0.4c0-0.1,0-0.4,0-0.8 v-1.8h-0.5v-0.9h0.5v-0.8l1.1-0.6v1.4H329z"/>
    <path class="st28" d="M330.5,591.8l-1-0.2c0.1-0.4,0.3-0.7,0.6-0.9c0.3-0.2,0.7-0.3,1.2-0.3c0.5,0,0.8,0.1,1.1,0.2 c0.2,0.1,0.4,0.3,0.5,0.4c0.1,0.2,0.1,0.5,0.1,1l0,1.2c0,0.4,0,0.6,0.1,0.8c0,0.2,0.1,0.3,0.2,0.5h-1.1c0-0.1-0.1-0.2-0.1-0.3 c0-0.1,0-0.1,0-0.1c-0.2,0.2-0.4,0.3-0.6,0.4c-0.2,0.1-0.4,0.1-0.7,0.1c-0.4,0-0.8-0.1-1-0.3c-0.2-0.2-0.4-0.5-0.4-0.9 c0-0.2,0.1-0.4,0.2-0.6c0.1-0.2,0.3-0.3,0.5-0.4c0.2-0.1,0.5-0.2,0.9-0.3c0.5-0.1,0.9-0.2,1.1-0.3v-0.1c0-0.2-0.1-0.4-0.2-0.4 c-0.1-0.1-0.3-0.1-0.6-0.1c-0.2,0-0.3,0-0.5,0.1C330.7,591.5,330.6,591.6,330.5,591.8 M332,592.7c-0.1,0-0.4,0.1-0.7,0.2 c-0.3,0.1-0.5,0.1-0.6,0.2c-0.1,0.1-0.2,0.2-0.2,0.4c0,0.1,0.1,0.3,0.2,0.4c0.1,0.1,0.3,0.2,0.4,0.2c0.2,0,0.4-0.1,0.6-0.2 c0.1-0.1,0.2-0.2,0.3-0.4c0-0.1,0-0.3,0-0.5V592.7z"/>
    <path class="st28" d="M337.7,591.8l-1.1,0.2c0-0.2-0.1-0.4-0.2-0.5c-0.1-0.1-0.3-0.2-0.5-0.2c-0.3,0-0.5,0.1-0.7,0.3 c-0.2,0.2-0.2,0.5-0.2,0.9c0,0.5,0.1,0.8,0.2,1c0.2,0.2,0.4,0.3,0.7,0.3c0.2,0,0.4-0.1,0.5-0.2c0.1-0.1,0.2-0.3,0.3-0.6l1.1,0.2 c-0.1,0.5-0.3,0.8-0.6,1.1c-0.3,0.2-0.7,0.4-1.3,0.4c-0.6,0-1.1-0.2-1.4-0.6c-0.4-0.4-0.5-0.9-0.5-1.6c0-0.7,0.2-1.2,0.5-1.6 c0.4-0.4,0.8-0.6,1.5-0.6c0.5,0,0.9,0.1,1.2,0.3C337.4,591,337.6,591.3,337.7,591.8"/>
    <path class="st28" d="M338.6,589h1.1v1h-1.1V589z M338.6,590.6h1.1v4h-1.1V590.6z"/>
    <path class="st28" d="M340.5,592.5c0-0.4,0.1-0.7,0.3-1c0.2-0.3,0.4-0.6,0.8-0.8c0.3-0.2,0.7-0.3,1.1-0.3c0.6,0,1.1,0.2,1.5,0.6 c0.4,0.4,0.6,0.9,0.6,1.5c0,0.6-0.2,1.1-0.6,1.5c-0.4,0.4-0.9,0.6-1.5,0.6c-0.4,0-0.7-0.1-1.1-0.3c-0.3-0.2-0.6-0.4-0.8-0.7 C340.6,593.4,340.5,593,340.5,592.5 M341.6,592.6c0,0.4,0.1,0.7,0.3,0.9c0.2,0.2,0.4,0.3,0.7,0.3c0.3,0,0.5-0.1,0.7-0.3 c0.2-0.2,0.3-0.5,0.3-0.9c0-0.4-0.1-0.7-0.3-0.9c-0.2-0.2-0.4-0.3-0.7-0.3c-0.3,0-0.5,0.1-0.7,0.3 C341.7,591.9,341.6,592.2,341.6,592.6 M342.1,590.1l0.5-1.1h1.2l-1.1,1.1H342.1z"/>
    <path class="st28" d="M349.4,594.6h-1.1v-2.1c0-0.4,0-0.7-0.1-0.8c0-0.1-0.1-0.2-0.2-0.3c-0.1-0.1-0.2-0.1-0.4-0.1 c-0.2,0-0.4,0.1-0.5,0.2c-0.2,0.1-0.3,0.2-0.3,0.4c-0.1,0.2-0.1,0.5-0.1,0.9v1.8h-1.1v-4h1v0.6c0.4-0.5,0.8-0.7,1.4-0.7 c0.2,0,0.5,0,0.7,0.1c0.2,0.1,0.4,0.2,0.5,0.3c0.1,0.1,0.2,0.3,0.2,0.4c0,0.2,0.1,0.4,0.1,0.7V594.6z"/>
    <path class="st28" d="M352.2,590.6h1.2l1,2.9l1-2.9h1.1l-1.5,3.9l-0.3,0.7c-0.1,0.2-0.2,0.4-0.3,0.5c-0.1,0.1-0.2,0.2-0.3,0.3 c-0.1,0.1-0.3,0.1-0.4,0.2c-0.2,0-0.3,0.1-0.6,0.1c-0.2,0-0.4,0-0.6-0.1l-0.1-0.8c0.2,0,0.3,0,0.5,0c0.3,0,0.4-0.1,0.6-0.2 c0.1-0.1,0.2-0.3,0.3-0.6L352.2,590.6z"/>
    <polygon class="st28" points="359.3,594.6 359.3,589 363.6,589 363.6,590 360.5,590 360.5,591.2 363.4,591.2 363.4,592.1 &#10;&#9;&#9;360.5,592.1 360.5,593.7 363.7,593.7 363.7,594.6 &#9;"/>
    <path class="st28" d="M368.4,594.6h-1V594c-0.2,0.2-0.4,0.4-0.6,0.5c-0.2,0.1-0.5,0.2-0.7,0.2c-0.5,0-0.9-0.2-1.2-0.6 c-0.3-0.4-0.5-0.9-0.5-1.6c0-0.7,0.2-1.2,0.5-1.6c0.3-0.4,0.7-0.5,1.3-0.5c0.5,0,0.9,0.2,1.2,0.6v-2h1.1V594.6z M365.5,592.5 c0,0.4,0.1,0.7,0.2,0.9c0.2,0.3,0.4,0.4,0.7,0.4c0.3,0,0.5-0.1,0.6-0.3c0.2-0.2,0.3-0.5,0.3-0.9c0-0.5-0.1-0.8-0.3-1 c-0.2-0.2-0.4-0.3-0.7-0.3c-0.3,0-0.5,0.1-0.6,0.3C365.6,591.8,365.5,592.1,365.5,592.5"/>
    <path class="st28" d="M372.2,594.6V594c-0.1,0.2-0.3,0.4-0.6,0.5c-0.2,0.1-0.5,0.2-0.8,0.2c-0.3,0-0.5-0.1-0.7-0.2 c-0.2-0.1-0.4-0.3-0.5-0.5c-0.1-0.2-0.1-0.5-0.1-0.9v-2.6h1.1v1.9c0,0.6,0,0.9,0.1,1c0,0.1,0.1,0.2,0.2,0.3 c0.1,0.1,0.2,0.1,0.4,0.1c0.2,0,0.4-0.1,0.5-0.2c0.1-0.1,0.2-0.2,0.3-0.4c0.1-0.1,0.1-0.5,0.1-1.1v-1.7h1.1v4H372.2z"/>
    <path class="st28" d="M378,591.8l-1.1,0.2c0-0.2-0.1-0.4-0.2-0.5c-0.1-0.1-0.3-0.2-0.5-0.2c-0.3,0-0.5,0.1-0.7,0.3 c-0.2,0.2-0.2,0.5-0.2,0.9c0,0.5,0.1,0.8,0.2,1c0.2,0.2,0.4,0.3,0.7,0.3c0.2,0,0.4-0.1,0.5-0.2c0.1-0.1,0.2-0.3,0.3-0.6l1.1,0.2 c-0.1,0.5-0.3,0.8-0.6,1.1c-0.3,0.2-0.7,0.4-1.3,0.4c-0.6,0-1.1-0.2-1.4-0.6c-0.4-0.4-0.5-0.9-0.5-1.6c0-0.7,0.2-1.2,0.5-1.6 c0.4-0.4,0.8-0.6,1.5-0.6c0.5,0,0.9,0.1,1.2,0.3C377.6,591,377.8,591.3,378,591.8"/>
    <path class="st28" d="M379.6,591.8l-1-0.2c0.1-0.4,0.3-0.7,0.6-0.9c0.3-0.2,0.7-0.3,1.2-0.3c0.5,0,0.9,0.1,1.1,0.2 c0.2,0.1,0.4,0.3,0.5,0.4c0.1,0.2,0.1,0.5,0.1,1l0,1.2c0,0.4,0,0.6,0.1,0.8c0,0.2,0.1,0.3,0.2,0.5h-1.1c0-0.1-0.1-0.2-0.1-0.3 c0-0.1,0-0.1,0-0.1c-0.2,0.2-0.4,0.3-0.6,0.4c-0.2,0.1-0.4,0.1-0.7,0.1c-0.4,0-0.8-0.1-1-0.3c-0.2-0.2-0.4-0.5-0.4-0.9 c0-0.2,0.1-0.4,0.2-0.6c0.1-0.2,0.3-0.3,0.5-0.4c0.2-0.1,0.5-0.2,0.9-0.3c0.5-0.1,0.9-0.2,1.1-0.3v-0.1c0-0.2-0.1-0.4-0.2-0.4 c-0.1-0.1-0.3-0.1-0.6-0.1c-0.2,0-0.3,0-0.5,0.1C379.8,591.5,379.7,591.6,379.6,591.8 M381.1,592.7c-0.1,0-0.4,0.1-0.7,0.2 c-0.3,0.1-0.5,0.1-0.6,0.2c-0.1,0.1-0.2,0.2-0.2,0.4c0,0.1,0.1,0.3,0.2,0.4c0.1,0.1,0.3,0.2,0.4,0.2c0.2,0,0.4-0.1,0.6-0.2 c0.1-0.1,0.2-0.2,0.3-0.4c0-0.1,0-0.3,0-0.5V592.7z"/>
    <path class="st28" d="M386.8,591.8l-1.1,0.2c0-0.2-0.1-0.4-0.2-0.5c-0.1-0.1-0.3-0.2-0.5-0.2c-0.3,0-0.5,0.1-0.7,0.3 c-0.2,0.2-0.2,0.5-0.2,0.9c0,0.5,0.1,0.8,0.2,1c0.2,0.2,0.4,0.3,0.7,0.3c0.2,0,0.4-0.1,0.5-0.2c0.1-0.1,0.2-0.3,0.3-0.6l1.1,0.2 c-0.1,0.5-0.3,0.8-0.6,1.1c-0.3,0.2-0.7,0.4-1.3,0.4c-0.6,0-1.1-0.2-1.4-0.6c-0.4-0.4-0.5-0.9-0.5-1.6c0-0.7,0.2-1.2,0.5-1.6 c0.4-0.4,0.8-0.6,1.5-0.6c0.5,0,0.9,0.1,1.2,0.3C386.5,591,386.7,591.3,386.8,591.8"/>
    <path class="st28" d="M387.6,589h1.1v1h-1.1V589z M387.6,590.6h1.1v4h-1.1V590.6z"/>
    <path class="st28" d="M389.6,592.5c0-0.4,0.1-0.7,0.3-1c0.2-0.3,0.4-0.6,0.8-0.8c0.3-0.2,0.7-0.3,1.1-0.3c0.6,0,1.1,0.2,1.5,0.6 c0.4,0.4,0.6,0.9,0.6,1.5c0,0.6-0.2,1.1-0.6,1.5c-0.4,0.4-0.9,0.6-1.5,0.6c-0.4,0-0.7-0.1-1.1-0.3c-0.3-0.2-0.6-0.4-0.8-0.7 C389.7,593.4,389.6,593,389.6,592.5 M390.7,592.6c0,0.4,0.1,0.7,0.3,0.9c0.2,0.2,0.4,0.3,0.7,0.3c0.3,0,0.5-0.1,0.7-0.3 c0.2-0.2,0.3-0.5,0.3-0.9c0-0.4-0.1-0.7-0.3-0.9c-0.2-0.2-0.4-0.3-0.7-0.3c-0.3,0-0.5,0.1-0.7,0.3 C390.8,591.9,390.7,592.2,390.7,592.6 M391.2,590.1l0.5-1.1h1.2l-1.1,1.1H391.2z"/>
    <path class="st28" d="M398.5,594.6h-1.1v-2.1c0-0.4,0-0.7-0.1-0.8c0-0.1-0.1-0.2-0.2-0.3c-0.1-0.1-0.2-0.1-0.4-0.1 c-0.2,0-0.4,0.1-0.5,0.2c-0.1,0.1-0.3,0.2-0.3,0.4c-0.1,0.2-0.1,0.5-0.1,0.9v1.8h-1.1v-4h1v0.6c0.4-0.5,0.8-0.7,1.4-0.7 c0.2,0,0.5,0,0.7,0.1c0.2,0.1,0.4,0.2,0.5,0.3c0.1,0.1,0.2,0.3,0.2,0.4c0,0.2,0.1,0.4,0.1,0.7V594.6z"/>
    <path class="st28" d="M401.5,592.8l1.1-0.1c0.1,0.4,0.2,0.6,0.4,0.8c0.2,0.2,0.5,0.3,0.8,0.3c0.4,0,0.7-0.1,0.8-0.2 c0.2-0.2,0.3-0.3,0.3-0.5c0-0.1,0-0.2-0.1-0.3c-0.1-0.1-0.2-0.2-0.4-0.2c-0.1,0-0.4-0.1-0.9-0.2c-0.6-0.2-1-0.3-1.3-0.6 c-0.4-0.3-0.5-0.7-0.5-1.1c0-0.3,0.1-0.6,0.2-0.8c0.2-0.2,0.4-0.4,0.7-0.6c0.3-0.1,0.7-0.2,1.1-0.2c0.7,0,1.3,0.2,1.6,0.5 c0.4,0.3,0.6,0.7,0.6,1.2l-1.2,0c0-0.3-0.2-0.5-0.3-0.6c-0.2-0.1-0.4-0.2-0.7-0.2c-0.3,0-0.6,0.1-0.8,0.2c-0.1,0.1-0.2,0.2-0.2,0.3 c0,0.1,0.1,0.2,0.2,0.3c0.1,0.1,0.5,0.2,1.1,0.4c0.6,0.1,1,0.3,1.2,0.4c0.3,0.1,0.5,0.3,0.6,0.6c0.1,0.2,0.2,0.5,0.2,0.9 c0,0.3-0.1,0.6-0.3,0.9c-0.2,0.3-0.4,0.5-0.8,0.6c-0.3,0.1-0.7,0.2-1.2,0.2c-0.7,0-1.3-0.2-1.7-0.5 C401.8,593.9,401.6,593.4,401.5,592.8"/>
    <path class="st28" d="M406.8,592.5c0-0.4,0.1-0.7,0.3-1c0.2-0.3,0.4-0.6,0.8-0.8c0.3-0.2,0.7-0.3,1.1-0.3c0.6,0,1.1,0.2,1.5,0.6 c0.4,0.4,0.6,0.9,0.6,1.5c0,0.6-0.2,1.1-0.6,1.5c-0.4,0.4-0.9,0.6-1.5,0.6c-0.4,0-0.7-0.1-1.1-0.3c-0.3-0.2-0.6-0.4-0.8-0.7 C406.9,593.4,406.8,593,406.8,592.5 M408,592.6c0,0.4,0.1,0.7,0.3,0.9c0.2,0.2,0.4,0.3,0.7,0.3c0.3,0,0.5-0.1,0.7-0.3 c0.2-0.2,0.3-0.5,0.3-0.9c0-0.4-0.1-0.7-0.3-0.9c-0.2-0.2-0.4-0.3-0.7-0.3c-0.3,0-0.5,0.1-0.7,0.3C408.1,591.9,408,592.2,408,592.6 "/>
    <path class="st28" d="M415.6,591.8l-1.1,0.2c0-0.2-0.1-0.4-0.2-0.5c-0.1-0.1-0.3-0.2-0.5-0.2c-0.3,0-0.5,0.1-0.7,0.3 c-0.2,0.2-0.2,0.5-0.2,0.9c0,0.5,0.1,0.8,0.2,1c0.2,0.2,0.4,0.3,0.7,0.3c0.2,0,0.4-0.1,0.5-0.2c0.1-0.1,0.2-0.3,0.3-0.6l1.1,0.2 c-0.1,0.5-0.3,0.8-0.6,1.1c-0.3,0.2-0.7,0.4-1.3,0.4c-0.6,0-1.1-0.2-1.4-0.6c-0.4-0.4-0.5-0.9-0.5-1.6c0-0.7,0.2-1.2,0.5-1.6 c0.4-0.4,0.8-0.6,1.5-0.6c0.5,0,0.9,0.1,1.2,0.3C415.2,591,415.4,591.3,415.6,591.8"/>
    <path class="st28" d="M416.4,589h1.1v1h-1.1V589z M416.4,590.6h1.1v4h-1.1V590.6z"/>
    <path class="st28" d="M419.4,591.8l-1-0.2c0.1-0.4,0.3-0.7,0.6-0.9c0.3-0.2,0.7-0.3,1.2-0.3c0.5,0,0.8,0.1,1.1,0.2 c0.2,0.1,0.4,0.3,0.5,0.4c0.1,0.2,0.1,0.5,0.1,1l0,1.2c0,0.4,0,0.6,0.1,0.8c0,0.2,0.1,0.3,0.2,0.5h-1.1c0-0.1-0.1-0.2-0.1-0.3 c0-0.1,0-0.1,0-0.1c-0.2,0.2-0.4,0.3-0.6,0.4c-0.2,0.1-0.4,0.1-0.7,0.1c-0.4,0-0.8-0.1-1-0.3c-0.2-0.2-0.4-0.5-0.4-0.9 c0-0.2,0.1-0.4,0.2-0.6c0.1-0.2,0.3-0.3,0.5-0.4c0.2-0.1,0.5-0.2,0.9-0.3c0.5-0.1,0.9-0.2,1.1-0.3v-0.1c0-0.2-0.1-0.4-0.2-0.4 c-0.1-0.1-0.3-0.1-0.6-0.1c-0.2,0-0.3,0-0.5,0.1C419.6,591.5,419.5,591.6,419.4,591.8 M420.9,592.7c-0.1,0-0.4,0.1-0.7,0.2 c-0.3,0.1-0.5,0.1-0.6,0.2c-0.1,0.1-0.2,0.2-0.2,0.4c0,0.1,0.1,0.3,0.2,0.4c0.1,0.1,0.3,0.2,0.4,0.2c0.2,0,0.4-0.1,0.6-0.2 c0.1-0.1,0.2-0.2,0.3-0.4c0-0.1,0-0.3,0-0.5V592.7z"/>
    <rect x="423" y="589" class="st28" width="1.1" height="5.6"/>
    <path class="st28" d="M425.2,589h1.1v1h-1.1V589z M425.2,590.6h1.1v4h-1.1V590.6z"/>
    <path class="st28" d="M427.1,593.4l1.1-0.2c0,0.2,0.1,0.4,0.3,0.5c0.1,0.1,0.3,0.2,0.6,0.2c0.3,0,0.5-0.1,0.6-0.2 c0.1-0.1,0.1-0.2,0.1-0.3c0-0.1,0-0.1-0.1-0.2c-0.1-0.1-0.2-0.1-0.4-0.1c-0.9-0.2-1.4-0.4-1.7-0.5c-0.3-0.2-0.5-0.5-0.5-0.9 c0-0.4,0.1-0.6,0.4-0.9c0.3-0.2,0.7-0.4,1.3-0.4c0.6,0,1,0.1,1.3,0.3c0.3,0.2,0.5,0.4,0.6,0.8l-1,0.2c0-0.2-0.1-0.3-0.3-0.4 c-0.1-0.1-0.3-0.1-0.5-0.1c-0.3,0-0.5,0-0.6,0.1c-0.1,0.1-0.1,0.1-0.1,0.2c0,0.1,0,0.1,0.1,0.2c0.1,0.1,0.4,0.2,1,0.3 c0.6,0.1,1,0.3,1.2,0.5c0.2,0.2,0.3,0.5,0.3,0.8c0,0.4-0.2,0.7-0.5,1c-0.3,0.3-0.8,0.4-1.4,0.4c-0.6,0-1-0.1-1.3-0.3 C427.4,594.1,427.2,593.8,427.1,593.4"/>
    <path class="st28" d="M433.8,590.6v0.9H433v1.6c0,0.3,0,0.5,0,0.6c0,0.1,0,0.1,0.1,0.1c0,0,0.1,0.1,0.2,0.1c0.1,0,0.2,0,0.4-0.1 l0.1,0.8c-0.3,0.1-0.5,0.2-0.9,0.2c-0.2,0-0.4,0-0.5-0.1c-0.2-0.1-0.3-0.1-0.3-0.3c-0.1-0.1-0.1-0.2-0.2-0.4c0-0.1,0-0.4,0-0.8 v-1.8h-0.5v-0.9h0.5v-0.8l1.1-0.6v1.4H433.8z"/>
    <path class="st28" d="M435.3,591.8l-1-0.2c0.1-0.4,0.3-0.7,0.6-0.9c0.3-0.2,0.7-0.3,1.2-0.3c0.5,0,0.9,0.1,1.1,0.2 c0.2,0.1,0.4,0.3,0.5,0.4c0.1,0.2,0.1,0.5,0.1,1l0,1.2c0,0.4,0,0.6,0.1,0.8c0,0.2,0.1,0.3,0.2,0.5H437c0-0.1-0.1-0.2-0.1-0.3 c0-0.1,0-0.1,0-0.1c-0.2,0.2-0.4,0.3-0.6,0.4c-0.2,0.1-0.4,0.1-0.7,0.1c-0.4,0-0.8-0.1-1-0.3c-0.2-0.2-0.4-0.5-0.4-0.9 c0-0.2,0.1-0.4,0.2-0.6c0.1-0.2,0.3-0.3,0.5-0.4c0.2-0.1,0.5-0.2,0.9-0.3c0.5-0.1,0.9-0.2,1.1-0.3v-0.1c0-0.2-0.1-0.4-0.2-0.4 c-0.1-0.1-0.3-0.1-0.6-0.1c-0.2,0-0.3,0-0.5,0.1C435.5,591.5,435.4,591.6,435.3,591.8 M436.8,592.7c-0.1,0-0.4,0.1-0.7,0.2 c-0.3,0.1-0.5,0.1-0.6,0.2c-0.1,0.1-0.2,0.2-0.2,0.4c0,0.1,0.1,0.3,0.2,0.4c0.1,0.1,0.3,0.2,0.4,0.2c0.2,0,0.4-0.1,0.6-0.2 c0.1-0.1,0.2-0.2,0.3-0.4c0-0.1,0-0.3,0-0.5V592.7z"/>
    <path class="st29" d="M56.9,594.9v-0.8c-0.4,0.6-1,1-1.9,1c-0.5,0-1-0.1-1.5-0.4c-0.4-0.3-0.8-0.7-1-1.2c-0.2-0.5-0.4-1.1-0.4-1.8 c0-0.6,0.1-1.2,0.3-1.8c0.2-0.5,0.6-0.9,1-1.2c0.4-0.3,0.9-0.4,1.5-0.4c0.4,0,0.8,0.1,1.1,0.2c0.3,0.2,0.6,0.4,0.8,0.6v-3.2H58v9 H56.9z M53.4,591.6c0,0.8,0.2,1.5,0.5,1.9c0.4,0.4,0.8,0.6,1.3,0.6c0.5,0,0.9-0.2,1.3-0.6c0.3-0.4,0.5-1,0.5-1.8 c0-0.9-0.2-1.5-0.5-2c-0.4-0.4-0.8-0.6-1.3-0.6c-0.5,0-0.9,0.2-1.3,0.6C53.5,590.1,53.4,590.8,53.4,591.6"/>
    <path class="st29" d="M63.7,592.8l1.2,0.1c-0.2,0.7-0.5,1.2-1,1.5c-0.5,0.4-1.1,0.5-1.9,0.5c-1,0-1.7-0.3-2.3-0.9 c-0.6-0.6-0.8-1.4-0.8-2.5c0-1.1,0.3-1.9,0.9-2.5c0.6-0.6,1.3-0.9,2.2-0.9c0.9,0,1.6,0.3,2.2,0.9c0.6,0.6,0.8,1.4,0.8,2.5 c0,0.1,0,0.2,0,0.3h-4.9c0,0.7,0.2,1.3,0.6,1.6c0.4,0.4,0.8,0.6,1.4,0.6c0.4,0,0.8-0.1,1.1-0.3C63.3,593.6,63.5,593.2,63.7,592.8 M60,591h3.7c0-0.5-0.2-1-0.4-1.2c-0.4-0.4-0.8-0.6-1.4-0.6c-0.5,0-1,0.2-1.3,0.5C60.2,590,60,590.4,60,591"/>
    <path class="st27" d="M71.5,594.9l-3.5-9h1.3l2.4,6.5c0.2,0.5,0.4,1,0.5,1.5c0.1-0.5,0.3-1,0.5-1.5l2.5-6.5h1.2l-3.6,9H71.5z"/>
    <path class="st29" d="M81.2,592.8l1.2,0.1c-0.2,0.7-0.5,1.2-1,1.5c-0.5,0.4-1.1,0.5-1.9,0.5c-1,0-1.7-0.3-2.3-0.9 c-0.6-0.6-0.8-1.4-0.8-2.5c0-1.1,0.3-1.9,0.9-2.5c0.6-0.6,1.3-0.9,2.2-0.9c0.9,0,1.6,0.3,2.2,0.9c0.6,0.6,0.8,1.4,0.8,2.5 c0,0.1,0,0.2,0,0.3h-4.9c0,0.7,0.2,1.3,0.6,1.6c0.4,0.4,0.8,0.6,1.4,0.6c0.4,0,0.8-0.1,1.1-0.3C80.8,593.6,81,593.2,81.2,592.8 M77.5,591h3.7c-0.1-0.5-0.2-1-0.4-1.2c-0.4-0.4-0.8-0.6-1.4-0.6c-0.5,0-1,0.2-1.3,0.5C77.7,590,77.6,590.4,77.5,591"/>
    <path class="st27" d="M83.2,594.9v-6.5h1v0.9c0.5-0.7,1.2-1.1,2.1-1.1c0.4,0,0.8,0.1,1.1,0.2c0.3,0.1,0.6,0.3,0.8,0.6 c0.2,0.2,0.3,0.5,0.3,0.8c0,0.2,0.1,0.6,0.1,1.1v4h-1.1v-4c0-0.5,0-0.8-0.1-1c-0.1-0.2-0.2-0.4-0.5-0.5c-0.2-0.1-0.5-0.2-0.8-0.2 c-0.5,0-0.9,0.2-1.2,0.4c-0.3,0.3-0.5,0.9-0.5,1.7v3.5H83.2z"/>
    <path class="st29" d="M94.3,592.8l1.2,0.1c-0.2,0.7-0.5,1.2-1,1.5c-0.5,0.4-1.1,0.5-1.9,0.5c-1,0-1.7-0.3-2.3-0.9 c-0.6-0.6-0.8-1.4-0.8-2.5c0-1.1,0.3-1.9,0.9-2.5c0.6-0.6,1.3-0.9,2.2-0.9c0.9,0,1.6,0.3,2.2,0.9c0.6,0.6,0.8,1.4,0.8,2.5 c0,0.1,0,0.2,0,0.3h-4.9c0,0.7,0.3,1.3,0.6,1.6c0.4,0.4,0.8,0.6,1.4,0.6c0.4,0,0.8-0.1,1.1-0.3C93.9,593.6,94.1,593.2,94.3,592.8 M90.6,591h3.7c0-0.5-0.2-1-0.4-1.2c-0.4-0.4-0.8-0.6-1.4-0.6c-0.5,0-1,0.2-1.3,0.5C90.8,590,90.7,590.4,90.6,591"/>
    <path class="st27" d="M95.7,594.9V594l4.2-4.8c-0.5,0-0.9,0-1.3,0H96v-0.9h5.4v0.7l-3.6,4.1l-0.7,0.8c0.5,0,1-0.1,1.4-0.1h3.1v0.9 H95.7z"/>
    <path class="st27" d="M106.5,594.9v-1c-0.5,0.7-1.2,1.1-2.1,1.1c-0.4,0-0.8-0.1-1.1-0.2c-0.3-0.1-0.6-0.3-0.8-0.6 c-0.2-0.2-0.3-0.5-0.3-0.8c0-0.2-0.1-0.6-0.1-1v-4h1.1v3.6c0,0.6,0,1,0.1,1.2c0.1,0.3,0.2,0.5,0.5,0.7c0.2,0.2,0.5,0.2,0.8,0.2 c0.3,0,0.7-0.1,1-0.3c0.3-0.2,0.5-0.4,0.6-0.7c0.1-0.3,0.2-0.7,0.2-1.3v-3.5h1.1v6.5H106.5z"/>
    <path class="st29" d="M113.2,592.8l1.2,0.1c-0.2,0.7-0.5,1.2-1,1.5c-0.5,0.4-1.1,0.5-1.9,0.5c-1,0-1.7-0.3-2.3-0.9 c-0.6-0.6-0.8-1.4-0.8-2.5c0-1.1,0.3-1.9,0.9-2.5c0.6-0.6,1.3-0.9,2.2-0.9c0.9,0,1.6,0.3,2.2,0.9c0.6,0.6,0.8,1.4,0.8,2.5 c0,0.1,0,0.2,0,0.3h-4.9c0,0.7,0.2,1.3,0.6,1.6c0.4,0.4,0.8,0.6,1.4,0.6c0.4,0,0.8-0.1,1.1-0.3 C112.8,593.6,113.1,593.2,113.2,592.8 M109.6,591h3.7c-0.1-0.5-0.2-1-0.4-1.2c-0.4-0.4-0.8-0.6-1.4-0.6c-0.5,0-1,0.2-1.3,0.5 C109.8,590,109.6,590.4,109.6,591"/>
    <rect x="115.2" y="585.9" class="st27" width="1.1" height="9"/>
    <path class="st29" d="M121.9,594.1c-0.4,0.3-0.8,0.6-1.2,0.7c-0.4,0.1-0.8,0.2-1.2,0.2c-0.7,0-1.3-0.2-1.7-0.5 c-0.4-0.4-0.6-0.8-0.6-1.3c0-0.3,0.1-0.6,0.2-0.9c0.1-0.3,0.3-0.5,0.6-0.6c0.2-0.2,0.5-0.3,0.8-0.4c0.2-0.1,0.6-0.1,1-0.2 c0.9-0.1,1.6-0.2,2-0.4c0-0.2,0-0.3,0-0.3c0-0.4-0.1-0.8-0.3-1c-0.3-0.2-0.7-0.4-1.3-0.4c-0.5,0-0.9,0.1-1.2,0.3 c-0.2,0.2-0.4,0.5-0.6,1l-1.1-0.1c0.1-0.5,0.3-0.8,0.5-1.1c0.2-0.3,0.6-0.5,1-0.7c0.4-0.2,0.9-0.2,1.5-0.2c0.6,0,1,0.1,1.4,0.2 c0.4,0.1,0.6,0.3,0.8,0.5c0.2,0.2,0.3,0.4,0.3,0.7c0,0.2,0.1,0.5,0.1,1v1.5c0,1,0,1.7,0.1,1.9c0,0.3,0.1,0.5,0.3,0.8h-1.2 C122,594.6,121.9,594.4,121.9,594.1 M121.8,591.6c-0.4,0.2-1,0.3-1.8,0.4c-0.5,0.1-0.8,0.1-1,0.2c-0.2,0.1-0.3,0.2-0.4,0.4 c-0.1,0.2-0.2,0.3-0.2,0.5c0,0.3,0.1,0.5,0.3,0.7c0.2,0.2,0.6,0.3,1,0.3c0.4,0,0.8-0.1,1.2-0.3c0.3-0.2,0.6-0.4,0.7-0.8 c0.1-0.2,0.2-0.6,0.2-1.1V591.6z"/>
    <path class="st27" d="M57,581V580l3.9,0v3.3c-0.6,0.5-1.2,0.8-1.8,1.1c-0.6,0.2-1.3,0.3-1.9,0.3c-0.9,0-1.7-0.2-2.5-0.6 c-0.7-0.4-1.3-0.9-1.7-1.6c-0.4-0.7-0.6-1.5-0.6-2.4c0-0.9,0.2-1.7,0.6-2.4c0.4-0.8,0.9-1.3,1.6-1.7c0.7-0.4,1.5-0.6,2.4-0.6 c0.7,0,1.3,0.1,1.8,0.3c0.5,0.2,1,0.5,1.3,0.9c0.3,0.4,0.5,0.9,0.7,1.5l-1.1,0.3c-0.1-0.5-0.3-0.8-0.5-1.1 c-0.2-0.3-0.5-0.5-0.9-0.6c-0.4-0.2-0.8-0.2-1.3-0.2c-0.6,0-1,0.1-1.4,0.3c-0.4,0.2-0.7,0.4-1,0.6c-0.2,0.3-0.4,0.6-0.6,0.9 c-0.2,0.6-0.4,1.2-0.4,1.8c0,0.8,0.1,1.5,0.4,2c0.3,0.5,0.7,0.9,1.2,1.2c0.5,0.3,1.1,0.4,1.7,0.4c0.5,0,1-0.1,1.5-0.3 c0.5-0.2,0.9-0.4,1.1-0.6V581H57z"/>
    <path class="st29" d="M61.6,581.3c0-1.2,0.3-2.1,1-2.7c0.6-0.5,1.3-0.7,2.1-0.7c0.9,0,1.7,0.3,2.2,0.9c0.6,0.6,0.9,1.4,0.9,2.4 c0,0.8-0.1,1.5-0.4,2c-0.3,0.5-0.6,0.8-1.1,1.1c-0.5,0.3-1,0.4-1.6,0.4c-0.9,0-1.7-0.3-2.3-0.9C61.9,583.2,61.6,582.4,61.6,581.3 M62.7,581.3c0,0.8,0.2,1.5,0.6,1.9c0.4,0.4,0.8,0.6,1.4,0.6c0.6,0,1-0.2,1.4-0.6c0.4-0.4,0.6-1.1,0.6-1.9c0-0.8-0.2-1.4-0.6-1.8 c-0.4-0.4-0.8-0.6-1.4-0.6c-0.6,0-1,0.2-1.4,0.6C62.9,579.8,62.7,580.5,62.7,581.3"/>
    <path class="st29" d="M69.6,584.5h-1v-9h1.1v3.2c0.5-0.6,1.1-0.9,1.8-0.9c0.4,0,0.8,0.1,1.2,0.2c0.4,0.2,0.7,0.4,0.9,0.7 c0.2,0.3,0.4,0.6,0.6,1.1c0.1,0.4,0.2,0.9,0.2,1.3c0,1.1-0.3,2-0.8,2.6c-0.6,0.6-1.2,0.9-2,0.9c-0.8,0-1.4-0.3-1.8-1V584.5z M69.6,581.2c0,0.8,0.1,1.3,0.3,1.7c0.4,0.6,0.8,0.9,1.4,0.9c0.5,0,0.9-0.2,1.3-0.6c0.4-0.4,0.5-1,0.5-1.9c0-0.8-0.2-1.5-0.5-1.9 c-0.3-0.4-0.8-0.6-1.2-0.6c-0.5,0-0.9,0.2-1.3,0.6C69.7,579.8,69.6,580.5,69.6,581.2"/>
    <path class="st29" d="M75.1,575.6h1.1v1.3h-1.1V575.6z M75.1,578h1.1v6.5h-1.1V578z"/>
    <path class="st29" d="M81.9,582.4l1.2,0.1c-0.2,0.7-0.5,1.2-1,1.5c-0.5,0.4-1.1,0.5-1.9,0.5c-1,0-1.7-0.3-2.3-0.9 c-0.6-0.6-0.8-1.4-0.8-2.5c0-1.1,0.3-1.9,0.9-2.5c0.6-0.6,1.3-0.9,2.2-0.9c0.9,0,1.6,0.3,2.2,0.9c0.6,0.6,0.8,1.4,0.8,2.5 c0,0.1,0,0.2,0,0.3h-4.9c0,0.7,0.2,1.3,0.6,1.6c0.4,0.4,0.8,0.6,1.4,0.6c0.4,0,0.8-0.1,1.1-0.3C81.5,583.3,81.7,582.9,81.9,582.4 M78.2,580.7h3.7c-0.1-0.5-0.2-1-0.4-1.2c-0.4-0.4-0.8-0.6-1.4-0.6c-0.5,0-1,0.2-1.3,0.5C78.5,579.6,78.3,580.1,78.2,580.7"/>
    <path class="st27" d="M83.9,584.5V578h1v1c0.3-0.5,0.5-0.8,0.7-0.9c0.2-0.1,0.5-0.2,0.7-0.2c0.4,0,0.8,0.1,1.2,0.4l-0.4,1 c-0.3-0.2-0.5-0.2-0.8-0.2c-0.2,0-0.5,0.1-0.7,0.2c-0.2,0.1-0.3,0.3-0.4,0.6c-0.1,0.4-0.2,0.8-0.2,1.3v3.4H83.9z"/>
    <path class="st27" d="M87.6,584.5V578h1v0.9c0.5-0.7,1.2-1.1,2.1-1.1c0.4,0,0.8,0.1,1.1,0.2c0.3,0.1,0.6,0.3,0.8,0.6 c0.2,0.2,0.3,0.5,0.3,0.8c0,0.2,0.1,0.6,0.1,1.1v4h-1.1v-4c0-0.4,0-0.8-0.1-1c-0.1-0.2-0.2-0.4-0.5-0.5c-0.2-0.1-0.5-0.2-0.8-0.2 c-0.5,0-0.9,0.1-1.2,0.4c-0.3,0.3-0.5,0.9-0.5,1.7v3.6H87.6z"/>
    <path class="st29" d="M93.8,581.3c0-1.2,0.3-2.1,1-2.7c0.6-0.5,1.3-0.7,2.1-0.7c0.9,0,1.7,0.3,2.2,0.9c0.6,0.6,0.9,1.4,0.9,2.4 c0,0.8-0.1,1.5-0.4,2c-0.3,0.5-0.6,0.8-1.1,1.1c-0.5,0.3-1,0.4-1.6,0.4c-0.9,0-1.7-0.3-2.3-0.9C94,583.2,93.8,582.4,93.8,581.3 M94.9,581.3c0,0.8,0.2,1.5,0.6,1.9c0.4,0.4,0.8,0.6,1.4,0.6c0.6,0,1-0.2,1.4-0.6c0.4-0.4,0.6-1.1,0.6-1.9c0-0.8-0.2-1.4-0.6-1.8 c-0.4-0.4-0.8-0.6-1.4-0.6c-0.6,0-1,0.2-1.4,0.6C95.1,579.8,94.9,580.5,94.9,581.3"/>
    <path class="st30" d="M103.8,575.6h3.7c0.7,0,1.3,0,1.6,0.1c0.4,0.1,0.7,0.2,1,0.4c0.3,0.2,0.5,0.4,0.7,0.8c0.2,0.3,0.3,0.7,0.3,1 c0,0.4-0.1,0.8-0.4,1.2c-0.2,0.4-0.5,0.6-0.9,0.8c0.6,0.2,1,0.4,1.3,0.8c0.3,0.4,0.4,0.8,0.4,1.4c0,0.4-0.1,0.8-0.3,1.2 c-0.2,0.4-0.5,0.7-0.8,0.9c-0.3,0.2-0.7,0.4-1.2,0.4c-0.3,0-1.1,0.1-2.2,0.1h-3.1V575.6z M105.7,577.1v2.1h1.2c0.7,0,1.2,0,1.3,0 c0.3,0,0.6-0.1,0.7-0.3c0.2-0.2,0.3-0.4,0.3-0.7c0-0.3-0.1-0.5-0.2-0.7c-0.2-0.2-0.4-0.3-0.7-0.3c-0.2,0-0.7,0-1.6,0H105.7z M105.7,580.6v2.4h1.7c0.7,0,1.1,0,1.3-0.1c0.3,0,0.5-0.2,0.7-0.4c0.2-0.2,0.3-0.4,0.3-0.8c0-0.3-0.1-0.5-0.2-0.7 c-0.1-0.2-0.3-0.3-0.6-0.4c-0.3-0.1-0.8-0.1-1.6-0.1H105.7z"/>
    <path class="st30" d="M112.1,581.2c0-0.6,0.1-1.1,0.4-1.7c0.3-0.5,0.7-0.9,1.2-1.2c0.5-0.3,1.1-0.4,1.8-0.4c1,0,1.8,0.3,2.5,1 c0.6,0.6,1,1.4,1,2.4c0,1-0.3,1.8-1,2.4c-0.6,0.6-1.5,1-2.4,1c-0.6,0-1.2-0.1-1.7-0.4c-0.5-0.3-1-0.7-1.3-1.2 C112.2,582.6,112.1,581.9,112.1,581.2 M113.9,581.3c0,0.6,0.2,1.1,0.5,1.5c0.3,0.3,0.7,0.5,1.2,0.5c0.5,0,0.8-0.2,1.1-0.5 c0.3-0.3,0.5-0.8,0.5-1.5c0-0.6-0.2-1.1-0.5-1.5c-0.3-0.3-0.7-0.5-1.1-0.5c-0.5,0-0.8,0.2-1.2,0.5 C114,580.2,113.9,580.6,113.9,581.3"/>
    <rect x="119.7" y="575.6" class="st28" width="1.8" height="9"/>
    <path class="st30" d="M122.7,575.6h1.8v1.6h-1.8V575.6z M122.7,578h1.8v6.5h-1.8V578z"/>
    <path class="st28" d="M127.5,584.5l-2.7-6.5h1.8l1.2,3.3l0.4,1.1c0.1-0.3,0.2-0.5,0.2-0.6c0.1-0.2,0.1-0.4,0.2-0.6l1.3-3.3h1.8 l-2.6,6.5H127.5z"/>
    <path class="st30" d="M133.6,580l-1.6-0.3c0.2-0.6,0.5-1.1,0.9-1.4c0.4-0.3,1.1-0.5,1.9-0.5c0.8,0,1.4,0.1,1.7,0.3 c0.4,0.2,0.7,0.4,0.8,0.7c0.2,0.3,0.2,0.8,0.2,1.5l0,2c0,0.6,0,1,0.1,1.3c0.1,0.3,0.2,0.6,0.3,0.9h-1.7c0-0.1-0.1-0.3-0.2-0.5 c0-0.1,0-0.2-0.1-0.2c-0.3,0.3-0.6,0.5-1,0.6c-0.3,0.1-0.7,0.2-1.1,0.2c-0.7,0-1.2-0.2-1.6-0.5c-0.4-0.4-0.6-0.8-0.6-1.4 c0-0.4,0.1-0.7,0.3-1c0.2-0.3,0.4-0.5,0.8-0.7c0.3-0.2,0.8-0.3,1.4-0.4c0.8-0.1,1.4-0.3,1.7-0.4v-0.2c0-0.3-0.1-0.6-0.3-0.7 c-0.2-0.1-0.5-0.2-0.9-0.2c-0.3,0-0.6,0.1-0.7,0.2C133.8,579.5,133.7,579.7,133.6,580 M135.9,581.4c-0.2,0.1-0.6,0.2-1.1,0.3 c-0.5,0.1-0.8,0.2-1,0.3c-0.2,0.2-0.3,0.4-0.3,0.6c0,0.2,0.1,0.5,0.3,0.6c0.2,0.2,0.4,0.3,0.7,0.3c0.3,0,0.6-0.1,0.9-0.3 c0.2-0.2,0.3-0.3,0.4-0.6c0-0.1,0.1-0.4,0.1-0.8V581.4z"/>
    <path class="st28" d="M140.5,584.5h-1.8V578h1.6v0.9c0.3-0.4,0.5-0.7,0.8-0.9c0.2-0.1,0.5-0.2,0.8-0.2c0.4,0,0.8,0.1,1.2,0.3 l-0.5,1.5c-0.3-0.2-0.6-0.3-0.8-0.3c-0.2,0-0.5,0.1-0.6,0.2c-0.2,0.1-0.3,0.4-0.4,0.7c-0.1,0.3-0.1,1.1-0.1,2.2V584.5z"/>
    <path class="st30" d="M143.2,575.6h1.8v1.6h-1.8V575.6z M143.2,578h1.8v6.5h-1.8V578z"/>
    <path class="st30" d="M147.5,580l-1.6-0.3c0.2-0.6,0.5-1.1,0.9-1.4c0.4-0.3,1.1-0.5,1.9-0.5c0.8,0,1.4,0.1,1.7,0.3 c0.4,0.2,0.7,0.4,0.8,0.7c0.2,0.3,0.2,0.8,0.2,1.5l0,2c0,0.6,0,1,0.1,1.3c0.1,0.3,0.2,0.6,0.3,0.9h-1.7c0-0.1-0.1-0.3-0.2-0.5 c0-0.1,0-0.2-0.1-0.2c-0.3,0.3-0.6,0.5-1,0.6c-0.3,0.1-0.7,0.2-1.1,0.2c-0.7,0-1.2-0.2-1.6-0.5c-0.4-0.4-0.6-0.8-0.6-1.4 c0-0.4,0.1-0.7,0.3-1c0.2-0.3,0.4-0.5,0.8-0.7c0.3-0.2,0.8-0.3,1.4-0.4c0.8-0.1,1.4-0.3,1.7-0.4v-0.2c0-0.3-0.1-0.6-0.3-0.7 c-0.2-0.1-0.5-0.2-0.9-0.2c-0.3,0-0.6,0.1-0.7,0.2C147.8,579.5,147.6,579.7,147.5,580 M149.9,581.4c-0.2,0.1-0.6,0.2-1.1,0.3 c-0.5,0.1-0.8,0.2-1,0.3c-0.2,0.2-0.3,0.4-0.3,0.6c0,0.2,0.1,0.5,0.3,0.6c0.2,0.2,0.4,0.3,0.7,0.3c0.3,0,0.6-0.1,0.9-0.3 c0.2-0.2,0.4-0.3,0.4-0.6c0-0.1,0.1-0.4,0.1-0.8V581.4z"/>
    <path class="st28" d="M158.8,584.5H157v-3.3c0-0.7,0-1.2-0.1-1.4c-0.1-0.2-0.2-0.4-0.4-0.5c-0.2-0.1-0.4-0.2-0.6-0.2 c-0.3,0-0.6,0.1-0.8,0.2c-0.2,0.2-0.4,0.4-0.5,0.7c-0.1,0.3-0.1,0.8-0.1,1.5v2.9h-1.8V578h1.6v1c0.6-0.7,1.3-1.1,2.2-1.1 c0.4,0,0.7,0.1,1.1,0.2c0.3,0.1,0.6,0.3,0.7,0.5c0.2,0.2,0.3,0.5,0.3,0.7c0.1,0.3,0.1,0.7,0.1,1.2V584.5z"/>
    <path class="st30" d="M159.6,581.2c0-0.6,0.1-1.1,0.4-1.7c0.3-0.5,0.7-0.9,1.2-1.2c0.5-0.3,1.1-0.4,1.8-0.4c1,0,1.8,0.3,2.5,1 c0.6,0.6,1,1.4,1,2.4c0,1-0.3,1.8-1,2.4c-0.6,0.6-1.5,1-2.4,1c-0.6,0-1.2-0.1-1.7-0.4c-0.5-0.3-1-0.7-1.3-1.2 C159.7,582.6,159.6,581.9,159.6,581.2 M161.4,581.3c0,0.6,0.2,1.1,0.5,1.5c0.3,0.3,0.7,0.5,1.2,0.5c0.5,0,0.8-0.2,1.2-0.5 c0.3-0.3,0.5-0.8,0.5-1.5c0-0.6-0.2-1.1-0.5-1.5c-0.3-0.3-0.7-0.5-1.2-0.5c-0.5,0-0.8,0.2-1.2,0.5 C161.5,580.2,161.4,580.6,161.4,581.3"/>
    <rect x="170.9" y="576" class="st31" width="1.4" height="19.4"/>
    <rect x="282.8" y="576.1" class="st31" width="1.4" height="19.4"/>
    <rect x="290.1" y="580.1" class="st27" width="0.7" height="5.6"/>
    <polygon class="st32" points="34.5,585.3 34.7,586.1 35,585.3 35.9,585.4 35.2,584.8 35.6,584 34.8,584.5 34.2,583.9 34.4,584.7 &#10;&#9;&#9;33.6,585.2 &#9;"/>
    <polygon class="st32" points="37.7,584.7 37.9,585.5 38.3,584.7 39.1,584.8 38.5,584.2 38.8,583.5 38.1,583.9 37.4,583.4 &#10;&#9;&#9;37.6,584.2 36.9,584.6 &#9;"/>
    <polygon class="st32" points="47.5,581.8 46.8,582.3 46.2,581.7 46.3,582.5 45.6,583 46.5,583 46.7,583.9 47,583.1 47.9,583.2 &#10;&#9;&#9;47.2,582.6 &#9;"/>
    <polygon class="st32" points="28.5,588.8 28.7,589.6 29.1,588.8 29.9,588.9 29.3,588.3 29.6,587.5 28.9,588 28.2,587.4 28.4,588.2 &#10;&#9;&#9;27.7,588.7 &#9;"/>
    <polygon class="st32" points="31.5,587.5 31.9,586.7 32.7,586.8 32.1,586.3 32.4,585.5 31.7,585.9 31,585.4 31.2,586.2 30.5,586.6 &#10;&#9;&#9;31.3,586.7 &#9;"/>
    <polygon class="st32" points="44.5,583.2 43.8,583.7 43.1,583.1 43.3,583.9 42.6,584.4 43.4,584.4 43.6,585.3 44,584.5 44.8,584.6 &#10;&#9;&#9;44.2,584 &#9;"/>
    <path class="st33" d="M36.6,593.6c1.7-1,3.6-1.1,4.4-1.1h0.1l-0.7-4.2h0l-0.3-1.2c-1,0.1-5,0.9-8.3,2.9c-3.5,2.1-6.9,6.2-7.5,7.1 H32C32.2,596.9,34.2,594.9,36.6,593.6"/>
    <path class="st34" d="M30.2,583.4c3.4-1.9,6.3-2.3,7.9-2.3c0.6,0,1,0,1.2,0.1l-0.7-4.4l0,0l-0.2-1.2c0,0-0.1,0-0.2,0 c-1.2,0-5.2,0.1-8.2,1.7c-4,2.1-5.6,4.6-5.7,4.7v7C24.6,588.5,26.4,585.5,30.2,583.4"/>
    <path class="st35" d="M31.7,589.8c3.1-1.9,6.7-2.9,8.4-3l-0.6-4h0l0-0.1l0-0.2l-0.2-1c-0.1,0-4-0.7-8.8,1.9c-3.5,1.9-5.8,5.3-6.3,6 v7.6C24.7,596.4,27.3,592.5,31.7,589.8 M37.4,583.4l0.7,0.6l0.7-0.4l-0.3,0.8l0.7,0.6l-0.9-0.1l-0.3,0.8l-0.2-0.8l-0.9-0.1l0.7-0.4 L37.4,583.4z M34.2,583.9l0.7,0.6l0.7-0.4l-0.3,0.8l0.7,0.6l-0.9-0.1l-0.3,0.8l-0.2-0.8l-0.9-0.1l0.7-0.4L34.2,583.9z M31.2,586.2 l-0.2-0.8l0.7,0.6l0.7-0.4l-0.3,0.8l0.7,0.6l-0.9-0.1l-0.3,0.8l-0.2-0.8l-0.9-0.1L31.2,586.2z M28.2,587.4l0.7,0.6l0.7-0.4 l-0.3,0.8l0.7,0.6l-0.9-0.1l-0.3,0.8l-0.2-0.8l-0.9-0.1l0.7-0.4L28.2,587.4z M26.3,590.9l-0.3,0.8l-0.2-0.8l-0.9-0.1l0.7-0.4 l-0.2-0.8l0.7,0.6l0.7-0.4l-0.3,0.8l0.7,0.6L26.3,590.9z"/>
    <path class="st35" d="M49.3,577.3c-0.9,1-1.8,1.8-2.9,2.6c-2.5,1.7-5,2.5-6.7,2.9l0.4,2.4l0.3-0.1l-0.2-0.8l0.7,0.6l0.7-0.4 l-0.3,0.8l0.7,0.6l-0.9-0.1l-0.3,0.8l-0.2-0.8l-0.3,0l0.2,1.5h0l0.2,1.4c2-0.2,4.8-0.9,7.1-2.4c0.5-0.4,1.1-0.7,1.6-1.2L49.3,577.3 z M44,584.5l-0.3,0.8l-0.2-0.8l-0.9-0.1l0.7-0.4l-0.2-0.8l0.7,0.6l0.7-0.4l-0.3,0.8l0.7,0.6L44,584.5z M47,583.1l-0.3,0.8l-0.2-0.8 l-0.9-0.1l0.7-0.4l-0.2-0.8l0.7,0.6l0.7-0.4l-0.3,0.8l0.7,0.6L47,583.1z"/>
    <path class="st34" d="M39.6,582.3c1.7-0.4,4.1-1.3,6.3-2.7c1.1-0.7,2.3-1.6,3.3-2.9v-7.2c-0.4,0.7-2.3,3.4-5.8,5.4 c-2.7,1.5-4.4,1.9-4.8,2L39.6,582.3z"/>
    <path class="st33" d="M41.2,592.7l0.3,1.8c0.4-0.1,2.5-0.4,4.4-1.2c2-0.8,3.2-1.5,3.4-1.6v-6.4c-0.4,0.3-0.8,0.6-1.2,0.8 c-2.9,1.9-5.6,2.5-7.5,2.6L41.2,592.7L41.2,592.7C41.2,592.7,41.2,592.7,41.2,592.7"/>
    <g>
      <path class="st28" d="M180.2,584.2v-2.6l-1.1,1.7h0l-1.1-1.7v2.6h-0.9v-4h1l1.1,1.7l1.1-1.7h1v4H180.2z"/>
      <path class="st28" d="M182,580.8V580h0.9v0.8H182z M182,584.2v-3.1h0.9v3.1H182z"/>
      <path class="st28" d="M185.7,584.2v-1.7c0-0.4-0.2-0.6-0.5-0.6c-0.3,0-0.5,0.2-0.5,0.6v1.7h-0.9v-3.1h0.9v0.4 c0.2-0.3,0.5-0.5,0.9-0.5c0.7,0,1.1,0.4,1.1,1.1v2H185.7z"/>
      <path class="st28" d="M187.3,580.8V580h0.9v0.8H187.3z M187.4,584.2v-3.1h0.9v3.1H187.4z"/>
      <path class="st28" d="M190.2,584.3c-0.4,0-0.9-0.1-1.3-0.5l0.4-0.6c0.3,0.2,0.7,0.4,1,0.4c0.3,0,0.4-0.1,0.4-0.2v0 c0-0.2-0.3-0.3-0.6-0.4c-0.4-0.1-0.9-0.3-0.9-0.9v0c0-0.6,0.5-1,1.1-1c0.4,0,0.8,0.1,1.2,0.4l-0.3,0.6c-0.3-0.2-0.6-0.3-0.8-0.3 c-0.2,0-0.3,0.1-0.3,0.2v0c0,0.2,0.3,0.3,0.6,0.4c0.4,0.1,0.9,0.4,0.9,0.9v0C191.3,584,190.8,584.3,190.2,584.3z"/>
      <path class="st28" d="M193,584.3c-0.5,0-0.9-0.2-0.9-0.9v-1.5h-0.4v-0.8h0.4v-0.8h0.9v0.8h0.7v0.8h-0.7v1.3c0,0.2,0.1,0.3,0.3,0.3 c0.2,0,0.3,0,0.4-0.1v0.7C193.5,584.2,193.3,584.3,193,584.3z"/>
      <path class="st28" d="M197.1,583H195c0.1,0.4,0.4,0.6,0.8,0.6c0.3,0,0.5-0.1,0.8-0.3l0.5,0.4c-0.3,0.4-0.7,0.6-1.3,0.6 c-0.9,0-1.6-0.7-1.6-1.6v0c0-0.9,0.6-1.6,1.5-1.6c1,0,1.5,0.8,1.5,1.7v0C197.1,582.8,197.1,582.9,197.1,583z M195.6,581.8 c-0.4,0-0.6,0.3-0.7,0.7h1.3C196.2,582,196,581.8,195.6,581.8z"/>
      <path class="st28" d="M199.6,582c-0.6,0-0.9,0.4-0.9,1.1v1.1h-0.9v-3.1h0.9v0.6c0.2-0.4,0.5-0.7,1-0.7L199.6,582L199.6,582z"/>
      <path class="st28" d="M200.2,580.8V580h0.9v0.8H200.2z M200.2,584.2v-3.1h0.9v3.1H200.2z"/>
      <path class="st28" d="M203.5,584.3c-1,0-1.7-0.7-1.7-1.6v0c0-0.9,0.7-1.6,1.7-1.6c1,0,1.7,0.7,1.7,1.6v0 C205.1,583.6,204.4,584.3,203.5,584.3z M204.3,582.7c0-0.5-0.3-0.9-0.8-0.9c-0.5,0-0.8,0.4-0.8,0.8v0c0,0.5,0.3,0.9,0.8,0.9 C204,583.5,204.3,583.1,204.3,582.7L204.3,582.7z"/>
      <path class="st28" d="M209.7,584.2v-0.4c-0.2,0.3-0.5,0.5-1,0.5c-0.7,0-1.4-0.6-1.4-1.6v0c0-1,0.7-1.6,1.4-1.6 c0.5,0,0.8,0.2,1,0.5V580h0.9v4.2H209.7z M209.8,582.7c0-0.5-0.3-0.9-0.8-0.9s-0.8,0.3-0.8,0.9v0c0,0.5,0.3,0.9,0.8,0.9 S209.8,583.2,209.8,582.7L209.8,582.7z"/>
      <path class="st28" d="M214.3,583h-2.2c0.1,0.4,0.4,0.6,0.8,0.6c0.3,0,0.5-0.1,0.8-0.3l0.5,0.4c-0.3,0.4-0.7,0.6-1.3,0.6 c-0.9,0-1.6-0.7-1.6-1.6v0c0-0.9,0.6-1.6,1.5-1.6c1,0,1.5,0.8,1.5,1.7v0C214.3,582.8,214.3,582.9,214.3,583z M212.8,581.8 c-0.4,0-0.6,0.3-0.7,0.7h1.3C213.4,582,213.2,581.8,212.8,581.8z"/>
      <path class="st28" d="M215,584.2V580h0.9v4.2H215z"/>
      <path class="st28" d="M220.1,583h-0.7v1.2h-0.9v-4h1.7c1,0,1.5,0.6,1.5,1.4v0C221.7,582.5,221,583,220.1,583z M220.8,581.6 c0-0.4-0.3-0.6-0.7-0.6h-0.7v1.2h0.7C220.6,582.2,220.8,581.9,220.8,581.6L220.8,581.6z"/>
      <path class="st28" d="M223.8,584.3c-1,0-1.7-0.7-1.7-1.6v0c0-0.9,0.7-1.6,1.7-1.6c1,0,1.7,0.7,1.7,1.6v0 C225.5,583.6,224.7,584.3,223.8,584.3z M224.6,582.7c0-0.5-0.3-0.9-0.8-0.9c-0.5,0-0.8,0.4-0.8,0.8v0c0,0.5,0.3,0.9,0.8,0.9 C224.3,583.5,224.6,583.1,224.6,582.7L224.6,582.7z"/>
      <path class="st28" d="M228.3,584.2v-0.4c-0.2,0.3-0.5,0.5-1,0.5c-0.7,0-1.4-0.6-1.4-1.6v0c0-1,0.7-1.6,1.4-1.6 c0.5,0,0.8,0.2,1,0.5V580h0.9v4.2H228.3z M228.4,582.7c0-0.5-0.3-0.9-0.8-0.9s-0.8,0.3-0.8,0.9v0c0,0.5,0.3,0.9,0.8,0.9 S228.4,583.2,228.4,582.7L228.4,582.7z"/>
      <path class="st28" d="M232.9,583h-2.2c0.1,0.4,0.4,0.6,0.8,0.6c0.3,0,0.5-0.1,0.8-0.3l0.5,0.4c-0.3,0.4-0.7,0.6-1.3,0.6 c-0.9,0-1.6-0.7-1.6-1.6v0c0-0.9,0.6-1.6,1.5-1.6c1,0,1.5,0.8,1.5,1.7v0C232.9,582.8,232.9,582.9,232.9,583z M231.4,581.8 c-0.4,0-0.6,0.3-0.7,0.7h1.3C232,582,231.8,581.8,231.4,581.8z"/>
      <path class="st28" d="M235.4,582c-0.6,0-0.9,0.4-0.9,1.1v1.1h-0.9v-3.1h0.9v0.6c0.2-0.4,0.5-0.7,1-0.7L235.4,582L235.4,582z"/>
      <path class="st28" d="M239.4,583h-0.7v1.2h-0.9v-4h1.7c1,0,1.5,0.6,1.5,1.4v0C241,582.5,240.3,583,239.4,583z M240.1,581.6 c0-0.4-0.3-0.6-0.7-0.6h-0.7v1.2h0.7C239.8,582.2,240.1,581.9,240.1,581.6L240.1,581.6z"/>
      <path class="st28" d="M243.1,584.3c-1,0-1.7-0.7-1.7-1.6v0c0-0.9,0.7-1.6,1.7-1.6c1,0,1.7,0.7,1.7,1.6v0 C244.7,583.6,244,584.3,243.1,584.3z M243.9,582.7c0-0.5-0.3-0.9-0.8-0.9c-0.5,0-0.8,0.4-0.8,0.8v0c0,0.5,0.3,0.9,0.8,0.9 C243.6,583.5,243.9,583.1,243.9,582.7L243.9,582.7z"/>
      <path class="st28" d="M247.2,584.3c-0.5,0-0.8-0.2-1-0.5v1.3h-0.9v-4h0.9v0.4c0.2-0.3,0.5-0.5,1-0.5c0.7,0,1.4,0.6,1.4,1.6v0 C248.6,583.7,247.9,584.3,247.2,584.3z M247.7,582.7c0-0.5-0.3-0.9-0.8-0.9s-0.8,0.3-0.8,0.9v0c0,0.5,0.3,0.9,0.8,0.9 S247.7,583.2,247.7,582.7L247.7,582.7z"/>
      <path class="st28" d="M251.2,584.2v-0.4c-0.2,0.3-0.5,0.5-0.9,0.5c-0.7,0-1.1-0.4-1.1-1.1v-2h0.9v1.7c0,0.4,0.2,0.6,0.5,0.6 c0.3,0,0.5-0.2,0.5-0.6v-1.7h0.9v3.1H251.2z"/>
      <path class="st28" d="M252.9,584.2V580h0.9v4.2H252.9z"/>
      <path class="st28" d="M256.4,584.2v-0.3c-0.2,0.2-0.5,0.4-0.9,0.4c-0.6,0-1.1-0.3-1.1-0.9v0c0-0.7,0.5-1,1.2-1 c0.3,0,0.5,0.1,0.8,0.1v-0.1c0-0.4-0.2-0.6-0.7-0.6c-0.3,0-0.6,0.1-0.9,0.2l-0.2-0.7c0.3-0.2,0.7-0.2,1.2-0.2c1,0,1.4,0.5,1.4,1.3 v1.8H256.4z M256.5,583c-0.2-0.1-0.3-0.1-0.6-0.1c-0.4,0-0.6,0.2-0.6,0.4v0c0,0.2,0.2,0.4,0.5,0.4c0.4,0,0.7-0.2,0.7-0.5V583z"/>
      <path class="st28" d="M259.9,582c-0.6,0-0.9,0.4-0.9,1.1v1.1H258v-3.1h0.9v0.6c0.2-0.4,0.5-0.7,1-0.7L259.9,582L259.9,582z"/>
      <path class="st28" d="M264,584.3c-0.5,0-0.8-0.2-1-0.5v1.3h-0.9v-4h0.9v0.4c0.2-0.3,0.5-0.5,1-0.5c0.7,0,1.4,0.6,1.4,1.6v0 C265.4,583.7,264.8,584.3,264,584.3z M264.6,582.7c0-0.5-0.3-0.9-0.8-0.9s-0.8,0.3-0.8,0.9v0c0,0.5,0.3,0.9,0.8,0.9 S264.6,583.2,264.6,582.7L264.6,582.7z"/>
      <path class="st28" d="M267.9,584.2v-0.3c-0.2,0.2-0.5,0.4-0.9,0.4c-0.6,0-1.1-0.3-1.1-0.9v0c0-0.7,0.5-1,1.2-1 c0.3,0,0.5,0.1,0.8,0.1v-0.1c0-0.4-0.2-0.6-0.7-0.6c-0.3,0-0.6,0.1-0.9,0.2l-0.2-0.7c0.3-0.2,0.7-0.2,1.2-0.2c1,0,1.4,0.5,1.4,1.3 v1.8H267.9z M267.9,583c-0.2-0.1-0.3-0.1-0.6-0.1c-0.4,0-0.6,0.2-0.6,0.4v0c0,0.2,0.2,0.4,0.5,0.4c0.4,0,0.7-0.2,0.7-0.5V583z"/>
      <path class="st28" d="M271.3,582c-0.6,0-0.9,0.4-0.9,1.1v1.1h-0.9v-3.1h0.9v0.6c0.2-0.4,0.5-0.7,1-0.7L271.3,582L271.3,582z"/>
      <path class="st28" d="M273.6,584.2v-0.3c-0.2,0.2-0.5,0.4-0.9,0.4c-0.6,0-1.1-0.3-1.1-0.9v0c0-0.7,0.5-1,1.2-1 c0.3,0,0.5,0.1,0.8,0.1v-0.1c0-0.4-0.2-0.6-0.7-0.6c-0.3,0-0.6,0.1-0.9,0.2l-0.2-0.7c0.3-0.2,0.7-0.2,1.2-0.2c1,0,1.4,0.5,1.4,1.3 v1.8H273.6z M273.6,583c-0.2-0.1-0.3-0.1-0.6-0.1c-0.4,0-0.6,0.2-0.6,0.4v0c0,0.2,0.2,0.4,0.5,0.4c0.4,0,0.7-0.2,0.7-0.5V583z"/>
      <path class="st28" d="M179.8,590.5h-2.2c0.1,0.4,0.4,0.6,0.8,0.6c0.3,0,0.5-0.1,0.8-0.3l0.5,0.4c-0.3,0.4-0.7,0.6-1.3,0.6 c-0.9,0-1.6-0.7-1.6-1.6v0c0-0.9,0.6-1.6,1.5-1.6c1,0,1.5,0.8,1.5,1.7v0C179.8,590.4,179.8,590.4,179.8,590.5z M178.3,589.3 c-0.4,0-0.6,0.3-0.7,0.7h1.3C178.9,589.5,178.7,589.3,178.3,589.3z"/>
      <path class="st28" d="M180.5,591.7v-4.2h0.9v4.2H180.5z"/>
      <path class="st28" d="M185.6,590.5H185v1.2h-0.9v-4h1.7c1,0,1.5,0.6,1.5,1.4v0C187.3,590,186.5,590.5,185.6,590.5z M186.4,589.1 c0-0.4-0.3-0.6-0.7-0.6H185v1.2h0.7C186.1,589.7,186.4,589.5,186.4,589.1L186.4,589.1z"/>
      <path class="st28" d="M189.7,589.5c-0.6,0-0.9,0.4-0.9,1.1v1.1h-0.9v-3.1h0.9v0.6c0.2-0.4,0.5-0.7,1-0.7L189.7,589.5L189.7,589.5z "/>
      <path class="st28" d="M191.7,591.8c-1,0-1.7-0.7-1.7-1.6v0c0-0.9,0.7-1.6,1.7-1.6c1,0,1.7,0.7,1.7,1.6v0 C193.4,591.1,192.7,591.8,191.7,591.8z M192.5,590.2c0-0.5-0.3-0.9-0.8-0.9c-0.5,0-0.8,0.4-0.8,0.8v0c0,0.5,0.3,0.9,0.8,0.9 C192.2,591,192.5,590.7,192.5,590.2L192.5,590.2z"/>
      <path class="st28" d="M195.5,591.8c-0.9,0-1.6-0.7-1.6-1.6v0c0-0.9,0.7-1.6,1.6-1.6c0.6,0,0.9,0.2,1.2,0.5l-0.5,0.6 c-0.2-0.2-0.4-0.3-0.7-0.3c-0.4,0-0.8,0.4-0.8,0.8v0c0,0.5,0.3,0.9,0.8,0.9c0.3,0,0.5-0.1,0.7-0.3l0.5,0.5 C196.4,591.6,196.1,591.8,195.5,591.8z"/>
      <path class="st28" d="M200.1,590.5h-2.2c0.1,0.4,0.4,0.6,0.8,0.6c0.3,0,0.5-0.1,0.8-0.3l0.5,0.4c-0.3,0.4-0.7,0.6-1.3,0.6 c-0.9,0-1.6-0.7-1.6-1.6v0c0-0.9,0.6-1.6,1.5-1.6c1,0,1.5,0.8,1.5,1.7v0C200.1,590.4,200.1,590.4,200.1,590.5z M198.6,589.3 c-0.4,0-0.6,0.3-0.7,0.7h1.3C199.2,589.5,199,589.3,198.6,589.3z"/>
      <path class="st28" d="M201.9,591.8c-0.4,0-0.9-0.1-1.3-0.5l0.4-0.6c0.3,0.2,0.7,0.4,1,0.4c0.3,0,0.4-0.1,0.4-0.2v0 c0-0.2-0.3-0.3-0.6-0.4c-0.4-0.1-0.9-0.3-0.9-0.9v0c0-0.6,0.5-1,1.1-1c0.4,0,0.8,0.1,1.2,0.4l-0.3,0.6c-0.3-0.2-0.6-0.3-0.8-0.3 c-0.2,0-0.3,0.1-0.3,0.2v0c0,0.2,0.3,0.3,0.6,0.4c0.4,0.1,0.9,0.4,0.9,0.9v0C203,591.5,202.5,591.8,201.9,591.8z"/>
      <path class="st28" d="M205.2,591.8c-1,0-1.7-0.7-1.7-1.6v0c0-0.9,0.7-1.6,1.7-1.6c1,0,1.7,0.7,1.7,1.6v0 C206.9,591.1,206.2,591.8,205.2,591.8z M206,590.2c0-0.5-0.3-0.9-0.8-0.9c-0.5,0-0.8,0.4-0.8,0.8v0c0,0.5,0.3,0.9,0.8,0.9 C205.7,591,206,590.7,206,590.2L206,590.2z"/>
      <path class="st28" d="M210.8,591.8c-0.6,0-1.2-0.2-1.7-0.6l0.5-0.6c0.4,0.3,0.7,0.5,1.2,0.5c0.4,0,0.6-0.1,0.6-0.4v0 c0-0.2-0.1-0.3-0.8-0.5c-0.8-0.2-1.3-0.4-1.3-1.2v0c0-0.7,0.6-1.2,1.4-1.2c0.6,0,1.1,0.2,1.5,0.5l-0.5,0.7 c-0.4-0.2-0.7-0.4-1.1-0.4c-0.3,0-0.5,0.2-0.5,0.4v0c0,0.3,0.2,0.4,0.9,0.5c0.8,0.2,1.3,0.5,1.3,1.2v0 C212.3,591.3,211.6,591.8,210.8,591.8z"/>
      <path class="st28" d="M214.5,591.8c-1,0-1.7-0.7-1.7-1.6v0c0-0.9,0.7-1.6,1.7-1.6c1,0,1.7,0.7,1.7,1.6v0 C216.1,591.1,215.4,591.8,214.5,591.8z M215.3,590.2c0-0.5-0.3-0.9-0.8-0.9c-0.5,0-0.8,0.4-0.8,0.8v0c0,0.5,0.3,0.9,0.8,0.9 C215,591,215.3,590.7,215.3,590.2L215.3,590.2z"/>
      <path class="st28" d="M218.2,591.8c-0.9,0-1.6-0.7-1.6-1.6v0c0-0.9,0.7-1.6,1.6-1.6c0.6,0,0.9,0.2,1.2,0.5l-0.5,0.6 c-0.2-0.2-0.4-0.3-0.7-0.3c-0.4,0-0.8,0.4-0.8,0.8v0c0,0.5,0.3,0.9,0.8,0.9c0.3,0,0.5-0.1,0.7-0.3l0.5,0.5 C219.2,591.6,218.9,591.8,218.2,591.8z"/>
      <path class="st28" d="M220.1,588.3v-0.8h0.9v0.8H220.1z M220.1,591.7v-3.1h0.9v3.1H220.1z"/>
      <path class="st28" d="M223.6,591.7v-0.3c-0.2,0.2-0.5,0.4-0.9,0.4c-0.6,0-1.1-0.3-1.1-0.9v0c0-0.7,0.5-1,1.2-1 c0.3,0,0.5,0.1,0.8,0.1v-0.1c0-0.4-0.2-0.6-0.7-0.6c-0.3,0-0.6,0.1-0.9,0.2l-0.2-0.7c0.3-0.2,0.7-0.2,1.2-0.2c1,0,1.4,0.5,1.4,1.3 v1.8H223.6z M223.7,590.5c-0.2-0.1-0.3-0.1-0.6-0.1c-0.4,0-0.6,0.2-0.6,0.4v0c0,0.2,0.2,0.4,0.5,0.4c0.4,0,0.7-0.2,0.7-0.5V590.5z "/>
      <path class="st28" d="M225.3,591.7v-4.2h0.9v4.2H225.3z"/>
      <path class="st28" d="M231,591.7v-0.4c-0.2,0.3-0.5,0.5-1,0.5c-0.7,0-1.4-0.6-1.4-1.6v0c0-1,0.7-1.6,1.4-1.6c0.5,0,0.8,0.2,1,0.5 v-1.5h0.9v4.2H231z M231,590.2c0-0.5-0.3-0.9-0.8-0.9s-0.8,0.3-0.8,0.9v0c0,0.5,0.3,0.9,0.8,0.9S231,590.7,231,590.2L231,590.2z"/>
      <path class="st28" d="M235.5,590.5h-2.2c0.1,0.4,0.4,0.6,0.8,0.6c0.3,0,0.5-0.1,0.8-0.3l0.5,0.4c-0.3,0.4-0.7,0.6-1.3,0.6 c-0.9,0-1.6-0.7-1.6-1.6v0c0-0.9,0.6-1.6,1.5-1.6c1,0,1.5,0.8,1.5,1.7v0C235.5,590.4,235.5,590.4,235.5,590.5z M234,589.3 c-0.4,0-0.6,0.3-0.7,0.7h1.3C234.6,589.5,234.4,589.3,234,589.3z"/>
      <path class="st28" d="M240,588.2v3.5h-1v-3.5h-1.3v-0.9h3.6v0.9H240z"/>
      <path class="st28" d="M243.6,589.3c-0.6,0-1,0.4-1,1.2v1.2h-1v-3.4h1v0.7c0.2-0.5,0.5-0.8,1.1-0.7L243.6,589.3L243.6,589.3z"/>
      <path class="st28" d="M246.1,591.7v-0.4c-0.2,0.3-0.6,0.4-1,0.4c-0.6,0-1.2-0.4-1.2-1v0c0-0.7,0.6-1.1,1.4-1.1 c0.3,0,0.6,0.1,0.8,0.1v-0.1c0-0.4-0.2-0.6-0.7-0.6c-0.4,0-0.6,0.1-0.9,0.2l-0.2-0.7c0.4-0.2,0.7-0.3,1.3-0.3c1,0,1.5,0.5,1.5,1.4 v1.9H246.1z M246.1,590.4c-0.2-0.1-0.4-0.1-0.6-0.1c-0.4,0-0.7,0.2-0.7,0.5v0c0,0.3,0.2,0.4,0.5,0.4c0.4,0,0.7-0.2,0.7-0.6V590.4z "/>
      <path class="st28" d="M249.8,591.8c-0.5,0-0.8-0.2-1-0.5v0.4h-1v-4.6h1v1.7c0.2-0.3,0.6-0.5,1-0.5c0.8,0,1.5,0.6,1.5,1.7v0 C251.3,591.2,250.6,591.8,249.8,591.8z M250.4,590c0-0.6-0.4-0.9-0.8-0.9s-0.8,0.4-0.8,0.9v0c0,0.6,0.4,0.9,0.8,0.9 S250.4,590.6,250.4,590L250.4,590z"/>
      <path class="st28" d="M254,591.7v-0.4c-0.2,0.3-0.6,0.4-1,0.4c-0.6,0-1.2-0.4-1.2-1v0c0-0.7,0.6-1.1,1.4-1.1 c0.3,0,0.6,0.1,0.8,0.1v-0.1c0-0.4-0.2-0.6-0.7-0.6c-0.4,0-0.6,0.1-0.9,0.2l-0.2-0.7c0.4-0.2,0.7-0.3,1.3-0.3c1,0,1.5,0.5,1.5,1.4 v1.9H254z M254,590.4c-0.2-0.1-0.4-0.1-0.6-0.1c-0.4,0-0.7,0.2-0.7,0.5v0c0,0.3,0.2,0.4,0.5,0.4c0.4,0,0.7-0.2,0.7-0.6V590.4z"/>
      <path class="st28" d="M255.7,592.7c-0.2,0-0.3,0-0.4,0V592c0.1,0,0.1,0,0.2,0c0.2,0,0.3-0.1,0.3-0.4v-3.2h1v3.3 C256.7,592.4,256.4,592.7,255.7,592.7z M255.8,588v-0.8h1v0.8H255.8z"/>
      <path class="st28" d="M259.3,591.8c-1,0-1.8-0.8-1.8-1.7v0c0-1,0.8-1.7,1.8-1.7c1,0,1.8,0.8,1.8,1.7v0 C261.1,591,260.3,591.8,259.3,591.8z M260.2,590.1c0-0.5-0.4-0.9-0.9-0.9c-0.5,0-0.9,0.4-0.9,0.9v0c0,0.5,0.4,0.9,0.9,0.9 C259.8,591,260.2,590.6,260.2,590.1L260.2,590.1z"/>
    </g>
  </g>
</svg>