<?xml version="1.0" encoding="utf-8"?>
<svg viewBox="0 0 200 100" xmlns="http://www.w3.org/2000/svg">
  <g transform="matrix(1, 0, 0, 1, -303.614716, -38.043484)">
    <rect x="331" y="104.3" class="st8" width="0.9" height="6.5" style="fill: rgb(221, 0, 52);"/>
    <path class="st8" d="M336.1,105.8c0.4,0,0.7,0.1,1,0.2s0.5,0.4,0.7,0.7c0.2,0.3,0.3,0.7,0.3,1.2v2.8h-0.9V108 c0-0.5-0.1-0.8-0.3-1.1c-0.2-0.2-0.5-0.4-0.9-0.4c-0.3,0-0.6,0.1-0.8,0.2c-0.2,0.1-0.4,0.3-0.5,0.5s-0.2,0.5-0.2,0.9v2.5h-0.9v-4.7 h0.8v1.3l-0.1-0.4c0.2-0.3,0.4-0.6,0.7-0.8C335.3,105.9,335.7,105.8,336.1,105.8" style="fill: rgb(221, 0, 52);"/>
    <path class="st8" d="M340.9,110.8c-0.4,0-0.8-0.1-1.1-0.2c-0.4-0.1-0.6-0.2-0.8-0.4l0.4-0.7c0.2,0.1,0.5,0.3,0.8,0.4 s0.6,0.1,0.9,0.1c0.4,0,0.7-0.1,0.9-0.2c0.2-0.1,0.3-0.3,0.3-0.5s-0.1-0.3-0.2-0.4s-0.2-0.2-0.4-0.2c-0.2,0-0.4-0.1-0.6-0.1 s-0.4-0.1-0.6-0.1c-0.2-0.1-0.4-0.1-0.6-0.2s-0.3-0.2-0.4-0.4c-0.1-0.2-0.2-0.4-0.2-0.7c0-0.3,0.1-0.6,0.2-0.8 c0.2-0.2,0.4-0.4,0.7-0.5c0.3-0.1,0.6-0.2,1.1-0.2c0.3,0,0.6,0,0.9,0.1s0.6,0.2,0.8,0.3l-0.4,0.7c-0.2-0.1-0.4-0.3-0.7-0.3 c-0.2-0.1-0.5-0.1-0.7-0.1c-0.4,0-0.7,0.1-0.8,0.2c-0.2,0.1-0.3,0.3-0.3,0.5s0.1,0.3,0.2,0.4s0.3,0.2,0.4,0.2 c0.2,0,0.4,0.1,0.6,0.1s0.4,0.1,0.6,0.1c0.2,0.1,0.4,0.1,0.6,0.2s0.3,0.2,0.4,0.4c0.1,0.2,0.2,0.4,0.2,0.7c0,0.3-0.1,0.6-0.3,0.8 c-0.2,0.2-0.4,0.4-0.7,0.5C341.7,110.8,341.4,110.8,340.9,110.8" style="fill: rgb(221, 0, 52);"/>
    <path class="st8" d="M343.3,105.9h3v0.7h-3V105.9z M345.6,110.8c-0.5,0-0.8-0.1-1.1-0.4c-0.3-0.3-0.4-0.6-0.4-1.1v-4.5h0.9v4.5 c0,0.3,0.1,0.5,0.2,0.6s0.3,0.2,0.6,0.2c0.3,0,0.5-0.1,0.7-0.2l0.3,0.6c-0.1,0.1-0.3,0.2-0.5,0.3 C346,110.8,345.8,110.8,345.6,110.8" style="fill: rgb(221, 0, 52);"/>
    <path class="st8" d="M348,104.9c-0.2,0-0.3-0.1-0.4-0.2s-0.2-0.2-0.2-0.4c0-0.2,0.1-0.3,0.2-0.4s0.2-0.2,0.4-0.2 c0.2,0,0.3,0.1,0.4,0.2s0.2,0.2,0.2,0.4c0,0.2-0.1,0.3-0.2,0.4C348.3,104.9,348.2,104.9,348,104.9 M347.6,105.9h0.9v4.9h-0.9V105.9 z" style="fill: rgb(221, 0, 52);"/>
    <path class="st8" d="M349.3,105.9h3v0.7h-3V105.9z M351.6,110.8c-0.5,0-0.8-0.1-1.1-0.4c-0.3-0.3-0.4-0.6-0.4-1.1v-4.5h0.9v4.5 c0,0.3,0.1,0.5,0.2,0.6s0.3,0.2,0.6,0.2c0.3,0,0.5-0.1,0.7-0.2l0.3,0.6c-0.1,0.1-0.3,0.2-0.5,0.3 C352,110.8,351.8,110.8,351.6,110.8" style="fill: rgb(221, 0, 52);"/>
    <path class="st8" d="M355.6,110.8c-0.4,0-0.8-0.1-1.1-0.2s-0.5-0.4-0.7-0.7c-0.2-0.3-0.3-0.7-0.3-1.2v-2.8h0.9v2.7 c0,0.5,0.1,0.8,0.3,1.1c0.2,0.2,0.5,0.4,0.9,0.4c0.3,0,0.6-0.1,0.8-0.2c0.2-0.1,0.4-0.3,0.5-0.6c0.1-0.2,0.2-0.5,0.2-0.9v-2.5h0.9 v4.9h-0.8v-1.3l0.1,0.4c-0.2,0.3-0.4,0.6-0.7,0.8C356.4,110.7,356,110.8,355.6,110.8" style="fill: rgb(221, 0, 52);"/>
    <path class="st8" d="M358.9,105.9h3v0.7h-3V105.9z M361.2,110.8c-0.5,0-0.8-0.1-1.1-0.4c-0.3-0.3-0.4-0.6-0.4-1.1v-4.5h0.9v4.5 c0,0.3,0.1,0.5,0.2,0.6s0.3,0.2,0.6,0.2c0.3,0,0.5-0.1,0.7-0.2l0.3,0.6c-0.1,0.1-0.3,0.2-0.5,0.3 C361.6,110.8,361.4,110.8,361.2,110.8" style="fill: rgb(221, 0, 52);"/>
    <path class="st8" d="M365.1,110.8c-0.5,0-0.9-0.1-1.3-0.3c-0.4-0.2-0.7-0.5-0.9-0.9c-0.2-0.4-0.3-0.8-0.3-1.3s0.1-0.9,0.3-1.3 c0.2-0.4,0.5-0.7,0.9-0.9c0.4-0.2,0.8-0.3,1.3-0.3s0.9,0.1,1.3,0.3c0.4,0.2,0.7,0.5,0.9,0.9c0.2,0.4,0.3,0.8,0.3,1.3 s-0.1,0.9-0.3,1.3c-0.2,0.4-0.5,0.7-0.9,0.9S365.6,110.8,365.1,110.8 M365.1,110.1c0.3,0,0.6-0.1,0.8-0.2c0.2-0.1,0.4-0.3,0.6-0.6 c0.1-0.3,0.2-0.6,0.2-0.9c0-0.4-0.1-0.7-0.2-0.9c-0.1-0.3-0.3-0.5-0.6-0.6c-0.2-0.1-0.5-0.2-0.8-0.2s-0.6,0.1-0.8,0.2 c-0.2,0.1-0.4,0.3-0.6,0.6c-0.1,0.3-0.2,0.6-0.2,0.9s0.1,0.7,0.2,0.9c0.1,0.3,0.3,0.5,0.6,0.6C364.5,110,364.8,110.1,365.1,110.1" style="fill: rgb(221, 0, 52);"/>
    <polygon class="st8" points="371.1,110.8 371.1,104.3 371.8,104.3 376,109.6 375.6,109.6 375.6,104.3 376.5,104.3 376.5,110.8 &#10;&#9;&#9;375.7,110.8 371.6,105.5 372,105.5 372,110.8 &#9;" style="fill: rgb(221, 0, 52);"/>
    <path class="st8" d="M379.5,110.8c-0.4,0-0.7-0.1-0.9-0.2c-0.3-0.1-0.5-0.3-0.6-0.5s-0.2-0.5-0.2-0.7c0-0.3,0.1-0.5,0.2-0.7 s0.3-0.4,0.6-0.5c0.3-0.1,0.7-0.2,1.1-0.2h1.5v0.6h-1.5c-0.4,0-0.7,0.1-0.9,0.2c-0.1,0.1-0.2,0.3-0.2,0.5s0.1,0.4,0.3,0.6 c0.2,0.1,0.4,0.2,0.8,0.2c0.3,0,0.6-0.1,0.8-0.2c0.2-0.1,0.4-0.4,0.5-0.6l0.2,0.6c-0.1,0.3-0.3,0.5-0.6,0.7 C380.3,110.8,380,110.8,379.5,110.8 M381.1,110.8v-1v-0.2v-1.8c0-0.4-0.1-0.7-0.3-0.9c-0.2-0.2-0.5-0.3-1-0.3c-0.3,0-0.6,0-0.8,0.1 c-0.3,0.1-0.5,0.2-0.7,0.4l-0.4-0.7c0.2-0.2,0.5-0.4,0.9-0.5c0.3-0.1,0.7-0.2,1.1-0.2c0.7,0,1.2,0.2,1.5,0.5 c0.4,0.3,0.5,0.8,0.5,1.5v3L381.1,110.8L381.1,110.8z" style="fill: rgb(221, 0, 52);"/>
    <path class="st8" d="M385.5,110.8c-0.5,0-0.9-0.1-1.3-0.3c-0.4-0.2-0.7-0.5-0.9-0.9c-0.2-0.4-0.3-0.8-0.3-1.3s0.1-0.9,0.3-1.3 c0.2-0.4,0.5-0.7,0.9-0.9c0.4-0.2,0.8-0.3,1.3-0.3c0.4,0,0.8,0.1,1.2,0.3c0.3,0.2,0.6,0.4,0.8,0.8l-0.7,0.4 c-0.2-0.2-0.3-0.4-0.6-0.5c-0.2-0.1-0.5-0.2-0.7-0.2c-0.3,0-0.6,0.1-0.8,0.2c-0.2,0.1-0.4,0.3-0.6,0.6c-0.1,0.3-0.2,0.6-0.2,0.9 c0,0.4,0.1,0.7,0.2,0.9c0.1,0.3,0.3,0.5,0.6,0.6c0.2,0.1,0.5,0.2,0.8,0.2s0.5-0.1,0.7-0.2s0.4-0.3,0.6-0.5l0.7,0.4 c-0.2,0.3-0.4,0.6-0.8,0.8C386.3,110.7,385.9,110.8,385.5,110.8" style="fill: rgb(221, 0, 52);"/>
    <path class="st8" d="M388.8,104.9c-0.2,0-0.3-0.1-0.4-0.2s-0.2-0.2-0.2-0.4c0-0.2,0.1-0.3,0.2-0.4s0.2-0.2,0.4-0.2 c0.2,0,0.3,0.1,0.4,0.2s0.2,0.2,0.2,0.4c0,0.2-0.1,0.3-0.2,0.4C389.1,104.9,389,104.9,388.8,104.9 M388.4,105.9h0.9v4.9h-0.9V105.9 z" style="fill: rgb(221, 0, 52);"/>
    <path class="st8" d="M392.8,110.8c-0.5,0-0.9-0.1-1.3-0.3c-0.4-0.2-0.7-0.5-0.9-0.9c-0.2-0.4-0.3-0.8-0.3-1.3s0.1-0.9,0.3-1.3 c0.2-0.4,0.5-0.7,0.9-0.9c0.4-0.2,0.8-0.3,1.3-0.3s0.9,0.1,1.3,0.3c0.4,0.2,0.7,0.5,0.9,0.9c0.2,0.4,0.3,0.8,0.3,1.3 s-0.1,0.9-0.3,1.3c-0.2,0.4-0.5,0.7-0.9,0.9C393.7,110.7,393.3,110.8,392.8,110.8 M392.8,110.1c0.3,0,0.6-0.1,0.8-0.2 c0.2-0.1,0.4-0.3,0.6-0.6c0.1-0.3,0.2-0.6,0.2-0.9c0-0.4-0.1-0.7-0.2-0.9c-0.1-0.3-0.3-0.5-0.6-0.6c-0.2-0.1-0.5-0.2-0.8-0.2 s-0.6,0.1-0.8,0.2c-0.2,0.1-0.4,0.3-0.6,0.6c-0.1,0.3-0.2,0.6-0.2,0.9s0.1,0.7,0.2,0.9c0.1,0.3,0.3,0.5,0.6,0.6 C392.2,110,392.5,110.1,392.8,110.1" style="fill: rgb(221, 0, 52);"/>
    <path class="st8" d="M398.9,105.8c0.4,0,0.7,0.1,1,0.2c0.3,0.2,0.5,0.4,0.7,0.7c0.2,0.3,0.3,0.7,0.3,1.2v2.8H400V108 c0-0.5-0.1-0.8-0.3-1.1c-0.2-0.2-0.5-0.4-0.9-0.4c-0.3,0-0.6,0.1-0.8,0.2c-0.2,0.1-0.4,0.3-0.5,0.5s-0.2,0.5-0.2,0.9v2.5h-0.9v-4.7 h0.8v1.3l-0.1-0.4c0.2-0.3,0.4-0.6,0.7-0.8C398.1,105.9,398.5,105.8,398.9,105.8" style="fill: rgb(221, 0, 52);"/>
    <path class="st8" d="M403.8,110.8c-0.4,0-0.7-0.1-0.9-0.2c-0.3-0.1-0.5-0.3-0.6-0.5s-0.2-0.5-0.2-0.7c0-0.3,0.1-0.5,0.2-0.7 s0.3-0.4,0.6-0.5c0.3-0.1,0.7-0.2,1.1-0.2h1.5v0.6H404c-0.4,0-0.7,0.1-0.9,0.2c-0.1,0.1-0.2,0.3-0.2,0.5s0.1,0.4,0.3,0.6 c0.2,0.1,0.4,0.2,0.8,0.2c0.3,0,0.6-0.1,0.8-0.2c0.2-0.1,0.4-0.4,0.5-0.6l0.2,0.6c-0.1,0.3-0.3,0.5-0.6,0.7 C404.6,110.8,404.2,110.8,403.8,110.8 M405.3,110.8v-1v-0.2v-1.8c0-0.4-0.1-0.7-0.3-0.9c-0.2-0.2-0.5-0.3-1-0.3 c-0.3,0-0.6,0-0.8,0.1c-0.3,0.1-0.5,0.2-0.7,0.4l-0.4-0.7c0.2-0.2,0.5-0.4,0.9-0.5c0.3-0.1,0.7-0.2,1.1-0.2c0.7,0,1.2,0.2,1.5,0.5 c0.4,0.3,0.5,0.8,0.5,1.5v3L405.3,110.8L405.3,110.8z" style="fill: rgb(221, 0, 52);"/>
    <rect x="407.7" y="103.9" class="st8" width="0.9" height="6.9" style="fill: rgb(221, 0, 52);"/>
    <path class="st8" d="M414.3,110.8c-0.5,0-0.9-0.1-1.2-0.3c-0.4-0.2-0.6-0.5-0.9-0.9c-0.2-0.4-0.3-0.8-0.3-1.3s0.1-0.9,0.3-1.3 c0.2-0.4,0.5-0.7,0.9-0.9c0.4-0.2,0.8-0.3,1.2-0.3c0.4,0,0.8,0.1,1.1,0.3c0.3,0.2,0.6,0.5,0.8,0.8c0.2,0.4,0.3,0.8,0.3,1.4 s-0.1,1-0.3,1.4c-0.2,0.4-0.4,0.7-0.8,0.8C415.1,110.7,414.8,110.8,414.3,110.8 M414.4,110.1c0.3,0,0.6-0.1,0.8-0.2 c0.2-0.1,0.4-0.3,0.6-0.6s0.2-0.6,0.2-0.9c0-0.4-0.1-0.7-0.2-0.9s-0.3-0.5-0.6-0.6c-0.2-0.1-0.5-0.2-0.8-0.2s-0.6,0.1-0.8,0.2 c-0.2,0.1-0.4,0.3-0.6,0.6c-0.1,0.3-0.2,0.6-0.2,0.9s0.1,0.7,0.2,0.9c0.1,0.3,0.3,0.5,0.6,0.6C413.8,110,414.1,110.1,414.4,110.1 M416,110.8v-1.3l0.1-1.1l-0.1-1.1v-3.4h0.9v6.9H416z" style="fill: rgb(221, 0, 52);"/>
    <path class="st8" d="M420.5,110.8c-0.5,0-1-0.1-1.3-0.3c-0.4-0.2-0.7-0.5-0.9-0.9c-0.2-0.4-0.3-0.8-0.3-1.3s0.1-0.9,0.3-1.3 c0.2-0.4,0.5-0.7,0.9-0.9c0.4-0.2,0.8-0.3,1.2-0.3c0.5,0,0.9,0.1,1.2,0.3c0.4,0.2,0.6,0.5,0.8,0.9c0.2,0.4,0.3,0.8,0.3,1.3v0.1v0.1 h-4v-0.6h3.6l-0.3,0.2c0-0.3-0.1-0.6-0.2-0.8c-0.1-0.2-0.3-0.4-0.5-0.6c-0.2-0.1-0.5-0.2-0.8-0.2s-0.6,0.1-0.8,0.2 c-0.2,0.1-0.4,0.3-0.5,0.6c-0.1,0.3-0.2,0.5-0.2,0.9v0.1c0,0.3,0.1,0.6,0.2,0.9s0.4,0.5,0.6,0.6c0.3,0.1,0.6,0.2,0.9,0.2 s0.5,0,0.8-0.1c0.2-0.1,0.4-0.2,0.6-0.4l0.5,0.6c-0.2,0.3-0.5,0.5-0.8,0.6C421.3,110.8,420.9,110.8,420.5,110.8" style="fill: rgb(221, 0, 52);"/>
    <path class="st8" d="M429,110.9c-0.5,0-0.9-0.1-1.3-0.2c-0.4-0.2-0.8-0.4-1-0.7c-0.3-0.3-0.5-0.7-0.7-1.1s-0.3-0.8-0.3-1.3 s0.1-0.9,0.3-1.3c0.2-0.4,0.4-0.8,0.7-1.1c0.3-0.3,0.6-0.5,1.1-0.7c0.4-0.2,0.8-0.2,1.3-0.2s0.9,0.1,1.3,0.3c0.4,0.2,0.8,0.4,1,0.8 l-0.6,0.6c-0.2-0.3-0.5-0.5-0.8-0.6s-0.6-0.2-1-0.2s-0.7,0.1-1,0.2s-0.6,0.3-0.8,0.5c-0.2,0.2-0.4,0.5-0.5,0.8s-0.2,0.6-0.2,1 s0.1,0.7,0.2,1s0.3,0.6,0.5,0.8c0.2,0.2,0.5,0.4,0.8,0.5s0.6,0.2,1,0.2c0.3,0,0.7-0.1,1-0.2s0.6-0.3,0.8-0.6l0.6,0.6 c-0.3,0.3-0.6,0.6-1,0.8C430,110.8,429.5,110.9,429,110.9" style="fill: rgb(221, 0, 52);"/>
    <path class="st8" d="M433.8,110.8c-0.4,0-0.7-0.1-0.9-0.2c-0.3-0.1-0.5-0.3-0.6-0.5s-0.2-0.5-0.2-0.7c0-0.3,0.1-0.5,0.2-0.7 s0.3-0.4,0.6-0.5c0.3-0.1,0.7-0.2,1.1-0.2h1.5v0.6H434c-0.4,0-0.7,0.1-0.9,0.2c-0.1,0.1-0.2,0.3-0.2,0.5s0.1,0.4,0.3,0.6 c0.2,0.1,0.4,0.2,0.8,0.2c0.3,0,0.6-0.1,0.8-0.2c0.2-0.1,0.4-0.4,0.5-0.6l0.2,0.6c-0.1,0.3-0.3,0.5-0.6,0.7 C434.6,110.8,434.3,110.8,433.8,110.8 M435.4,110.8v-1v-0.2v-1.8c0-0.4-0.1-0.7-0.3-0.9c-0.2-0.2-0.5-0.3-1-0.3 c-0.3,0-0.6,0-0.8,0.1c-0.3,0.1-0.5,0.2-0.7,0.4l-0.4-0.7c0.2-0.2,0.5-0.4,0.9-0.5c0.3-0.1,0.7-0.2,1.1-0.2c0.7,0,1.2,0.2,1.5,0.5 c0.4,0.3,0.5,0.8,0.5,1.5v3L435.4,110.8L435.4,110.8z" style="fill: rgb(221, 0, 52);"/>
    <path class="st8" d="M437.7,112.6v-6.7h0.8v1.3l-0.1,1.1l0.1,1.1v3.1L437.7,112.6L437.7,112.6z M440.2,110.8 c-0.4,0-0.8-0.1-1.1-0.3c-0.3-0.2-0.6-0.5-0.8-0.8c-0.2-0.4-0.3-0.8-0.3-1.4s0.1-1,0.3-1.4c0.2-0.4,0.4-0.6,0.8-0.8 c0.3-0.2,0.7-0.3,1.1-0.3c0.5,0,0.9,0.1,1.2,0.3c0.4,0.2,0.6,0.5,0.9,0.9c0.2,0.4,0.3,0.8,0.3,1.3s-0.1,0.9-0.3,1.3 c-0.2,0.4-0.5,0.7-0.9,0.9C441.1,110.7,440.7,110.8,440.2,110.8 M440.1,110.1c0.3,0,0.6-0.1,0.8-0.2c0.2-0.1,0.4-0.3,0.6-0.6 c0.1-0.3,0.2-0.6,0.2-0.9c0-0.4-0.1-0.7-0.2-0.9c-0.1-0.3-0.3-0.5-0.6-0.6c-0.2-0.1-0.5-0.2-0.8-0.2s-0.6,0.1-0.8,0.2 c-0.2,0.1-0.4,0.3-0.6,0.6c-0.1,0.3-0.2,0.6-0.2,0.9s0.1,0.7,0.2,0.9c0.1,0.3,0.3,0.5,0.6,0.6C439.6,110,439.8,110.1,440.1,110.1" style="fill: rgb(221, 0, 52);"/>
    <path class="st8" d="M445.1,110.8c-0.4,0-0.7-0.1-0.9-0.2c-0.3-0.1-0.5-0.3-0.6-0.5s-0.2-0.5-0.2-0.7c0-0.3,0.1-0.5,0.2-0.7 s0.3-0.4,0.6-0.5c0.3-0.1,0.7-0.2,1.1-0.2h1.5v0.6h-1.5c-0.4,0-0.7,0.1-0.9,0.2c-0.1,0.1-0.2,0.3-0.2,0.5s0.1,0.4,0.3,0.6 c0.2,0.1,0.4,0.2,0.8,0.2c0.3,0,0.6-0.1,0.8-0.2c0.2-0.1,0.4-0.4,0.5-0.6l0.2,0.6c-0.1,0.3-0.3,0.5-0.6,0.7 C445.9,110.8,445.5,110.8,445.1,110.8 M446.6,110.8v-1v-0.2v-1.8c0-0.4-0.1-0.7-0.3-0.9c-0.2-0.2-0.5-0.3-1-0.3 c-0.3,0-0.6,0-0.8,0.1c-0.3,0.1-0.5,0.2-0.7,0.4l-0.4-0.7c0.2-0.2,0.5-0.4,0.9-0.5c0.3-0.1,0.7-0.2,1.1-0.2c0.7,0,1.2,0.2,1.5,0.5 c0.4,0.3,0.5,0.8,0.5,1.5v3L446.6,110.8L446.6,110.8z" style="fill: rgb(221, 0, 52);"/>
    <path class="st8" d="M451,110.8c-0.5,0-0.9-0.1-1.3-0.3c-0.4-0.2-0.7-0.5-0.9-0.9c-0.2-0.4-0.3-0.8-0.3-1.3s0.1-0.9,0.3-1.3 s0.5-0.7,0.9-0.9s0.8-0.3,1.3-0.3c0.4,0,0.8,0.1,1.2,0.3c0.3,0.2,0.6,0.4,0.8,0.8l-0.7,0.4c-0.2-0.2-0.3-0.4-0.6-0.5 c-0.2-0.1-0.5-0.2-0.7-0.2c-0.3,0-0.6,0.1-0.8,0.2c-0.2,0.1-0.4,0.3-0.6,0.6c-0.1,0.3-0.2,0.6-0.2,0.9c0,0.4,0.1,0.7,0.2,0.9 c0.1,0.3,0.3,0.5,0.6,0.6c0.2,0.1,0.5,0.2,0.8,0.2s0.5-0.1,0.7-0.2s0.4-0.3,0.6-0.5l0.7,0.4c-0.2,0.3-0.4,0.6-0.8,0.8 C451.8,110.7,451.4,110.8,451,110.8" style="fill: rgb(221, 0, 52);"/>
    <path class="st8" d="M454.3,104.9c-0.2,0-0.3-0.1-0.4-0.2s-0.2-0.2-0.2-0.4c0-0.2,0.1-0.3,0.2-0.4s0.2-0.2,0.4-0.2 c0.2,0,0.3,0.1,0.4,0.2s0.2,0.2,0.2,0.4c0,0.2-0.1,0.3-0.2,0.4C454.6,104.9,454.5,104.9,454.3,104.9 M453.9,105.9h0.9v4.9h-0.9 V105.9z" style="fill: rgb(221, 0, 52);"/>
    <path class="st8" d="M455.6,105.9h3v0.7h-3V105.9z M457.9,110.8c-0.5,0-0.8-0.1-1.1-0.4c-0.3-0.3-0.4-0.6-0.4-1.1v-4.5h0.9v4.5 c0,0.3,0.1,0.5,0.2,0.6s0.3,0.2,0.6,0.2c0.3,0,0.5-0.1,0.7-0.2l0.3,0.6c-0.1,0.1-0.3,0.2-0.5,0.3 C458.3,110.8,458.1,110.8,457.9,110.8" style="fill: rgb(221, 0, 52);"/>
    <path class="st8" d="M461.3,110.8c-0.4,0-0.7-0.1-0.9-0.2c-0.3-0.1-0.5-0.3-0.6-0.5s-0.2-0.5-0.2-0.7c0-0.3,0.1-0.5,0.2-0.7 s0.3-0.4,0.6-0.5c0.3-0.1,0.7-0.2,1.1-0.2h1.5v0.6h-1.5c-0.4,0-0.7,0.1-0.9,0.2c-0.1,0.1-0.2,0.3-0.2,0.5s0.1,0.4,0.3,0.6 c0.2,0.1,0.4,0.2,0.8,0.2c0.3,0,0.6-0.1,0.8-0.2c0.2-0.1,0.4-0.4,0.5-0.6l0.2,0.6c-0.1,0.3-0.3,0.5-0.6,0.7 C462.1,110.8,461.7,110.8,461.3,110.8 M462.9,110.8v-1v-0.2v-1.8c0-0.4-0.1-0.7-0.3-0.9c-0.2-0.2-0.5-0.3-1-0.3 c-0.3,0-0.6,0-0.8,0.1c-0.3,0.1-0.5,0.2-0.7,0.4l-0.4-0.7c0.2-0.2,0.5-0.4,0.9-0.5c0.3-0.1,0.7-0.2,1.1-0.2c0.7,0,1.2,0.2,1.5,0.5 c0.4,0.3,0.5,0.8,0.5,1.5v3L462.9,110.8L462.9,110.8z" style="fill: rgb(221, 0, 52);"/>
    <path class="st8" d="M467.3,110.8c-0.5,0-0.9-0.1-1.3-0.3c-0.4-0.2-0.7-0.5-0.9-0.9c-0.2-0.4-0.3-0.8-0.3-1.3s0.1-0.9,0.3-1.3 c0.2-0.4,0.5-0.7,0.9-0.9c0.4-0.2,0.8-0.3,1.3-0.3c0.4,0,0.8,0.1,1.2,0.3c0.3,0.2,0.6,0.4,0.8,0.8l-0.7,0.4 c-0.2-0.2-0.3-0.4-0.6-0.5c-0.2-0.1-0.5-0.2-0.7-0.2c-0.3,0-0.6,0.1-0.8,0.2c-0.2,0.1-0.4,0.3-0.6,0.6c-0.1,0.3-0.2,0.6-0.2,0.9 c0,0.4,0.1,0.7,0.2,0.9c0.1,0.3,0.3,0.5,0.6,0.6c0.2,0.1,0.5,0.2,0.8,0.2s0.5-0.1,0.7-0.2s0.4-0.3,0.6-0.5l0.7,0.4 c-0.2,0.3-0.4,0.6-0.8,0.8S467.7,110.8,467.3,110.8" style="fill: rgb(221, 0, 52);"/>
    <path class="st8" d="M470.6,104.9c-0.2,0-0.3-0.1-0.4-0.2s-0.2-0.2-0.2-0.4c0-0.2,0.1-0.3,0.2-0.4s0.2-0.2,0.4-0.2 c0.2,0,0.3,0.1,0.4,0.2s0.2,0.2,0.2,0.4c0,0.2-0.1,0.3-0.2,0.4C470.9,104.9,470.8,104.9,470.6,104.9 M470.2,105.9h0.9v4.9h-0.9 V105.9z" style="fill: rgb(221, 0, 52);"/>
    <path class="st8" d="M474.6,110.8c-0.5,0-0.9-0.1-1.3-0.3c-0.4-0.2-0.7-0.5-0.9-0.9c-0.2-0.4-0.3-0.8-0.3-1.3s0.1-0.9,0.3-1.3 c0.2-0.4,0.5-0.7,0.9-0.9c0.4-0.2,0.8-0.3,1.3-0.3s0.9,0.1,1.3,0.3s0.7,0.5,0.9,0.9c0.2,0.4,0.3,0.8,0.3,1.3s-0.1,0.9-0.3,1.3 c-0.2,0.4-0.5,0.7-0.9,0.9S475.1,110.8,474.6,110.8 M474.6,110.1c0.3,0,0.6-0.1,0.8-0.2c0.2-0.1,0.4-0.3,0.6-0.6 c0.1-0.3,0.2-0.6,0.2-0.9c0-0.4-0.1-0.7-0.2-0.9c-0.1-0.3-0.3-0.5-0.6-0.6c-0.2-0.1-0.5-0.2-0.8-0.2s-0.6,0.1-0.8,0.2 c-0.2,0.1-0.4,0.3-0.6,0.6c-0.1,0.3-0.2,0.6-0.2,0.9s0.1,0.7,0.2,0.9c0.1,0.3,0.3,0.5,0.6,0.6C474,110,474.3,110.1,474.6,110.1 M473.9,105.2l1.2-1.2h1.1l-1.5,1.2H473.9z" style="fill: rgb(221, 0, 52);"/>
    <path class="st8" d="M480.7,105.8c0.4,0,0.7,0.1,1,0.2c0.3,0.2,0.5,0.4,0.7,0.7c0.2,0.3,0.3,0.7,0.3,1.2v2.8h-0.9V108 c0-0.5-0.1-0.8-0.3-1.1c-0.2-0.2-0.5-0.4-0.9-0.4c-0.3,0-0.6,0.1-0.8,0.2c-0.2,0.1-0.4,0.3-0.5,0.5s-0.2,0.5-0.2,0.9v2.5h-0.9v-4.7 h0.8v1.3l-0.1-0.4c0.2-0.3,0.4-0.6,0.7-0.8C479.9,105.9,480.3,105.8,480.7,105.8" style="fill: rgb(221, 0, 52);"/>
    <path class="st8" d="M358.5,122.6c-0.2,0-0.4,0-0.7-0.1c-0.2-0.1-0.4-0.2-0.6-0.3l0.4-0.7c0.1,0.1,0.3,0.2,0.4,0.3 c0.1,0.1,0.3,0.1,0.5,0.1s0.4-0.1,0.5-0.2s0.3-0.3,0.4-0.6l0.3-0.7l0.1-0.1l1.9-4.5h0.8l-2.3,5.4c-0.1,0.3-0.3,0.6-0.5,0.8 c-0.2,0.2-0.4,0.3-0.6,0.4C359,122.5,358.7,122.6,358.5,122.6 M359.6,120.9l-2.2-5.1h0.9l1.8,4.4L359.6,120.9z" style="fill: rgb(221, 0, 52);"/>
    <path class="st8" d="M366.6,119.9h3.7v0.8h-4.5v-6.5h4.4v0.8h-3.5v4.9H366.6z M366.5,117h3.2v0.8h-3.2V117z" style="fill: rgb(221, 0, 52);"/>
    <path class="st8" d="M373.3,120.8c-0.5,0-0.9-0.1-1.2-0.3c-0.4-0.2-0.6-0.5-0.9-0.9c-0.2-0.4-0.3-0.8-0.3-1.3s0.1-0.9,0.3-1.3 c0.2-0.4,0.5-0.7,0.9-0.9c0.4-0.2,0.8-0.3,1.2-0.3c0.4,0,0.8,0.1,1.1,0.3c0.3,0.2,0.6,0.5,0.8,0.8c0.2,0.4,0.3,0.8,0.3,1.4 s-0.1,1-0.3,1.4c-0.2,0.4-0.4,0.7-0.8,0.8C374.1,120.7,373.8,120.8,373.3,120.8 M373.4,120c0.3,0,0.6-0.1,0.8-0.2 c0.2-0.1,0.4-0.3,0.6-0.6c0.1-0.3,0.2-0.6,0.2-0.9c0-0.4-0.1-0.7-0.2-0.9c-0.1-0.3-0.3-0.5-0.6-0.6c-0.2-0.1-0.5-0.2-0.8-0.2 s-0.6,0.1-0.8,0.2c-0.2,0.1-0.4,0.3-0.6,0.6c-0.1,0.3-0.2,0.6-0.2,0.9s0.1,0.7,0.2,0.9c0.1,0.3,0.3,0.5,0.6,0.6 C372.8,119.9,373.1,120,373.4,120 M375,120.7v-1.3l0.1-1.1l-0.1-1.1v-3.3h0.9v6.9L375,120.7L375,120.7z" style="fill: rgb(221, 0, 52);"/>
    <path class="st8" d="M379.4,120.8c-0.4,0-0.8-0.1-1.1-0.2c-0.3-0.2-0.5-0.4-0.7-0.7c-0.2-0.3-0.3-0.7-0.3-1.2v-2.8h0.9v2.7 c0,0.5,0.1,0.8,0.3,1.1c0.2,0.2,0.5,0.4,0.9,0.4c0.3,0,0.6-0.1,0.8-0.2c0.2-0.1,0.4-0.3,0.5-0.6c0.1-0.2,0.2-0.5,0.2-0.9v-2.5h0.9 v4.9H381v-1.3l0.1,0.4c-0.2,0.3-0.4,0.6-0.7,0.8C380.1,120.7,379.8,120.8,379.4,120.8" style="fill: rgb(221, 0, 52);"/>
    <path class="st8" d="M385.4,120.8c-0.5,0-0.9-0.1-1.3-0.3c-0.4-0.2-0.7-0.5-0.9-0.9c-0.2-0.4-0.3-0.8-0.3-1.3s0.1-0.9,0.3-1.3 c0.2-0.4,0.5-0.7,0.9-0.9c0.4-0.2,0.8-0.3,1.3-0.3c0.4,0,0.8,0.1,1.2,0.3c0.3,0.2,0.6,0.4,0.8,0.8l-0.7,0.4 c-0.2-0.2-0.3-0.4-0.6-0.5c-0.2-0.1-0.5-0.2-0.7-0.2c-0.3,0-0.6,0.1-0.8,0.2c-0.2,0.1-0.4,0.3-0.6,0.6c-0.1,0.3-0.2,0.6-0.2,0.9 c0,0.4,0.1,0.7,0.2,0.9c0.1,0.3,0.3,0.5,0.6,0.6c0.2,0.1,0.5,0.2,0.8,0.2s0.5-0.1,0.7-0.2s0.4-0.3,0.6-0.5l0.7,0.4 c-0.2,0.3-0.4,0.6-0.8,0.8C386.3,120.7,385.9,120.8,385.4,120.8" style="fill: rgb(221, 0, 52);"/>
    <path class="st8" d="M389.8,120.8c-0.4,0-0.7-0.1-0.9-0.2c-0.3-0.1-0.5-0.3-0.6-0.5s-0.2-0.5-0.2-0.7c0-0.3,0.1-0.5,0.2-0.7 s0.3-0.4,0.6-0.5c0.3-0.1,0.7-0.2,1.1-0.2h1.5v0.6H390c-0.4,0-0.7,0.1-0.9,0.2c-0.1,0.1-0.2,0.3-0.2,0.5s0.1,0.4,0.3,0.6 c0.2,0.1,0.4,0.2,0.8,0.2c0.3,0,0.6-0.1,0.8-0.2c0.2-0.1,0.4-0.4,0.5-0.6l0.2,0.6c-0.1,0.3-0.3,0.5-0.6,0.7 C390.6,120.7,390.2,120.8,389.8,120.8 M391.3,120.7v-1v-0.2v-1.8c0-0.4-0.1-0.7-0.3-0.9c-0.2-0.2-0.5-0.3-1-0.3 c-0.3,0-0.6,0-0.8,0.1c-0.3,0.1-0.5,0.2-0.7,0.4l-0.4-0.7c0.2-0.2,0.5-0.4,0.9-0.5c0.3-0.1,0.7-0.2,1.1-0.2c0.7,0,1.2,0.2,1.5,0.5 c0.4,0.3,0.5,0.8,0.5,1.5v3L391.3,120.7L391.3,120.7z" style="fill: rgb(221, 0, 52);"/>
    <path class="st8" d="M395.7,120.8c-0.5,0-0.9-0.1-1.3-0.3c-0.4-0.2-0.7-0.5-0.9-0.9c-0.2-0.4-0.3-0.8-0.3-1.3s0.1-0.9,0.3-1.3 c0.2-0.4,0.5-0.7,0.9-0.9c0.4-0.2,0.8-0.3,1.3-0.3c0.4,0,0.8,0.1,1.2,0.3c0.3,0.2,0.6,0.4,0.8,0.8l-0.7,0.4 c-0.2-0.2-0.3-0.4-0.6-0.5c-0.2-0.1-0.5-0.2-0.7-0.2c-0.3,0-0.6,0.1-0.8,0.2c-0.2,0.1-0.4,0.3-0.6,0.6c-0.1,0.3-0.2,0.6-0.2,0.9 c0,0.4,0.1,0.7,0.2,0.9c0.1,0.3,0.3,0.5,0.6,0.6c0.2,0.1,0.5,0.2,0.8,0.2s0.5-0.1,0.7-0.2s0.4-0.3,0.6-0.5l0.7,0.4 c-0.2,0.3-0.4,0.6-0.8,0.8S396.2,120.8,395.7,120.8" style="fill: rgb(221, 0, 52);"/>
    <path class="st8" d="M399,114.9c-0.2,0-0.3-0.1-0.4-0.2s-0.2-0.2-0.2-0.4c0-0.2,0.1-0.3,0.2-0.4s0.2-0.2,0.4-0.2 c0.2,0,0.3,0.1,0.4,0.2s0.2,0.2,0.2,0.4c0,0.2-0.1,0.3-0.2,0.4C399.4,114.8,399.2,114.9,399,114.9 M398.6,115.8h0.9v4.9h-0.9V115.8 z" style="fill: rgb(221, 0, 52);"/>
    <path class="st8" d="M403.1,120.8c-0.5,0-0.9-0.1-1.3-0.3c-0.4-0.2-0.7-0.5-0.9-0.9c-0.2-0.4-0.3-0.8-0.3-1.3s0.1-0.9,0.3-1.3 c0.2-0.4,0.5-0.7,0.9-0.9c0.4-0.2,0.8-0.3,1.3-0.3s0.9,0.1,1.3,0.3c0.4,0.2,0.7,0.5,0.9,0.9s0.3,0.8,0.3,1.3s-0.1,0.9-0.3,1.3 c-0.2,0.4-0.5,0.7-0.9,0.9S403.5,120.8,403.1,120.8 M403.1,120c0.3,0,0.6-0.1,0.8-0.2c0.2-0.1,0.4-0.3,0.6-0.6 c0.1-0.3,0.2-0.6,0.2-0.9c0-0.4-0.1-0.7-0.2-0.9c-0.1-0.3-0.3-0.5-0.6-0.6c-0.2-0.1-0.5-0.2-0.8-0.2s-0.6,0.1-0.8,0.2 c-0.2,0.1-0.4,0.3-0.6,0.6c-0.1,0.3-0.2,0.6-0.2,0.9s0.1,0.7,0.2,0.9c0.1,0.3,0.3,0.5,0.6,0.6C402.5,119.9,402.8,120,403.1,120 M402.4,115.1l1.2-1.2h1.1l-1.5,1.2H402.4z" style="fill: rgb(221, 0, 52);"/>
    <path class="st8" d="M409.2,115.8c0.4,0,0.7,0.1,1,0.2c0.3,0.2,0.5,0.4,0.7,0.7c0.2,0.3,0.3,0.7,0.3,1.2v2.8h-0.9V118 c0-0.5-0.1-0.8-0.3-1.1c-0.2-0.2-0.5-0.4-0.9-0.4c-0.3,0-0.6,0.1-0.8,0.2c-0.2,0.1-0.4,0.3-0.5,0.5s-0.2,0.5-0.2,0.9v2.5h-0.9v-4.9 h0.8v1.3l-0.1-0.4c0.2-0.3,0.4-0.6,0.7-0.8C408.4,115.8,408.7,115.8,409.2,115.8" style="fill: rgb(221, 0, 52);"/>
    <path class="st8" d="M416.9,120.8c-0.5,0-0.9-0.1-1.4-0.2c-0.4-0.2-0.8-0.3-1-0.6l0.3-0.7c0.2,0.2,0.5,0.4,0.9,0.5s0.8,0.2,1.2,0.2 c0.4,0,0.7,0,0.9-0.1c0.2-0.1,0.4-0.2,0.5-0.4c0.1-0.2,0.2-0.3,0.2-0.5s-0.1-0.4-0.2-0.5s-0.3-0.2-0.5-0.3 c-0.2-0.1-0.5-0.2-0.7-0.2c-0.3-0.1-0.5-0.1-0.8-0.2s-0.5-0.2-0.7-0.3c-0.2-0.1-0.4-0.3-0.5-0.5s-0.2-0.5-0.2-0.8s0.1-0.6,0.3-0.9 c0.2-0.3,0.4-0.5,0.8-0.7s0.8-0.3,1.4-0.3c0.4,0,0.7,0,1.1,0.1s0.7,0.2,0.9,0.4l-0.3,0.7c-0.3-0.2-0.6-0.3-0.9-0.4 s-0.6-0.1-0.9-0.1c-0.4,0-0.6,0-0.9,0.1c-0.2,0.1-0.4,0.2-0.5,0.4c-0.1,0.2-0.2,0.3-0.2,0.5s0.1,0.4,0.2,0.5s0.3,0.2,0.5,0.3 c0.2,0.1,0.5,0.2,0.7,0.2c0.3,0.1,0.5,0.1,0.8,0.2s0.5,0.2,0.7,0.3c0.2,0.1,0.4,0.3,0.5,0.5s0.2,0.5,0.2,0.8s-0.1,0.6-0.3,0.9 c-0.2,0.3-0.4,0.5-0.8,0.7C417.9,120.7,417.5,120.8,416.9,120.8" style="fill: rgb(221, 0, 52);"/>
    <path class="st8" d="M422.5,120.8c-0.5,0-0.9-0.1-1.3-0.3c-0.4-0.2-0.7-0.5-0.9-0.9c-0.2-0.4-0.3-0.8-0.3-1.3s0.1-0.9,0.3-1.3 c0.2-0.4,0.5-0.7,0.9-0.9c0.4-0.2,0.8-0.3,1.3-0.3s0.9,0.1,1.3,0.3c0.4,0.2,0.7,0.5,0.9,0.9c0.2,0.4,0.3,0.8,0.3,1.3 s-0.1,0.9-0.3,1.3c-0.2,0.4-0.5,0.7-0.9,0.9S422.9,120.8,422.5,120.8 M422.5,120c0.3,0,0.6-0.1,0.8-0.2c0.2-0.1,0.4-0.3,0.6-0.6 c0.1-0.3,0.2-0.6,0.2-0.9c0-0.4-0.1-0.7-0.2-0.9c-0.1-0.3-0.3-0.5-0.6-0.6c-0.2-0.1-0.5-0.2-0.8-0.2s-0.6,0.1-0.8,0.2 c-0.2,0.1-0.4,0.3-0.6,0.6c-0.1,0.3-0.2,0.6-0.2,0.9s0.1,0.7,0.2,0.9c0.1,0.3,0.3,0.5,0.6,0.6C421.9,119.9,422.2,120,422.5,120" style="fill: rgb(221, 0, 52);"/>
    <path class="st8" d="M428.1,120.8c-0.5,0-0.9-0.1-1.3-0.3c-0.4-0.2-0.7-0.5-0.9-0.9c-0.2-0.4-0.3-0.8-0.3-1.3s0.1-0.9,0.3-1.3 c0.2-0.4,0.5-0.7,0.9-0.9c0.4-0.2,0.8-0.3,1.3-0.3c0.4,0,0.8,0.1,1.2,0.3c0.3,0.2,0.6,0.4,0.8,0.8l-0.7,0.4 c-0.2-0.2-0.3-0.4-0.6-0.5c-0.2-0.1-0.5-0.2-0.7-0.2c-0.3,0-0.6,0.1-0.8,0.2c-0.2,0.1-0.4,0.3-0.6,0.6c-0.1,0.3-0.2,0.6-0.2,0.9 c0,0.4,0.1,0.7,0.2,0.9c0.1,0.3,0.3,0.5,0.6,0.6c0.2,0.1,0.5,0.2,0.8,0.2s0.5-0.1,0.7-0.2s0.4-0.3,0.6-0.5l0.7,0.4 c-0.2,0.3-0.4,0.6-0.8,0.8C428.9,120.7,428.5,120.8,428.1,120.8" style="fill: rgb(221, 0, 52);"/>
    <path class="st8" d="M431.4,114.9c-0.2,0-0.3-0.1-0.4-0.2s-0.2-0.2-0.2-0.4c0-0.2,0.1-0.3,0.2-0.4s0.2-0.2,0.4-0.2 c0.2,0,0.3,0.1,0.4,0.2s0.2,0.2,0.2,0.4c0,0.2-0.1,0.3-0.2,0.4C431.7,114.8,431.6,114.9,431.4,114.9 M431,115.8h0.9v4.9H431V115.8z " style="fill: rgb(221, 0, 52);"/>
    <path class="st8" d="M434.8,120.8c-0.4,0-0.7-0.1-0.9-0.2c-0.3-0.1-0.5-0.3-0.6-0.5s-0.2-0.5-0.2-0.7c0-0.3,0.1-0.5,0.2-0.7 s0.3-0.4,0.6-0.5c0.3-0.1,0.7-0.2,1.1-0.2h1.5v0.6H435c-0.4,0-0.7,0.1-0.9,0.2c-0.1,0.1-0.2,0.3-0.2,0.5s0.1,0.4,0.3,0.6 c0.2,0.1,0.4,0.2,0.8,0.2c0.3,0,0.6-0.1,0.8-0.2c0.2-0.1,0.4-0.4,0.5-0.6l0.2,0.6c-0.1,0.3-0.3,0.5-0.6,0.7 C435.6,120.7,435.2,120.8,434.8,120.8 M436.3,120.7v-1v-0.2v-1.8c0-0.4-0.1-0.7-0.3-0.9c-0.2-0.2-0.5-0.3-1-0.3 c-0.3,0-0.6,0-0.8,0.1c-0.3,0.1-0.5,0.2-0.7,0.4l-0.4-0.7c0.2-0.2,0.5-0.4,0.9-0.5c0.3-0.1,0.7-0.2,1.1-0.2c0.7,0,1.2,0.2,1.5,0.5 c0.4,0.3,0.5,0.8,0.5,1.5v3L436.3,120.7L436.3,120.7z" style="fill: rgb(221, 0, 52);"/>
    <rect x="438.7" y="113.8" class="st8" width="0.9" height="6.9" style="fill: rgb(221, 0, 52);"/>
    <path class="st8" d="M441.5,114.9c-0.2,0-0.3-0.1-0.4-0.2s-0.2-0.2-0.2-0.4c0-0.2,0.1-0.3,0.2-0.4s0.2-0.2,0.4-0.2s0.3,0.1,0.4,0.2 s0.2,0.2,0.2,0.4c0,0.2-0.1,0.3-0.2,0.4S441.7,114.9,441.5,114.9 M441.1,115.8h0.9v4.9h-0.9V115.8z" style="fill: rgb(221, 0, 52);"/>
    <path class="st8" d="M444.8,120.8c-0.4,0-0.8-0.1-1.1-0.2c-0.4-0.1-0.6-0.2-0.8-0.4l0.4-0.7c0.2,0.1,0.5,0.3,0.8,0.4 s0.6,0.1,0.9,0.1c0.4,0,0.7-0.1,0.9-0.2c0.2-0.1,0.3-0.3,0.3-0.5s-0.1-0.3-0.2-0.4s-0.2-0.2-0.4-0.2c-0.2,0-0.4-0.1-0.6-0.1 s-0.4-0.1-0.6-0.1c-0.2-0.1-0.4-0.1-0.6-0.2s-0.3-0.2-0.4-0.4c-0.1-0.2-0.2-0.4-0.2-0.7c0-0.3,0.1-0.6,0.2-0.8 c0.2-0.2,0.4-0.4,0.7-0.5s0.6-0.2,1.1-0.2c0.3,0,0.6,0,0.9,0.1s0.6,0.2,0.8,0.3l-0.4,0.7c-0.2-0.1-0.4-0.3-0.7-0.3 c-0.2-0.1-0.5-0.1-0.7-0.1c-0.4,0-0.7,0.1-0.8,0.2c-0.2,0.1-0.3,0.3-0.3,0.5s0.1,0.3,0.2,0.4s0.3,0.2,0.4,0.2 c0.2,0,0.4,0.1,0.6,0.1s0.4,0.1,0.6,0.1c0.2,0.1,0.4,0.1,0.6,0.2s0.3,0.2,0.4,0.4c0.1,0.2,0.2,0.4,0.2,0.7c0,0.3-0.1,0.6-0.3,0.8 c-0.2,0.2-0.4,0.4-0.7,0.5C445.6,120.7,445.3,120.8,444.8,120.8" style="fill: rgb(221, 0, 52);"/>
    <path class="st8" d="M447.2,115.8h3v0.7h-3V115.8z M449.5,120.8c-0.5,0-0.8-0.1-1.1-0.4c-0.3-0.3-0.4-0.6-0.4-1.1v-4.5h0.9v4.5 c0,0.3,0.1,0.5,0.2,0.6s0.3,0.2,0.6,0.2c0.3,0,0.5-0.1,0.7-0.2l0.3,0.6c-0.1,0.1-0.3,0.2-0.5,0.3 C449.9,120.7,449.7,120.8,449.5,120.8" style="fill: rgb(221, 0, 52);"/>
    <path class="st8" d="M452.9,120.8c-0.4,0-0.7-0.1-0.9-0.2c-0.3-0.1-0.5-0.3-0.6-0.5s-0.2-0.5-0.2-0.7c0-0.3,0.1-0.5,0.2-0.7 s0.3-0.4,0.6-0.5c0.3-0.1,0.7-0.2,1.1-0.2h1.5v0.6h-1.5c-0.4,0-0.7,0.1-0.9,0.2c-0.1,0.1-0.2,0.3-0.2,0.5s0.1,0.4,0.3,0.6 c0.2,0.1,0.4,0.2,0.8,0.2c0.3,0,0.6-0.1,0.8-0.2c0.2-0.1,0.4-0.4,0.5-0.6l0.2,0.6c-0.1,0.3-0.3,0.5-0.6,0.7 C453.7,120.7,453.3,120.8,452.9,120.8 M454.4,120.7v-1v-0.2v-1.8c0-0.4-0.1-0.7-0.3-0.9c-0.2-0.2-0.5-0.3-1-0.3 c-0.3,0-0.6,0-0.8,0.1c-0.3,0.1-0.5,0.2-0.7,0.4l-0.4-0.7c0.2-0.2,0.5-0.4,0.9-0.5c0.3-0.1,0.7-0.2,1.1-0.2c0.7,0,1.2,0.2,1.5,0.5 c0.4,0.3,0.5,0.8,0.5,1.5v3L454.4,120.7L454.4,120.7z" style="fill: rgb(221, 0, 52);"/>
    <path class="st8" d="M329.4,52.4c-10.8,2-19,11.3-19.1,22.5c-0.1,10.6,7.2,19.6,17.2,22.3c-5-3.9-8.2-9.9-8.2-16.7 c0-7.1,3.7-13.4,9.3-17.2c-1.3-1.3-2.1-3.1-2.1-5.1C326.5,55.9,327.6,53.7,329.4,52.4" style="fill: rgb(221, 0, 52);"/>
    <path class="st8" d="M367.7,97.3V80.9c0-6.4-4.2-10.6-10.6-10.6h-0.6c-6.4,0-10.6,4.2-10.6,10.8v16.2h-5.6V80.7 c0-9.6,6.4-15.9,15.9-15.9h1.1c9.6,0,15.9,6.4,15.9,15.9v16.6H367.7z" style="fill: rgb(221, 0, 52);"/>
    <path class="st8" d="M447.8,84c0.1-0.8,0.2-1.7,0.2-2.6c0-10.2-6.4-16.6-15.9-16.6h-3.4c-9.6,0-15.9,6.4-15.9,15.9v0.7 c0,9.6,6.4,15.9,15.9,15.9h3.4c7.6,0,13.2-4,15.2-10.5h-6.2c-1.7,3.1-5,4.9-9.2,4.9h-3c-5.4,0-9.2-3-10.3-7.7h23.5l0,0 C442.1,84,447.8,84,447.8,84z M428.9,70.3h3c5.3,0,9.2,3,10.3,7.7h-23.5C419.8,73.3,423.6,70.3,428.9,70.3" style="fill: rgb(221, 0, 52);"/>
    <path class="st8" d="M473.6,78.2h-10.7c-3.1,0-4.7-1.3-4.7-3.9s1.8-4,5.3-4h7.6c5,0,5.4,1.3,5.4,5.1l0,0h5.6v-0.7 c0-6.8-2.8-10-11.2-10H464c-7.9,0-11.9,3.4-11.9,9.7c0,5.9,3.5,9.3,8.6,9.3h11.2c2.9,0,4.7,1.2,4.7,4.1c0,2.8-1.7,3.8-5.3,3.8h-9 c-5,0-4.9-1.2-4.9-4.9h-5.6v0.5c0,6.8,2.3,10,10.8,10h8.3c7.4,0,11.9-2.1,11.9-9.5C482.7,81.6,479.6,78.2,473.6,78.2" style="fill: rgb(221, 0, 52);"/>
    <path class="st8" d="M403.4,86.8c-0.1,3.8-2.7,4.9-7.7,4.9h-4.3c-6.4,0-8.9-4.2-8.9-10.6c0-6.6,2.5-10.8,8.9-10.8h4.3 c5,0,7.7,1.3,7.7,5.1l0,0h5.6v-0.7c0-6.8-5.1-10-13.6-10h-3.6c-9.7,0-14.9,6.5-14.9,16.1v0.3c0,9.7,5.2,16.1,14.9,16.1h3.6 c8.5,0,13.6-3.2,13.6-10v-0.5L403.4,86.8L403.4,86.8z" style="fill: rgb(221, 0, 52);"/>
    <path class="st8" d="M337.6,58.3c0,2.1-1.7,3.8-3.8,3.8s-3.8-1.7-3.8-3.8s1.7-3.8,3.8-3.8S337.6,56.2,337.6,58.3" style="fill: rgb(221, 0, 52);"/>
    <path class="st8" d="M331,65.1v32.2h5.6V65.1c-0.9,0.4-1.8,0.6-2.8,0.6C332.8,65.6,331.9,65.4,331,65.1" style="fill: rgb(221, 0, 52);"/>
  </g>
</svg>