<?xml version="1.0" encoding="utf-8"?>
<svg id="Capa_9" data-name="Capa 9" viewBox="0 0 1082 388" preserveAspectRatio="xMidYMid slice" xmlns="http://www.w3.org/2000/svg">
  <defs>
    <style>.cls-1{fill:#dc0032;}</style>
  </defs>
  <title>paleta de colores</title>
  <path class="cls-1" d="M 218.11 17.097 C 192.44 21.73 175.41 36.092 168.06 59 C 160.06 84.073 167.38 106.358 185.4 124.123 C 180.88 129.058 176.34 134.324 171.48 139.307 C 153.59 157.658 144.24 179.725 140.75 204.042 C 134.58 247.088 147.84 286.154 169.39 323.32 C 173.48 330.373 178.19 337.105 182.68 344.12 C 182.32 344.12 181.83 344.12 181.52 343.978 C 155.36 328.473 128.71 313.639 103.19 297.235 C 67.78 274.469 49.44 242.068 44.96 201.744 C 39.28 150.737 59.2 109.147 95.35 73.163 C 119 49.63 146.73 31.79 179.81 22.042 C 192.16 18.238 205.133 16.562 218.11 17.097 Z" style="transform-origin: 0px 181.5px;"/>
  <path class="cls-1" d="M 841.27 264.4 L 691.16 264.4 C 697.22 284.585 709.22 299.542 729.29 307.143 C 754.62 316.74 777.21 311.058 796.7 292.962 L 819.79 316.437 C 818.26 318.045 816.97 319.538 815.53 320.89 C 778.82 355.201 718.07 353.338 681.86 314.717 C 646.59 277.116 646.52 212.097 686.52 175.631 C 699.04 164.219 712.37 154.557 729.79 151.257 C 775.06 142.682 816.09 164.494 833.71 206.093 C 841.56 224.747 842.34 244.053 841.27 264.4 Z M 691.91 230.458 L 808 230.458 C 801.35 199.645 774.85 179.403 744.31 181.294 C 717.35 183.005 696.19 202.274 691.91 230.458 Z" style="transform-origin: 0px 181.5px;"/>
  <path class="cls-1" d="M 852.87 276.539 L 884.73 276.539 C 884.9 277.929 885.04 279.101 885.19 280.321 C 886.86 293.378 894.51 302.066 907.19 306.85 C 919.54 311.578 932.5 312.4 945.61 311.956 C 959.61 311.483 973.61 310.226 986.61 304.808 C 990.447 303.25 993.992 301.118 997.11 298.493 C 1006.87 289.983 1004.8 276.482 993.02 270.753 C 983.35 266.026 972.73 265.08 962.11 264.485 C 947.5 263.7 932.79 263.908 918.28 262.395 C 909.339 261.422 900.609 259.151 892.4 255.664 C 869.4 245.944 859.13 228.179 860.13 204.77 C 861.13 181.672 874.4 166.063 896.63 158.272 C 926.84 147.683 957.63 147.872 987.55 159.624 C 1005.67 166.763 1018.62 178.959 1022.72 197.991 C 1022.97 199.173 1023.1 200.392 1023.23 201.603 C 1023.45 203.701 1023.62 205.8 1023.85 208.287 L 991.23 208.287 C 989.72 197.698 981.53 192.781 971.98 189.539 C 952.928 182.995 932.161 182.392 912.72 187.818 C 907.792 189.204 903.211 191.516 899.25 194.616 C 889.79 201.981 890.73 215.926 900.78 222.611 C 910.43 229.04 921.78 229.995 933.02 230.571 C 945.71 231.224 958.46 230.968 971.12 231.876 C 985.82 232.925 1000.05 236.149 1012.79 243.628 C 1027.79 252.43 1034.96 265.43 1035.89 281.966 C 1037.58 311.738 1018.67 328.775 998.97 335.857 C 965.43 347.874 931 349.906 897 338.202 C 869.84 328.832 854.45 309.649 852.37 281.805 C 852.295 280.587 852.295 279.365 852.37 278.146 C 852.483 277.597 852.651 277.058 852.87 276.539 Z" style="transform-origin: 0px 181.5px;"/>
  <path class="cls-1" d="M 301.1 345.283 L 268.83 345.283 C 268.573 344.244 268.399 343.189 268.31 342.125 C 268.31 308.306 267.51 274.469 268.72 240.688 C 270.31 196.091 308.11 158.263 348.63 152.685 C 386.03 147.542 415.84 159.908 438.9 187.742 C 453.21 205.025 460.11 224.861 460.31 246.644 C 460.59 277.844 460.31 309.091 460.49 340.319 C 460.49 344.678 459.05 345.718 454.73 345.586 C 445.73 345.302 436.73 345.5 427.11 345.5 L 427.11 339.828 C 427.11 309.053 427.42 278.279 427.01 247.523 C 426.69 223.414 415.24 204.628 393.24 192.536 C 364.07 176.51 327.48 187.411 309.91 216.635 C 304.311 225.769 301.327 236.125 301.25 246.682 C 301.07 277.608 301.13 308.524 301.1 339.45 L 301.1 345.283 Z" style="transform-origin: 0px 181.5px;"/>
  <path class="cls-1" d="M 617.53 293.34 L 640.53 316.778 C 624.07 333.692 604.4 343.146 580.4 345.094 C 524.25 349.651 485.45 305.29 479.27 266.99 C 474.49 237.397 480 210.178 499.63 185.993 C 537.28 139.666 604.53 140.952 640.39 179.044 C 644.22 183.119 648.26 187.014 652.49 191.278 L 628.81 215.302 C 624.75 211.067 621.11 206.859 617.02 203.087 C 606.78 193.632 595.02 186.627 580.54 184.877 C 560.22 182.429 543.3 188.971 529.21 202.784 C 495.65 235.696 508.87 294.238 553.43 308.722 C 575.69 315.955 595.89 311.644 613.55 296.895 C 614.74 295.874 615.87 294.834 617.53 293.34 Z" style="transform-origin: 0px 181.5px;"/>
  <path class="cls-1" d="M 214.71 141.056 C 225.57 145.291 236.08 145.206 246.93 141.056 L 246.93 345.188 L 214.71 345.188 L 214.71 141.056 Z" style="transform-origin: 0px 181.5px;"/>
  <path class="cls-1" d="M 196 78.051 C 196 57.251 212.09 41.717 233 42.549 C 243.24 42.956 251.41 47.513 257.71 55.01 C 269.02 68.848 268.843 88.207 257.28 101.857 C 248.1 112.399 233.64 116.512 220.4 112.342 C 207.16 108.173 196.59 94.955 196 81.7 C 196 80.481 196 79.27 196 78.051 Z" style="transform-origin: 0px 181.5px;"/>
</svg>