<svg id="Capa_1" enable-background="new 0 0 512 512" height="512" viewBox="0 0 512 512" width="512" xmlns="http://www.w3.org/2000/svg"><g><g><g><g><g><g><g><g><g><g><g><g><g><g><g><path d="m504.348 107.294c0-4.895-1.944-9.589-5.405-13.05l-81.339-81.339c-3.461-3.461-8.155-5.405-13.05-5.405h-221.504c-16.106 0-29.163 13.057-29.163 29.163v400.229c0 15.168 12.296 27.464 27.464 27.464h295.532c15.168 0 27.464-12.296 27.464-27.464v-329.598z" fill="#f0f0f3"/></g><g><path d="m498.943 94.245-29.595-29.595v372.243c0 15.168-12.296 27.465-27.464 27.465h35c15.168 0 27.464-12.296 27.464-27.465v-329.599c0-4.894-1.944-9.588-5.405-13.049z" fill="#e0dde2"/></g><path d="m498.943 94.245-81.339-81.339c-1.576-1.576-3.416-2.819-5.405-3.726v61.307c0 16.106 13.057 29.163 29.163 29.163h61.307c-.907-1.99-2.15-3.83-3.726-5.405z" fill="#fb636f"/></g></g></g></g></g></g><path d="m452.448 192.738h-153.616c-2.754 0-4.986-2.232-4.986-4.986v-37.488c0-2.754 2.232-4.986 4.986-4.986h153.616c2.754 0 4.986 2.232 4.986 4.986v37.488c0 2.754-2.233 4.986-4.986 4.986z" fill="#7aabdc"/><path d="m452.448 145.278h-35c2.754 0 4.986 2.232 4.986 4.986v37.488c0 2.754-2.232 4.986-4.986 4.986h35c2.754 0 4.986-2.232 4.986-4.986v-37.488c0-2.754-2.233-4.986-4.986-4.986z" fill="#5f98d5"/></g><g><g><g><g><g><g><g><g><g><g><g><g><g><g><g><path d="m159.646 351.619c21.459 0 55.605-57.269 48.977-58.545l-4.845-2.561c-6.299-3.33-10.239-9.87-10.239-16.994v-46.69h-67.786v46.69c0 7.125-3.94 13.665-10.239 16.994l-4.845 2.561c-6.628 1.276 27.519 58.545 48.977 58.545z" fill="#ffeae1"/><path d="m203.778 290.513c-15.71 40.17-72.554 40.17-88.264 0s-107.863 15.655-107.863 108.872v80.128c0 13.8 11.187 24.986 24.986 24.986h254.017c13.8 0 24.986-11.187 24.986-24.986v-80.128c.001-93.217-107.862-108.872-107.862-108.872z" fill="#fc8086"/><g><path d="m203.778 290.513c-1.205 3.082-2.662 5.916-4.316 8.523 31.886 12.111 77.179 39.94 77.179 100.349v105.115h10.014c13.8 0 24.986-11.187 24.986-24.986v-80.128c0-93.218-107.863-108.873-107.863-108.873z" fill="#fb636f"/></g></g></g></g></g></g></g></g></g></g></g></g></g></g></g></g></g><g><path d="m183.652 331.531-24.006-14.1-24.006 14.1c-.555.326-1.124.609-1.7.87l14.95 19.611h21.511l15.688-19.304c-.829-.331-1.646-.712-2.437-1.177z" fill="#a698a6"/><path d="m110.399 287.506-14.163 6.359c-3.972 1.783-5.177 6.846-2.433 10.227l18.894 23.287c5.57 6.866 15.321 8.63 22.944 4.153l24.006-14.1-36.6-28.53c-3.651-2.728-8.492-3.262-12.648-1.396z" fill="#fa4954"/><path d="m208.894 287.506 14.163 6.359c3.972 1.783 5.177 6.846 2.433 10.227l-18.894 23.287c-5.57 6.866-15.321 8.63-22.944 4.153l-24.006-14.1 36.6-28.53c3.65-2.728 8.492-3.262 12.648-1.396z" fill="#fa4954"/><path d="m170.402 352.012h-21.511l-24.506 152.488h70.522z" fill="#8f818f"/></g></g><g><path d="m71.626 121.543v46.548h45.562v-70.554h-21.557c-13.258 0-24.005 10.748-24.005 24.006z" fill="#fb9538"/></g></g></g></g><g><path d="m94.982 147.392c-10.575 0-10.979 0-10.979 0-9.829.005-17.792 7.978-17.785 17.807l.014 19.417c.006 8.014 6.506 14.506 14.52 14.502h14.231v-51.726z" fill="#ffdbcc"/><path d="m235.296 147.392s-8.885-.001-10.979-.001v51.723h6.382l7.849.004c8.014.004 14.514-6.488 14.52-14.502l.014-19.417c.006-9.829-7.957-17.802-17.786-17.807z" fill="#ffeae1"/></g><g><g><path d="m225.288 87.655h-65.641-9.147c-31.199 0-56.491 25.292-56.491 56.491v54.968c.461 18.175 8.08 35.637 21.762 47.46 10.466 9.044 24.958 16.957 43.859 17.848v.002c.006 0 .011-.001.017-.001h.004c.006 0 .011.001.017.001v-.002c18.901-.89 33.392-8.803 43.859-17.848 13.682-11.823 21.301-29.286 21.762-47.46v-51.723-59.736z" fill="#ffeae1"/></g><g><path d="m190.288 87.655v122.423c-.461 18.175-8.08 35.637-21.762 47.46-2.784 2.406-5.863 4.726-9.224 6.861.111.006.217.018.328.023v.002c.006 0 .011-.001.017-.001h.004c.006 0 .011.001.017.001v-.002c18.901-.89 33.392-8.803 43.859-17.848 13.682-11.823 21.301-29.286 21.762-47.46v-51.723-59.736z" fill="#ffdbcc"/></g><path d="m225.288 147.388 5.832.003c2.26 0 4.177.001 4.177.001 4.807.002 9.159 1.919 12.36 5.018l-.002-35.73c-.002-27.787-22.528-50.313-50.316-50.313h-120.558c-2.838 0-5.138 2.3-5.138 5.138 0 25.182 20.414 45.596 45.596 45.596h82.356c14.19 0 25.693 11.503 25.693 25.693z" fill="#fba65c"/><g><path d="m247.654 116.68c-.002-27.787-22.528-50.313-50.316-50.313h-7.05v50.733h9.307c14.19 0 25.693 11.503 25.693 25.693v4.595l5.832.003c2.26 0 4.177.001 4.177.001 4.807.002 9.159 1.919 12.36 5.018z" fill="#fb9538"/></g></g></g><g><path d="m457.434 220.514h-163.588c-4.143 0-7.5 3.357-7.5 7.5s3.357 7.5 7.5 7.5h163.588c4.143 0 7.5-3.357 7.5-7.5s-3.358-7.5-7.5-7.5z"/><path d="m464.934 261.59c0-4.143-3.357-7.5-7.5-7.5h-163.588c-4.143 0-7.5 3.357-7.5 7.5s3.357 7.5 7.5 7.5h163.588c4.142 0 7.5-3.358 7.5-7.5z"/><path d="m293.846 287.667c-4.143 0-7.5 3.357-7.5 7.5s3.357 7.5 7.5 7.5h81.794c4.143 0 7.5-3.357 7.5-7.5s-3.357-7.5-7.5-7.5z"/><path d="m504.349 158.979c4.143 0 7.5-3.357 7.5-7.5v-44.185c0-6.156-2.134-11.983-6.043-16.644-.007-.008-.013-.015-.02-.023-.487-.58-.997-1.144-1.539-1.686l-81.34-81.34c-.54-.54-1.102-1.047-1.679-1.533-.01-.009-.02-.018-.031-.026-4.661-3.909-10.487-6.042-16.642-6.042h-221.505c-20.216 0-36.663 16.447-36.663 36.663v22.204h-69.606c-6.969 0-12.639 5.669-12.639 12.638 0 10.527 3.092 20.339 8.397 28.601-5.361 5.753-8.413 13.348-8.413 21.437v28.018c-3.506 4.444-5.412 9.897-5.408 15.645l.015 19.415c.008 12.133 9.88 21.999 22.009 21.998h.012 6.303c2.183 17.904 10.633 34.244 23.81 45.631 2.399 2.073 4.865 3.972 7.388 5.722v15.549c0 1.901-.482 3.773-1.359 5.443-3.228-.22-6.515.33-9.568 1.702l-14.161 6.357c-1.377.618-2.61 1.447-3.694 2.425-15.328 5.095-29.178 11.824-41.162 20.048-3.415 2.344-4.283 7.012-1.939 10.428 2.337 3.406 7.006 4.29 10.428 1.939 8.785-6.029 18.733-11.181 29.646-15.401.433.822.934 1.616 1.535 2.357l18.894 23.287c5.865 7.227 15.067 10.712 24.27 8.997l9.831 12.897-23.011 143h-47.398v-62.668c0-4.143-3.357-7.5-7.5-7.5s-7.5 3.357-7.5 7.5v62.668h-22.93c-9.642 0-17.486-7.845-17.486-17.486v-80.128c0-21.055 5.956-39.585 17.702-55.077 2.502-3.301 1.855-8.005-1.445-10.508-3.302-2.502-8.004-1.856-10.508 1.445-13.768 18.159-20.749 39.738-20.749 64.14v80.128c0 17.913 14.574 32.486 32.487 32.486h254.018c17.913 0 32.486-14.573 32.486-32.486v-7.657h157.742c19.279 0 34.965-15.685 34.965-34.964v-249.89c0-4.143-3.357-7.5-7.5-7.5s-7.5 3.357-7.5 7.5v249.89c0 11.008-8.956 19.964-19.965 19.964h-157.742v-57.471c0-55.613-36.555-92.404-89.351-109.965-2.842-2.549-4.383-2.503-17.825-8.757-3.053-1.371-6.34-1.921-9.567-1.701-.878-1.67-1.36-3.542-1.36-5.443v-15.547c2.523-1.75 4.99-3.65 7.39-5.723 13.177-11.386 21.628-27.727 23.812-45.633 3.671.001 2.635.001 6.314.002 12.13 0 22.004-9.866 22.013-21.998l.014-19.416c.004-5.756-1.908-11.217-5.425-15.665l-.002-32.86c-.002-31.877-25.938-57.812-57.816-57.812h-35.951v-22.205c0-11.945 9.718-21.663 21.663-21.663h221.505c.048 0 .095.006.144.007v55.48c0 20.216 16.447 36.663 36.663 36.663l55.48-.001c.001.048.007.096.007.144v44.185c-.001 4.143 3.356 7.501 7.499 7.501zm-417.697-19.087h-2.653c-1.655.001-3.284.161-4.873.471v-18.82c0-3.665 1.204-7.134 3.348-9.957 2.918 2.534 6.104 4.766 9.526 6.622-3.036 6.841-4.85 14.176-5.348 21.684zm-5.904 51.726c-.001 0-.002 0-.003 0-3.865 0-7.011-3.143-7.013-7.009l-.015-19.415c-.004-5.695 4.604-10.3 10.285-10.302h2.506v36.725zm37.773 131.035-18.182-22.409 13.132-5.896c1.228-.552 2.607-.579 3.835-.12.015.006.03.01.045.016 1.319.508-.096-.233 28.975 22.313l-14.484 8.508c-4.386 2.574-10.015 1.663-13.321-2.412zm41.125 3.476 14.976 8.797-7.791 9.586h-14.228l-7.502-9.84zm-4.365 33.383h8.73l22.125 137.488h-52.979zm148.861 39.874v80.128c0 9.642-7.845 17.486-17.486 17.486h-22.93v-62.668c0-4.143-3.357-7.5-7.5-7.5s-7.5 3.357-7.5 7.5v62.668h-47.397l-22.989-142.863 10.5-12.92c1.305.206 2.615.321 3.922.321 7.404 0 14.66-3.271 19.659-9.433l18.895-23.288c.602-.742 1.105-1.539 1.539-2.364 30.202 11.707 71.287 37.777 71.287 92.933zm-85.188-99.142-18.182 22.409c-3.265 4.025-8.872 5.025-13.321 2.411l-14.484-8.508c29.392-22.796 27.664-21.809 28.974-22.313.015-.005.03-.01.045-.016 1.227-.459 2.606-.431 3.835.119h.001zm-30.191-15.02-29.117 22.697-29.117-22.697c1.767-3.625 2.724-7.636 2.724-11.705v-7.335c18.135 7.475 33.912 7.78 52.785.001v7.334c.001 4.07.958 8.081 2.725 11.705zm9.858-44.325c-23.608 20.402-53.054 21.512-77.946 0-11.741-10.146-18.724-25.407-19.166-41.883v-54.87c0-7.203 1.583-14.271 4.602-20.729 3.59.769 7.311 1.183 11.128 1.183h82.356c10.032 0 18.193 8.161 18.193 18.193v56.223c-.443 16.476-7.426 31.739-19.167 41.883zm46.946-56.29c-.003 3.866-3.147 7.009-7.013 7.009-.103 0-5.869-.002-5.767-.002v-36.724c1.396.223 5.391-1.026 9.785 3.023 1.941 1.945 3.01 4.529 3.008 7.279zm-5.413-67.929.001 23.681c-3.345-.649-5.577-.419-7.493-.469-1.475-16.949-15.742-30.291-33.067-30.291h-82.356c-20.213 0-36.799-15.824-38.023-35.733h118.123c23.606-.001 42.813 19.205 42.815 42.812zm179.544-46.193v-44.881l66.542 66.543-44.879.001c-11.945 0-21.663-9.717-21.663-21.663z"/><path d="m464.934 150.264c0-6.885-5.602-12.485-12.486-12.485h-153.616c-6.885 0-12.486 5.601-12.486 12.485v37.488c0 6.885 5.602 12.486 12.486 12.486h153.615c6.885 0 12.486-5.602 12.486-12.486v-37.488zm-15 34.974h-148.588v-32.46h148.588z"/></g></g></svg>