<svg id="Capa_1" enable-background="new 0 0 512.081 512.081" height="512" viewBox="0 0 512.081 512.081" width="512" xmlns="http://www.w3.org/2000/svg"><g><path d="m188.475 301.289-54.869-18.768v-45.037h-54.045v45.037l-54.869 18.768c-10.282 3.517-17.191 13.182-17.191 24.049v40.604h198.165v-40.604c0-10.867-6.909-20.532-17.191-24.049z" fill="#fe646f"/><path d="m109.56 237.48v45.04l-54.87 18.77c-10.28 3.52-17.19 13.18-17.19 24.05v40.6h-30v-40.6c0-10.87 6.91-20.53 17.19-24.05l54.87-18.77v-45.04z" fill="#fd4755"/><path d="m79.561 282.521 27.023 36.827 27.022-36.827v-45.038h-54.045z" fill="#ffb09e"/><path d="m60.215 177.772h-18.185c-7.112 0-12.877 5.765-12.877 12.877v9.649c0 7.112 5.765 12.877 12.877 12.877h18.185z" fill="#ffb09e"/><path d="m487.386 301.289-54.869-18.768v-45.037h-54.045v45.037l-54.869 18.768c-10.282 3.517-17.191 13.182-17.191 24.049v40.604h198.165v-40.604c0-10.867-6.909-20.532-17.191-24.049z" fill="#aee69c"/><path d="m408.47 237.48v45.04l-54.87 18.77c-10.28 3.52-17.19 13.18-17.19 24.05v40.6h-30v-40.6c0-10.87 6.91-20.53 17.19-24.05l54.87-18.77v-45.04z" fill="#89daa4"/><path d="m378.472 282.521 27.022 36.827 27.023-36.827v-37.766h-54.045z" fill="#ffb09e"/><path d="m451.863 177.772h18.185c7.112 0 12.877 5.765 12.877 12.877v9.649c0 7.112-5.765 12.877-12.877 12.877h-18.185z" fill="#ffb09e"/><path d="m60.215 166.293v56.267c0 23.654 19.175 42.829 42.829 42.829h7.079c23.654 0 42.829-19.175 42.829-42.829v-56.267c0-7.244-5.872-13.116-13.116-13.116h-66.505c-7.244 0-13.116 5.872-13.116 13.116z" fill="#ffcebf"/><path d="m116.58 264.91c-2.1.31-4.26.48-6.46.48h-7.08c-23.65 0-42.83-19.18-42.83-42.83v-56.27c0-7.24 5.88-13.11 13.12-13.11h20c-7.24 0-13.12 5.87-13.12 13.11v56.27c0 21.45 15.78 39.23 36.37 42.35z" fill="#ffb09e"/><path d="m162.398 177.772h-12.372c-13.496 0-25.42-8.783-29.424-21.671l-2.839-9.14-10.101 16.259c-5.622 9.049-15.519 14.552-26.171 14.552h-30.721v-25.15c0-20.419 16.553-36.973 36.973-36.973h37.683c20.419 0 36.973 16.553 36.973 36.973v25.15z" fill="#68748f"/><path d="m87.74 115.65h20c-20.42 0-36.97 16.55-36.97 36.97v25.15h-20v-25.15c0-20.42 16.55-36.97 36.97-36.97z" fill="#5d6980"/><path d="m388.995 354.209-89.043-30.458v-73.088h-87.705v73.088l-89.043 30.458c-16.686 5.708-27.898 21.392-27.898 39.027v65.893h321.586v-65.893c.001-17.636-11.211-33.32-27.897-39.027z" fill="#8ac9fe"/><path d="m242.25 250.66v73.09l-89.05 30.46c-16.68 5.71-27.89 21.39-27.89 39.03v65.89h-30v-65.89c0-17.64 11.21-33.32 27.89-39.03l89.05-30.46v-73.09z" fill="#60b7ff"/><path d="m299.98 284.61v39.2l-43.88 33.04-43.88-33.04v-39.2z" fill="#ffb09e"/><path d="m266.1 349.32-10 7.53-43.88-33.04v-39.2h20v39.2z" fill="#f89580"/><path d="m359.126 166.293v56.267c0 23.654 19.175 42.829 42.829 42.829h7.079c23.654 0 42.829-19.175 42.829-42.829v-56.267c0-7.244-5.872-13.116-13.116-13.116h-66.505c-7.244 0-13.116 5.872-13.116 13.116z" fill="#ffcebf"/><path d="m415.49 264.91c-2.1.31-4.26.48-6.46.48h-7.08c-23.65 0-42.82-19.18-42.82-42.83v-56.27c0-7.24 5.87-13.11 13.11-13.11h20c-7.24 0-13.11 5.87-13.11 13.11v56.27c0 21.45 15.77 39.23 36.36 42.35z" fill="#ffb09e"/><path d="m461.308 177.772h-12.372c-13.496 0-25.42-8.783-29.424-21.671l-2.839-9.14-10.101 16.259c-5.622 9.049-15.519 14.552-26.171 14.552h-30.721v-25.15c0-20.419 16.553-36.973 36.973-36.973h37.683c20.419 0 36.973 16.553 36.973 36.973v25.15z" fill="#68748f"/><path d="m386.65 115.65h30c-20.42 0-36.97 16.55-36.97 36.97v25.15h-30v-25.15c0-20.42 16.55-36.97 36.97-36.97z" fill="#5d6980"/><path d="m299.98 284.61v22.79c-11.58 5.49-24.51 8.55-38.14 8.55h-11.48c-13.63 0-26.56-3.06-38.14-8.55v-22.79z" fill="#f89580"/><path d="m180.852 135.135v91.311c0 38.386 31.118 69.504 69.504 69.504h11.488c38.386 0 69.504-31.118 69.504-69.504v-91.311c0-11.755-9.53-21.285-21.285-21.285h-107.926c-11.755 0-21.285 9.53-21.285 21.285z" fill="#ffcebf"/><path d="m266.1 295.82c-1.41.09-2.83.13-4.26.13h-11.48c-38.39 0-69.51-31.12-69.51-69.5v-91.32c0-11.75 9.53-21.28 21.29-21.28h20c-11.76 0-21.29 9.53-21.29 21.28v91.32c0 36.95 28.84 67.17 65.25 69.37z" fill="#ffb09e"/><path d="m331.348 153.762h15.061c11.541 0 20.897 9.356 20.897 20.897v15.659c0 11.541-9.356 20.897-20.897 20.897h-15.061z" fill="#ffb09e"/><path d="m256.1 356.851-31.062 18.974 15.531 27.62h31.062l15.531-27.62z" fill="#68748f"/><path d="m245.04 375.82 15.53 27.62h-20l-15.53-27.62 31.06-18.97 10 6.11z" fill="#5d6980"/><path d="m240.569 403.445-15.531 55.683h62.124l-15.531-55.683z" fill="#68748f"/><path d="m260.57 403.44-15.53 55.69h-20l15.53-55.69z" fill="#5d6980"/><path d="m180.852 153.762h-15.061c-11.541 0-20.897 9.356-20.897 20.897v15.659c0 11.541 9.356 20.897 20.897 20.897h15.061z" fill="#ffb09e"/><path d="m212.22 323.807 43.88 33.04-62.124 37.956v-64.802z" fill="#eaf6ff"/><path d="m299.98 323.807-43.88 33.04 62.125 37.956v-64.802z" fill="#eaf6ff"/><path d="m346.676 153.762h-20.078c-21.901 0-41.253-14.253-47.749-35.168l-4.607-14.832-16.392 26.385c-9.123 14.685-25.184 23.615-42.471 23.615h-49.855v-40.814c0-33.137 26.863-60 60-60h61.152c33.137 0 60 26.863 60 60z" fill="#68748f"/><path d="m225.52 52.95h30c-33.13 0-60 26.86-60 60v40.81h-30v-40.81c0-33.14 26.87-60 60-60z" fill="#5d6980"/><g><path d="m109.047 237.08c-11.86.753-24.366-5.496-24.366-19.439 0-4.142 3.358-7.5 7.5-7.5s7.5 3.358 7.5 7.5c0 6.241 13.805 6.24 13.805 0 0-4.142 3.358-7.5 7.5-7.5s7.5 3.358 7.5 7.5c0 10.718-8.72 19.439-19.439 19.439z"/></g><g><path d="m407.958 237.08c-11.86.753-24.366-5.496-24.366-19.439 0-4.142 3.357-7.5 7.5-7.5s7.5 3.358 7.5 7.5c0 6.24 13.806 6.24 13.806 0 0-4.142 3.357-7.5 7.5-7.5s7.5 3.358 7.5 7.5c-.001 10.718-8.722 19.439-19.44 19.439z"/></g><g><path d="m489.818 294.194-49.798-17.034v-14.986c12.867-10.088 19.501-25.301 19.34-41.499h10.688c11.236 0 20.377-9.141 20.377-20.377v-9.649c0-12.555-10.872-19.256-21.615-20.377v-17.651c0-24.521-19.949-44.47-44.47-44.47h-37.69c-12.801 0-24.348 5.444-32.47 14.13v-9.33c0-35.109-27.396-64.67-62.367-67.299-4.139-.308-7.73 2.787-8.041 6.917s2.786 7.73 6.916 8.041c27.192 2.044 48.492 25.035 48.492 52.341v33.31h-12.58c-24.941 0-40.523-22.271-45.198-44.727-1.802-8.653-10.302-7.903-13.533-1.73-10.881 20.785-25.876 46.457-52.489 46.457h-42.36v-33.31c0-28.949 23.551-52.5 52.5-52.5h33.05c4.143 0 7.5-3.358 7.5-7.5s-3.357-7.5-7.5-7.5h-33.05c-37.22 0-67.5 30.28-67.5 67.5v9.459c-8.129-8.762-19.732-14.259-32.6-14.259h-37.68c-24.521 0-44.47 19.949-44.47 44.47v17.651c-10.744 1.121-21.617 7.822-21.617 20.377v9.649c0 11.236 9.141 20.377 20.377 20.377h10.68c-.161 16.203 6.477 31.42 19.35 41.507v14.978l-49.8 17.035c-13.314 4.559-22.26 17.076-22.26 31.145v40.6c0 4.142 3.358 7.5 7.5 7.5h84.517c-3.462 7.782-4.587 17.994-4.207 26.87 0 4.142 3.358 7.5 7.5 7.5s7.5-3.358 7.5-7.5c-1.122-16.261 6.354-33.368 22.817-39.004l60.848-20.813v54.31c0 6.097 6.853 9.184 11.41 6.4l24.426-14.924 10.199 18.138-13.168 47.213h-64.461v-23.286c0-4.142-3.358-7.5-7.5-7.5s-7.5 3.358-7.5 7.5v23.286h-37.071v-18.64c0-4.142-3.358-7.5-7.5-7.5s-7.5 3.358-7.5 7.5v26.14c0 4.142 3.358 7.5 7.5 7.5h321.58c4.143 0 7.5-3.358 7.5-7.5v-65.89c0-6.978-1.492-13.694-4.207-19.8h28.797c4.143 0 7.5-3.358 7.5-7.5s-3.357-7.5-7.5-7.5h-39.208c-5.084-4.99-11.298-8.914-18.344-11.326l-76.925-26.312c1.497-5.711 5.752-10.439 11.524-12.415l49.657-16.987 23.763 32.385c4.031 4.084 8.063 4.084 12.094 0l23.763-32.385 49.656 16.987c7.249 2.482 12.12 9.295 12.12 16.954v33.1h-15.41c-4.143 0-7.5 3.358-7.5 7.5s3.357 7.5 7.5 7.5h22.91c4.143 0 7.5-3.358 7.5-7.5v-40.6c.001-14.07-8.946-26.587-22.262-31.147zm-30.455-108.923h10.686c2.965 0 5.377 2.412 5.377 5.377v9.649c0 2.965-2.412 5.377-5.377 5.377h-10.686zm-406.653 20.404h-10.68c-2.965 0-5.377-2.412-5.377-5.377v-9.649c0-2.965 2.412-5.377 5.377-5.377h10.68zm333.94-82.525h37.69c16.25 0 29.47 13.22 29.47 29.47v17.65c-15.958.766-26.747-10.421-29.978-25.535-1.732-8.105-10.232-8.855-13.533-1.732-6.886 14.859-18.801 28.465-35.845 27.268-1.531-9.814-8.108-17.958-16.985-21.731 1.994-14.325 14.316-25.39 29.181-25.39zm-47.8 38.112h7.559c7.388 0 13.397 6.01 13.397 13.397v15.659c0 7.387-6.01 13.397-13.397 13.397h-7.559zm-150.498-.002h27.028c26.321 0 44.53-18.277 56.576-39.606 7.475 22.853 28.021 38.419 51.893 39.535l.002 65.261c0 82.402-135.5 82.306-135.5 0zm88.728 217.195-9.835 17.49h-22.289l-9.835-17.49 20.979-12.815zm-57.36-58.389v-22.99c21.026 9.155 51.874 9.094 72.76 0v22.99l-36.38 27.393zm49.707 36.135 31.896-24.017 9.4 3.191v46.057zm-103.635-194.939h7.559v42.453h-7.559c-7.387 0-13.397-6.01-13.397-13.397v-15.658c-.001-7.388 6.009-13.398 13.397-13.398zm-107.522-8.641c0-16.25 13.22-29.47 29.47-29.47h37.68c14.876 0 27.207 11.074 29.193 25.408-7.876 3.386-13.92 10.237-16.212 18.622-7.054-4.035-11.138-14.527-13.478-22.445-2.322-7.855-10.322-9.605-13.533-1.732-4.721 11.574-16.37 27.268-29.899 27.268h-23.221zm9.44 69.94.005-37.29h13.775c14.465 0 27.005-9.217 34.345-20.997 4.464 8.871 12.17 15.603 21.559 18.856-.69 9.214 1.583 20.323 8.056 26.975v12.456c0 46.979-77.74 46.979-77.74 0zm58.4 57.498-19.526 26.612-19.524-26.608v-9.788c10.945 3.675 28.106 3.674 39.05-.003zm-5.339 67.056c-7.046 2.412-13.259 6.336-18.343 11.326h-87.428v-33.1c0-7.659 4.871-14.472 12.118-16.954l49.656-16.987 23.763 32.385c4.031 4.084 8.063 4.084 12.094 0l23.763-32.385 49.649 16.987c5.79 1.981 10.055 6.725 11.544 12.453zm70.127-52.921-49.788-17.034v-14.985c13.422-10.523 20.318-27.064 19.34-43.97 4.002.765 8.805.658 12.9.511-1.718 26.746 9.584 53.625 31.37 69.708v14.941c-3.668-4.096-8.37-7.306-13.822-9.171zm10.578 87.238v-46.057l9.401-3.191 31.896 24.017zm33.44 70.196 11.347-40.684h19.674l11.348 40.684zm90.808-56.825v-54.31l60.848 20.813c13.648 4.672 22.818 17.506 22.818 31.934v58.39h-37.072v-23.286c0-4.142-3.357-7.5-7.5-7.5s-7.5 3.358-7.5 7.5v23.286h-64.46l-13.169-47.214 10.199-18.137 24.426 14.924c6.286 3.677 11.036 1.177 11.41-6.4zm45.246-117.643-49.8 17.035c-5.385 1.844-10.037 5.005-13.69 9.029v-14.801c21.998-16.239 32.503-42.875 31.37-69.707 4.062.144 8.803.253 12.78-.49-.974 16.899 5.924 33.433 19.34 43.951zm54.05 2.9-19.525 26.61-19.524-26.609v-9.788c10.945 3.677 28.106 3.675 39.05-.002v9.789zm-15.99-22.17c-20.739 1.463-42.399-12.558-42.399-35.33v-12.33c6.255-6.351 8.683-16.252 8.176-24.96 16.418.831 31.089-7.379 39.94-21 5.754 11.433 16.818 19.198 29.613 20.711v37.579c0 19.482-15.849 35.33-35.33 35.33z"/><path d="m223.718 199.583c4.142 0 7.5-3.358 7.5-7.5v-9.844c0-4.142-3.358-7.5-7.5-7.5s-7.5 3.358-7.5 7.5v9.844c0 4.143 3.358 7.5 7.5 7.5z"/><path d="m288.335 199.583c4.143 0 7.5-3.358 7.5-7.5v-9.844c0-4.142-3.357-7.5-7.5-7.5s-7.5 3.358-7.5 7.5v9.844c0 4.143 3.358 7.5 7.5 7.5z"/><path d="m256.1 259.175c14.507 0 26.309-11.802 26.309-26.309 0-4.142-3.357-7.5-7.5-7.5s-7.5 3.358-7.5 7.5c0 6.236-5.073 11.309-11.309 11.309s-11.309-5.073-11.309-11.309c0-4.142-3.358-7.5-7.5-7.5s-7.5 3.358-7.5 7.5c.001 14.507 11.802 26.309 26.309 26.309z"/></g></g></svg>