<svg id="Capa_1" enable-background="new 0 0 512 512" height="512" viewBox="0 0 512 512" width="512" xmlns="http://www.w3.org/2000/svg"><g><g><path d="m404.141 42.652c2.077-3.314 2.077-7.522 0-10.835-9.152-14.604-25.383-24.317-43.889-24.317s-34.737 9.713-43.889 24.317c-2.077 3.314-2.077 7.522 0 10.835 9.152 14.604 25.383 24.317 43.889 24.317s34.737-9.713 43.889-24.317z" fill="#6dc17d"/><path d="m223.081 85.808v105.081h54.647v-105.081c0-3.413-2.766-6.179-6.179-6.179h-42.289c-3.413 0-6.179 2.766-6.179 6.179z" fill="#5392f9"/><path d="m271.549 79.629h-25.412c3.413 0 6.179 2.766 6.179 6.179v105.081h25.412v-105.081c0-3.413-2.766-6.179-6.179-6.179z" fill="#4071f7"/><path d="m162.879 96.828v45.363c0 3.302-3.396 5.511-6.415 4.174l-122.778-54.401c-3.517-1.558-7.474 1.017-7.474 4.863v243.155c0 3.413 2.766 6.179 6.179 6.179h260.976c3.413 0 6.179-2.766 6.179-6.179v-184.131c0-4.039-2.381-7.699-6.074-9.335l-123.118-54.552c-3.518-1.558-7.475 1.017-7.475 4.864z" fill="#6dc17d"/><path d="m293.472 146.516-22.173-9.825c.508 1.22.802 2.54.802 3.912v199.379c0 3.413-2.766 6.179-6.179 6.179h27.445c3.413 0 6.179-2.766 6.179-6.179v-184.131c0-4.039-2.381-7.699-6.074-9.335z" fill="#5ea570"/><path d="m206.133 206.153v33.451c0 2.439 1.977 4.416 4.416 4.416h41.328c2.439 0 4.416-1.977 4.416-4.416v-33.451c0-2.439-1.977-4.416-4.416-4.416h-41.328c-2.439 0-4.416 1.977-4.416 4.416z" fill="#f7f3f1"/><path d="m69.465 206.153v33.451c0 2.439 1.977 4.416 4.416 4.416h41.328c2.439 0 4.416-1.977 4.416-4.416v-33.451c0-2.439-1.977-4.416-4.416-4.416h-41.328c-2.438 0-4.416 1.977-4.416 4.416z" fill="#f7f3f1"/><path d="m466.443 117.256h-16.969c-3.785 0-6.426 3.782-5.09 7.324 4.297 11.384 6.827 22.697 6.827 29.067 0 16.198-16.354 25.826-36.527 25.826s-36.527-9.628-36.527-25.826c0-6.37 2.531-17.683 6.827-29.067 1.337-3.542-1.304-7.324-5.09-7.324h-16.969c-3.805 0-7.219 2.309-8.673 5.826-6.513 15.754-10.672 32.612-10.672 44.02 0 17.114 8.948 32.778 24.55 42.974 3.137 2.05 6.49 3.857 10.028 5.417 4.172 1.84 6.807 6.035 6.807 10.595v206.781c0 3.636 2.948 6.584 6.584 6.584h46.27c3.636 0 6.584-2.948 6.584-6.584v-206.781c0-4.559 2.635-8.755 6.807-10.595 3.538-1.56 6.891-3.366 10.028-5.417 15.602-10.197 24.55-25.86 24.55-42.974 0-11.408-4.159-28.266-10.672-44.02-1.454-3.517-4.868-5.826-8.673-5.826z" fill="#e9a52d"/><path d="m344.534 266.737-14.553 24.594c-4.899 8.28-13.805 13.358-23.426 13.358h-52.072v101.387h181.517c18.16 0 33.512-13.451 35.898-31.454l12.638-95.338c1.819-13.721-8.858-25.906-22.699-25.906h-93.877c-9.62 0-18.527 5.079-23.426 13.359z" fill="#ffcdbe"/><path d="m461.837 253.378h-26c13.841 0 24.518 12.185 22.699 25.906l-12.638 95.338c-2.386 18.003-17.738 31.454-35.898 31.454h26c18.16 0 33.512-13.451 35.898-31.454l12.638-95.338c1.819-13.721-8.858-25.906-22.699-25.906z" fill="#ebae9d"/><path d="m261.707 292.657v125.451c0 4.272-3.463 7.735-7.735 7.735h-50.411c-4.272 0-7.735-3.463-7.735-7.735v-125.451c0-4.272 3.463-7.735 7.735-7.735h50.411c4.272 0 7.735 3.463 7.735 7.735z" fill="#5392f9"/><path d="m253.973 284.922h-26c4.272 0 7.735 3.463 7.735 7.735v125.451c0 4.272-3.463 7.735-7.735 7.735h26c4.272 0 7.735-3.463 7.735-7.735v-125.451c-.001-4.272-3.463-7.735-7.735-7.735z" fill="#4071f7"/></g><g><path d="m251.877 251.512c6.57 0 11.916-5.345 11.916-11.915v-33.45c0-6.57-5.346-11.916-11.916-11.916h-41.327c-6.57 0-11.916 5.346-11.916 11.916v33.45c0 6.57 5.346 11.915 11.916 11.915zm-38.243-42.281h35.159v27.282h-35.159z"/><path d="m115.215 251.512c6.57 0 11.916-5.345 11.916-11.915v-33.45c0-6.57-5.346-11.916-11.916-11.916h-41.327c-6.57 0-11.916 5.346-11.916 11.916v33.45c0 6.57 5.346 11.915 11.916 11.915zm-38.243-42.281h35.159v27.282h-35.159z"/><path d="m461.833 245.872h-9.939v-19.789c0-1.644.917-3.111 2.334-3.736 3.93-1.732 7.666-3.748 11.11-5.996 17.759-11.612 27.944-29.565 27.944-49.256 0-12.32-4.201-29.847-11.242-46.892-2.632-6.346-8.759-10.446-15.607-10.446h-16.97c-4.242 0-8.217 2.084-10.634 5.575-2.412 3.482-2.963 7.924-1.471 11.896 4.359 11.539 6.346 21.783 6.346 26.418 0 12.587-15.048 18.32-29.029 18.32-13.976 0-29.019-5.733-29.019-18.32 0-4.629 1.983-14.872 6.335-26.414 1.498-3.957.954-8.402-1.453-11.887-2.417-3.498-6.399-5.587-10.652-5.587h-16.959c-6.848 0-12.975 4.1-15.611 10.457-7.037 17.035-11.238 34.561-11.238 46.882 0 19.69 10.185 37.643 27.948 49.259 3.437 2.244 7.174 4.26 11.103 5.992 1.42.626 2.337 2.094 2.337 3.738v19.789h-9.509c-12.213 0-23.664 6.53-29.884 17.04l-14.548 24.589c-3.45 5.829-9.73 9.492-16.476 9.663v-141.322c0-7.012-4.143-13.368-10.541-16.186l-11.278-4.998v-48.854c0-7.543-6.137-13.68-13.68-13.68h-13.65v-6.679c0-11.419 9.29-20.709 20.709-20.709h30.377c.301.647.636 1.282 1.019 1.895 10.923 17.429 29.705 27.834 50.242 27.834 20.538 0 39.321-10.405 50.242-27.833 3.58-5.711 3.58-13.091.001-18.801-10.92-17.429-29.703-27.834-50.241-27.834-20.537 0-39.319 10.405-50.242 27.834-.386.616-.722 1.255-1.025 1.905h-30.372c-19.69 0-35.709 16.019-35.709 35.709v6.679h-13.64c-7.543 0-13.679 6.137-13.679 13.68v17.99l-42.2-18.701c-3.978-1.757-8.53-1.387-12.176.989-3.645 2.375-5.822 6.391-5.822 10.742v40.857l-118.665-52.591c-3.983-1.754-8.541-1.382-12.186.997-3.641 2.376-5.815 6.389-5.815 10.737v49.139c0 4.142 3.357 7.5 7.5 7.5s7.5-3.358 7.5-7.5v-45.796l119.724 53.06c3.75 1.651 8.036 1.3 11.466-.938 3.429-2.236 5.475-6.014 5.475-10.105v-42.012l120.062 53.205c.974.429 1.603 1.397 1.603 2.466v141.334h-22.842v-4.533c0-8.4-6.834-15.234-15.234-15.234h-50.41c-8.4 0-15.234 6.834-15.234 15.234v46.002h-154.611v-157.685c0-4.142-3.357-7.5-7.5-7.5s-7.5 3.358-7.5 7.5v159.005c0 7.543 6.137 13.68 13.679 13.68h155.932v64.446c0 8.4 6.834 15.234 15.234 15.234h50.41c8.4 0 15.234-6.834 15.234-15.234v-4.528h32.512c4.142 0 7.5-3.358 7.5-7.5s-3.357-7.5-7.5-7.5h-32.512v-86.387h37.351c12.207 0 23.654-6.529 29.875-17.04l14.549-24.589c3.532-5.971 10.037-9.679 16.974-9.679h93.877c4.433 0 8.652 1.912 11.575 5.245 2.925 3.336 4.269 7.773 3.69 12.169l-.981 7.397h-32.045c-4.142 0-7.5 3.358-7.5 7.5s3.357 7.5 7.5 7.5h30.056l-3.13 23.609h-34.142c-4.142 0-7.5 3.358-7.5 7.5s3.357 7.5 7.5 7.5h32.153l-3.13 23.609h-36.229c-4.142 0-7.5 3.358-7.5 7.5s3.357 7.5 7.5 7.5h33.896c-3.529 12.039-14.693 20.668-27.554 20.668h-99.277c-4.142 0-7.5 3.358-7.5 7.5s3.357 7.5 7.5 7.5h40.749v19.289c0 7.763 6.316 14.08 14.08 14.08h46.269c7.763 0 14.08-6.316 14.08-14.08v-22.311c14.422-5.677 25.295-18.836 27.434-34.951l12.64-95.342c1.145-8.683-1.509-17.44-7.281-24.024-5.768-6.583-14.098-10.358-22.852-10.358zm-101.584-230.872c15.34 0 29.371 7.775 37.533 20.799.546.872.545 1.998 0 2.87-8.161 13.024-22.192 20.8-37.532 20.8-12.773 0-24.625-5.406-32.951-14.729h41.878c4.142 0 7.5-3.358 7.5-7.5s-3.357-7.5-7.5-7.5h-41.887c8.324-9.331 20.181-14.74 32.959-14.74zm-129.668 72.127h39.649v40.887l-39.649-17.57zm23.626 330.967c0 .129-.105.235-.234.235h-50.41c-.129 0-.234-.105-.234-.235 0-25.158 0-100.324 0-125.447 0-.129.105-.234.234-.234h50.41c.129 0 .234.105.234.234zm126.974-209.474c-3.187-1.404-6.2-3.028-8.95-4.824-13.444-8.79-21.154-22.167-21.154-36.701 0-10.301 3.871-26.071 10.097-41.145.301-.725.988-1.194 1.752-1.194h14.001c-3.895 11.009-6.27 21.875-6.27 28.889 0 19.618 18.101 33.319 44.018 33.319 25.924 0 44.029-13.701 44.029-33.319 0-7.026-2.379-17.895-6.277-28.889h14.007c.764 0 1.451.469 1.748 1.184 6.23 15.084 10.101 30.854 10.101 41.155 0 14.534-7.711 27.911-21.149 36.698-2.758 1.8-5.77 3.424-8.958 4.829-6.853 3.024-11.282 9.878-11.282 17.461v19.789h-44.429v-19.789c0-7.584-4.428-14.438-11.284-17.463zm55.714 223.316h-44.429v-18.37s44.129-.015 44.429-.021z"/><path d="m320.087 450.321c-1.304-5.517-6.285-9.169-11.833-8.686l-26.359 2.301c-4.126.36-7.179 3.997-6.819 8.124s4.006 7.177 8.124 6.819l14.855-1.297c-12.543 17.519-30.107 30.09-50.53 35.924-23.629 6.75-48.552 3.631-70.173-8.786-33.783-19.392-53.342-58.043-49.827-98.465.359-4.126-2.695-7.762-6.822-8.121-4.117-.364-7.761 2.696-8.121 6.822-4.019 46.219 18.473 90.485 57.301 112.772 16.458 9.453 34.572 14.273 52.85 14.272 9.665 0 19.377-1.348 28.911-4.072 22.999-6.57 42.849-20.45 57.255-39.756l3.017 12.735c.956 4.033 4.998 6.523 9.026 5.569 4.031-.955 6.524-4.996 5.569-9.027z"/></g></g></svg>