<svg id="Capa_1" enable-background="new 0 0 512 512" height="512" viewBox="0 0 512 512" width="512" xmlns="http://www.w3.org/2000/svg"><g><path d="m287.062 473.459-31.062-31.062-31.062 31.062v-93.642h62.124z" fill="#fe646f"/><path d="m7.502 38.588h496.996v341.685h-496.996z" fill="#ffe177"/><path d="m7.5 38.591h31.06v341.68h-31.06z" fill="#ffd15b"/><path d="m442.373 100.712v-31.062h-372.747v31.062h-31.062v217.436h31.062v31.062h372.747v-31.062h31.063v-217.436z" fill="#eaf6ff"/><circle cx="256" cy="333.679" fill="#f7ba4d" r="77.676"/><path d="m281 407.241c-7.84 2.66-16.25 4.11-25 4.11-42.9 0-77.68-34.77-77.68-77.67s34.78-77.68 77.68-77.68c8.75 0 17.16 1.45 25 4.11-15.76 5.35-29.24 15.63-38.62 28.99-8.86 12.63-14.06 27.99-14.06 44.58 0 16.33 5.04 31.47 13.64 43.97 9.4 13.66 23.05 24.16 39.04 29.59z" fill="#ffab15"/><circle cx="256" cy="333.441" fill="#ffe177" r="46.375"/><path d="m228.32 333.681c0 16.33 5.04 31.47 13.64 43.97-18.75-5.95-32.34-23.49-32.34-44.21 0-20.87 13.79-38.53 32.76-44.34-8.86 12.63-14.06 27.99-14.06 44.58z" fill="#ffd15b"/><path d="m131.751 131.651h248.498v31.062h-248.498z" fill="#8ac9fe"/><g><path d="m504.5 31.091h-232.16c-4.143 0-7.5 3.357-7.5 7.5s3.357 7.5 7.5 7.5h224.66v326.68h-165.36c2.636-5.078 4.772-10.451 6.35-16.06h104.38c4.143 0 7.5-3.357 7.5-7.5v-23.56h23.57c4.143 0 7.5-3.357 7.5-7.5v-217.44c0-4.143-3.357-7.5-7.5-7.5h-23.57v-23.56c0-4.143-3.357-7.5-7.5-7.5h-372.74c-4.143 0-7.5 3.357-7.5 7.5v23.56h-23.57c-4.143 0-7.5 3.357-7.5 7.5v107.91c0 4.143 3.357 7.5 7.5 7.5s7.5-3.357 7.5-7.5v-100.41h23.57c4.143 0 7.5-3.357 7.5-7.5v-23.56h357.74v23.56c0 4.143 3.357 7.5 7.5 7.5h23.57v202.44h-23.57c-4.143 0-7.5 3.357-7.5 7.5v23.56h-94.08c1.53-16.271-2.255-34.685-10.053-48.906-1.992-3.631-6.549-4.96-10.183-2.97-3.632 1.992-4.961 6.551-2.97 10.183 5.623 10.254 8.596 21.895 8.596 33.663 0 38.691-31.482 70.17-70.18 70.17s-70.18-31.479-70.18-70.17c0-38.697 31.482-70.18 70.18-70.18 15.366 0 29.961 4.879 42.205 14.109 3.307 2.492 8.01 1.834 10.504-1.475 2.493-3.308 1.833-8.01-1.475-10.504-14.867-11.207-32.584-17.131-51.234-17.131-49.197 0-89.387 44.335-84.79 93.21h-94.08v-23.56c0-4.143-3.357-7.5-7.5-7.5h-23.57v-69.351c0-4.143-3.357-7.5-7.5-7.5s-7.5 3.357-7.5 7.5v76.851c0 4.143 3.357 7.5 7.5 7.5h23.57v23.56c0 4.143 3.357 7.5 7.5 7.5h104.38c1.578 5.608 3.714 10.981 6.35 16.06h-165.36v-326.679h224.66c4.143 0 7.5-3.357 7.5-7.5s-3.357-7.5-7.5-7.5h-232.16c-4.143 0-7.5 3.357-7.5 7.5v341.68c0 4.143 3.357 7.5 7.5 7.5h182.752c7.432 9.016 16.691 16.462 27.188 21.815v63.875c-.316 7.434 8.56 9.5 12.804 5.304l25.756-25.757 25.756 25.757c4.29 4.287 12.804 1.894 12.804-5.304v-63.875c10.498-5.353 19.756-12.8 27.188-21.815h182.752c4.143 0 7.5-3.357 7.5-7.5v-341.68c0-4.142-3.357-7.5-7.5-7.5zm-224.94 424.264-18.256-18.257c-2.93-2.928-7.678-2.928-10.607 0l-18.256 18.257v-39.844c7.488 2.159 15.386 3.34 23.56 3.34s16.072-1.181 23.56-3.34v39.844z"/><path d="m256 279.566c-29.707 0-53.876 24.168-53.876 53.875s24.169 53.876 53.876 53.876 53.876-24.169 53.876-53.876-24.169-53.875-53.876-53.875zm0 92.751c-21.437 0-38.876-17.439-38.876-38.876 0-21.436 17.439-38.875 38.876-38.875s38.876 17.439 38.876 38.875-17.439 38.876-38.876 38.876z"/><path d="m380.249 124.154h-248.498c-4.143 0-7.5 3.357-7.5 7.5v31.062c0 4.143 3.357 7.5 7.5 7.5h248.498c4.143 0 7.5-3.357 7.5-7.5v-31.062c0-4.143-3.357-7.5-7.5-7.5zm-7.5 31.061h-233.498v-16.062h233.498z"/><path d="m93.188 193.899c0 4.143 3.357 7.5 7.5 7.5h124.249c4.143 0 7.5-3.357 7.5-7.5s-3.357-7.5-7.5-7.5h-124.249c-4.142 0-7.5 3.357-7.5 7.5z"/><path d="m418.812 194.019c0-4.143-3.357-7.5-7.5-7.5h-124.249c-4.143 0-7.5 3.357-7.5 7.5s3.357 7.5 7.5 7.5h124.249c4.142 0 7.5-3.357 7.5-7.5z"/><path d="m193.876 217.461c-4.143 0-7.5 3.357-7.5 7.5s3.357 7.5 7.5 7.5h124.248c4.143 0 7.5-3.357 7.5-7.5s-3.357-7.5-7.5-7.5z"/></g><path d="m256 201.399c-4.142 0-7.5-3.358-7.5-7.5 0-4.142 3.358-7.5 7.5-7.5 4.142 0 7.5 3.358 7.5 7.5 0 4.142-3.358 7.5-7.5 7.5z"/><path d="m38.564 77.15c-4.142 0-7.5-3.358-7.5-7.5 0-4.142 3.358-7.5 7.5-7.5 4.142 0 7.5 3.358 7.5 7.5 0 4.142-3.358 7.5-7.5 7.5z"/><path d="m473.436 77.15c-4.142 0-7.5-3.358-7.5-7.5 0-4.142 3.358-7.5 7.5-7.5 4.142 0 7.5 3.358 7.5 7.5 0 4.142-3.358 7.5-7.5 7.5z"/><path d="m38.564 356.71c-4.142 0-7.5-3.358-7.5-7.5 0-4.142 3.358-7.5 7.5-7.5 4.142 0 7.5 3.358 7.5 7.5 0 4.142-3.358 7.5-7.5 7.5z"/><path d="m473.436 356.71c-4.142 0-7.5-3.358-7.5-7.5 0-4.142 3.358-7.5 7.5-7.5 4.142 0 7.5 3.358 7.5 7.5 0 4.142-3.358 7.5-7.5 7.5z"/></g></svg>