<svg id="Capa_9" data-name="Capa 9" xmlns="http://www.w3.org/2000/svg" viewBox="0 0 1080 1080"><defs><style>.cls-1{fill:#dc0032;}</style></defs><title>paleta de colores</title><path class="cls-1" d="M218.11,366.14c-25.67,4.9-42.7,20.09-50.05,44.32-8,26.52-.68,50.09,17.34,68.88-4.52,5.22-9.06,10.79-13.92,16.06-17.89,19.41-27.24,42.75-30.73,68.47-6.17,45.53,7.09,86.85,28.64,126.16,4.09,7.46,8.8,14.58,13.29,22-.36,0-.85,0-1.16-.15-26.16-16.4-52.81-32.09-78.33-49.44-35.41-24.08-53.75-58.35-58.23-101-5.68-53.95,14.24-97.94,50.39-136,23.65-24.89,51.38-43.76,84.46-54.07A108.41,108.41,0,0,1,218.11,366.14Z"/><path class="cls-1" d="M841.27,627.71H691.16c6.06,21.35,18.06,37.17,38.13,45.21,25.33,10.15,47.92,4.14,67.41-15l23.09,24.83c-1.53,1.7-2.82,3.28-4.26,4.71-36.71,36.29-97.46,34.32-133.67-6.53-35.27-39.77-35.34-108.54,4.66-147.11,12.52-12.07,25.85-22.29,43.27-25.78,45.27-9.07,86.3,14,103.92,58C841.56,585.77,842.34,606.19,841.27,627.71Zm-149.36-35.9H808c-6.65-32.59-33.15-54-63.69-52C717.35,541.62,696.19,562,691.91,591.81Z"/><path class="cls-1" d="M852.87,640.55h31.86c.17,1.47.31,2.71.46,4,1.67,13.81,9.32,23,22,28.06,12.35,5,25.31,5.87,38.42,5.4,14-.5,28-1.83,41-7.56a38.8,38.8,0,0,0,10.5-6.68c9.76-9,7.69-23.28-4.09-29.34-9.67-5-20.29-6-30.91-6.63-14.61-.83-29.32-.61-43.83-2.21a87.53,87.53,0,0,1-25.88-7.12c-23-10.28-33.27-29.07-32.27-53.83,1-24.43,14.27-40.94,36.5-49.18,30.21-11.2,61-11,90.92,1.43,18.12,7.55,31.07,20.45,35.17,40.58.25,1.25.38,2.54.51,3.82.22,2.22.39,4.44.62,7.07H991.23c-1.51-11.2-9.7-16.4-19.25-19.83a94.89,94.89,0,0,0-59.26-1.82,38.24,38.24,0,0,0-13.47,7.19c-9.46,7.79-8.52,22.54,1.53,29.61,9.65,6.8,21,7.81,32.24,8.42,12.69.69,25.44.42,38.1,1.38,14.7,1.11,28.93,4.52,41.67,12.43,15,9.31,22.17,23.06,23.1,40.55,1.69,31.49-17.22,49.51-36.92,57C965.43,716,931,718.15,897,705.77c-27.16-9.91-42.55-30.2-44.63-59.65a33.31,33.31,0,0,1,0-3.87A9.47,9.47,0,0,1,852.87,640.55Z"/><path class="cls-1" d="M301.1,713.26H268.83a22.4,22.4,0,0,1-.52-3.34c0-35.77-.8-71.56.41-107.29,1.59-47.17,39.39-87.18,79.91-93.08,37.4-5.44,67.21,7.64,90.27,37.08,14.31,18.28,21.21,39.26,21.41,62.3.28,33,0,66.05.18,99.08,0,4.61-1.44,5.71-5.76,5.57-9-.3-18-.09-27.62-.09v-6c0-32.55.31-65.1-.1-97.63-.32-25.5-11.77-45.37-33.77-58.16-29.17-16.95-65.76-5.42-83.33,25.49a64.26,64.26,0,0,0-8.66,31.78c-.18,32.71-.12,65.41-.15,98.12Z"/><path class="cls-1" d="M617.53,658.32l23,24.79C624.07,701,604.4,711,580.4,713.06c-56.15,4.82-94.95-42.1-101.13-82.61-4.78-31.3.73-60.09,20.36-85.67,37.65-49,104.9-47.64,140.76-7.35,3.83,4.31,7.87,8.43,12.1,12.94l-23.68,25.41c-4.06-4.48-7.7-8.93-11.79-12.92-10.24-10-22-17.41-36.48-19.26-20.32-2.59-37.24,4.33-51.33,18.94-33.56,34.81-20.34,96.73,24.22,112.05,22.26,7.65,42.46,3.09,60.12-12.51C614.74,661,615.87,659.9,617.53,658.32Z"/><path class="cls-1" d="M214.71,497.25c10.86,4.48,21.37,4.39,32.22,0V713.16H214.71Z"/><path class="cls-1" d="M196,430.61c0-22,16.09-38.43,37-37.55,10.24.43,18.41,5.25,24.71,13.18a40.07,40.07,0,0,1-.43,49.55c-9.18,11.15-23.64,15.5-36.88,11.09S196.59,448.49,196,434.47C196,433.18,196,431.9,196,430.61Z"/></svg>