<svg version="1.2" baseProfile="tiny-ps" xmlns="http://www.w3.org/2000/svg" viewBox="0 0 320 78" width="320" height="78">
	<title>LOGOS Y ELEMENTOS-02-svg</title>
	<style>
		tspan { white-space:pre }
		.shp0 { fill: #00aeef } 
		.shp1 { fill: #763f98 } 
		.shp2 { fill: #f2ab33 } 
		.shp3 { fill: #1b66ab } 
		.shp4 { fill: #ffffff } 
		.shp5 { fill: #be2c31 } 
	</style>
	<g id="Layer">
		<g id="Layer">
			<g id="Layer">
				<g id="Layer">
					<path id="Layer" fill-rule="evenodd" class="shp0" d="M89.26 29.91C86.42 29.91 84.67 28.7 83.41 27.29L83.41 37.21L78.09 37.21L78.09 12.05L83.41 12.05L83.41 14.57C84.7 12.93 86.49 11.72 89.26 11.72C93.64 11.72 97.8 14.93 97.8 20.78L97.8 20.85C97.8 26.7 93.7 29.91 89.26 29.91ZM92.48 20.78C92.48 17.87 90.38 15.94 87.89 15.94C85.4 15.94 83.34 17.87 83.34 20.78L83.34 20.85C83.34 23.76 85.41 25.69 87.89 25.69C90.37 25.69 92.48 23.79 92.48 20.85L92.48 20.78Z" />
					<path id="Layer" class="shp0" d="M71.01 29.46L71.01 19.68C71.01 17.32 69.89 16.11 67.89 16.11C65.89 16.11 64.67 17.32 64.67 19.68L64.67 29.46L59.35 29.46L59.35 19.68C59.35 17.32 58.23 16.11 56.24 16.11C54.24 16.11 53.02 17.32 53.02 19.68L53.02 29.46L47.7 29.46L47.7 11.93L53.02 11.93L53.02 14.42C54.25 12.95 55.86 11.61 58.55 11.61C61 11.61 62.86 12.63 63.84 14.39C65.49 12.59 67.45 11.61 70 11.61C73.96 11.61 76.34 13.84 76.34 18.06L76.34 29.48L71.01 29.48L71.01 29.46Z" />
					<path id="Layer" class="shp0" d="M111.24 29.46L111.24 26.97C110.01 28.44 108.44 29.78 105.74 29.78C101.71 29.78 99.37 27.29 99.37 23.27L99.37 11.93L104.69 11.93L104.69 21.71C104.69 24.07 105.88 25.28 107.91 25.28C109.94 25.28 111.23 24.07 111.23 21.71L111.23 11.93L116.55 11.93L116.55 29.46L111.24 29.46L111.24 29.46Z" />
					<path id="Layer" class="shp0" d="M126.17 29.84C123.54 29.84 120.6 29.02 118.12 27.19L120.39 23.92C122.42 25.29 124.56 26.01 126.31 26.01C127.85 26.01 128.55 25.49 128.55 24.7L128.55 24.63C128.55 23.55 126.73 23.19 124.66 22.6C122.04 21.88 119.06 20.74 119.06 17.33L119.06 17.26C119.06 13.7 122.14 11.7 125.92 11.7C128.3 11.7 130.89 12.45 132.92 13.73L130.89 17.16C129.03 16.15 127.18 15.52 125.81 15.52C124.52 15.52 123.85 16.04 123.85 16.73L123.85 16.79C123.85 17.77 125.64 18.23 127.66 18.88C130.29 19.7 133.33 20.88 133.33 24.08L133.33 24.15C133.34 28.07 130.23 29.84 126.17 29.84Z" />
					<path id="Layer" class="shp0" d="M22.6 11.89C21.27 11.1 20.19 10.84 18.53 10.84C14.4 10.84 11.42 14.05 11.42 17.97L11.42 18.04C11.42 21.96 14.33 25.24 18.53 25.24C21.33 25.24 23.05 24.19 24.97 22.56L28.4 25.8C25.88 28.32 23.08 29.89 18.35 29.89C11.14 29.89 5.78 24.69 5.78 18.11L5.78 18.05C5.78 11.54 11.03 6.21 18.56 6.21C23.18 6.21 25.95 7.65 28.22 9.74C25.55 10.41 22.6 11.89 22.6 11.89Z" />
					<path id="Layer" fill-rule="evenodd" class="shp0" d="M40.8 27.59C39.5 28.93 37.72 29.81 35.13 29.81C31.6 29.81 28.69 27.91 28.69 24.45L28.69 24.39C28.69 20.56 31.8 18.8 36.25 18.8C38.14 18.8 39.51 19.09 40.84 19.52L40.84 19.23C40.84 17.17 39.47 16.02 36.81 16.02C34.78 16.02 33.35 16.38 31.63 16.97L30.3 13.18C32.37 12.33 34.4 11.77 37.58 11.77C43.39 11.77 45.94 14.58 45.94 19.33L45.94 29.5L40.8 29.5L40.8 27.59ZM40.9 22.42C39.99 22.03 38.8 21.76 37.5 21.76C35.22 21.76 33.83 22.61 33.83 24.18L33.83 24.25C33.83 25.59 35.02 26.38 36.73 26.38C39.21 26.38 40.9 25.1 40.9 23.3L40.9 22.42Z" />
					<path id="Layer" class="shp0" d="M24.78 22.71C24.78 22.71 28.03 19.23 34.61 18.88C39.9 18.6 30.21 24.54 30.21 24.54C30.21 24.54 29.07 25.26 27.94 26.24" />
					<path id="Layer" class="shp0" d="M54.65 41.85L54.65 58.88L59.98 56.48L59.98 41.84C59.97 41.85 57.53 43.28 54.65 41.85Z" />
					<path id="Layer" class="shp1" d="M73.41 43.08C69.87 43.08 67.7 45.7 67.7 49.88L67.7 56.36L62.38 56.36L62.38 38.83L67.7 38.83L67.7 42.36C68.79 39.94 70.54 38.71 73.69 38.85L73.69 43.08L73.41 43.08Z" />
					<path id="Layer" class="shp1" d="M83.55 56.65C80.29 56.65 78.09 55.44 78.09 51.38L78.09 43.07L75.85 43.07L75.85 38.82L78.09 38.82L78.09 33.02L83.41 33.02L83.41 38.82L91.05 38.82L91.05 43.07L83.41 43.07L83.41 50.56C83.41 51.7 83.93 52.26 85.12 52.26C86.1 52.26 86.98 52.03 87.75 51.64L87.75 55.63C86.63 56.26 85.34 56.65 83.55 56.65Z" />
					<path id="Layer" class="shp1" d="M101.87 56.36L101.87 53.87C100.64 55.34 99.07 56.68 96.37 56.68C92.34 56.68 90 54.19 90 50.17L90 38.82L95.32 38.82L95.32 48.6C95.32 50.95 96.51 52.16 98.54 52.16C100.57 52.16 101.86 50.95 101.86 48.6L101.86 38.82L107.18 38.82L107.18 56.35L101.87 56.35L101.87 56.36Z" />
					<path id="Layer" fill-rule="evenodd" class="shp1" d="M121.09 56.36L121.09 54.46C119.8 55.8 118.01 56.68 115.42 56.68C111.89 56.68 108.98 54.78 108.98 51.32L108.98 51.25C108.98 47.42 112.1 45.66 116.54 45.66C118.43 45.66 119.8 45.96 121.13 46.38L121.13 46.09C121.13 44.03 119.77 42.88 117.1 42.88C115.07 42.88 113.63 43.24 111.92 43.83L110.59 40.04C112.65 39.19 114.68 38.63 117.87 38.63C123.68 38.63 126.24 41.44 126.24 46.19L126.24 56.36L121.09 56.36ZM117.79 48.64C115.51 48.64 114.11 49.49 114.11 51.06L114.11 51.13C114.11 52.47 115.3 53.26 117.02 53.26C119.51 53.26 121.19 51.98 121.19 50.19L121.19 49.29C120.28 48.9 119.09 48.64 117.79 48.64Z" />
					<path id="Layer" class="shp1" d="M128.02 34.53L128.02 56.36L133.34 56.36L133.34 33.03C133.34 33.03 130.68 34.59 128.02 34.53Z" />
					<path id="Layer" class="shp0" d="M60.51 37.08C60.51 38.73 59.08 40.06 57.32 40.06C55.56 40.06 54.13 38.72 54.13 37.08C54.13 35.43 55.56 34.1 57.32 34.1C59.08 34.09 60.51 35.43 60.51 37.08Z" />
					<path id="Layer" class="shp1" d="M39.74 34.11L49.5 50.11L44.04 52.81L54.65 61.77L54.65 58.86L59.98 56.47L59.98 72.89L34.21 52.03L42.31 48.03L35.09 36.33C35.08 36.32 38.18 36.04 39.74 34.11Z" />
				</g>
				<path id="Layer" class="shp1" d="M151.39 11.72L152.81 11.72L152.81 56.24L151.39 56.24L151.39 11.72Z" />
				<g id="Layer">
					<path id="Layer" class="shp2" d="M189.35 15.33C183.57 18.51 177.33 24.01 175.4 32.26C173.22 41.57 177.19 47.85 185.03 53.55L181.71 51.74C174.38 47.85 170.47 42.96 170.5 34.07C170.54 22.03 185.52 10.84 195.9 11.72C191.53 11.9 189.35 15.33 189.35 15.33Z" />
					<path id="Layer" class="shp3" d="M188.27 22.6C169.74 37.86 187.46 55.02 187.46 55.02C182.12 51.98 177.99 48.17 176.04 43.32C172.22 33.81 177.72 21.32 189.36 15.33C186.77 18.6 188.27 22.6 188.27 22.6Z" />
					<path id="Layer" class="shp4" d="M177.92 30.81L178.44 31.27L179.13 31.12L178.82 31.74L179.18 32.33L178.49 32.26L178.02 32.76L177.89 32.09L177.25 31.82L177.85 31.48L177.92 30.81Z" />
					<path id="Layer" class="shp4" d="M179.26 27.11L180 27.47L180.74 27.08L180.61 27.89L181.21 28.45L180.39 28.58L180.03 29.31L179.65 28.59L178.82 28.49L179.41 27.91L179.26 27.11Z" />
					<path id="Layer" class="shp4" d="M180.81 24.71L181.57 24.2L181.57 23.29L182.31 23.84L183.21 23.57L182.89 24.42L183.43 25.15L182.51 25.12L181.96 25.86L181.7 24.99L180.81 24.71Z" />
					<path id="Layer" class="shp4" d="M183.71 21.57L184.63 20.97L184.63 19.9L185.5 20.56L186.55 20.24L186.18 21.24L186.81 22.12L185.71 22.09L185.06 22.95L184.76 21.9L183.71 21.57Z" />
					<path id="Layer" class="shp4" d="M177.73 34.68L177.92 35.23L178.49 35.4L178 35.74L178.01 36.34L177.52 35.99L176.95 36.18L177.15 35.63L176.78 35.14L177.39 35.15L177.73 34.68Z" />
					<path id="Layer" class="shp4" d="M177.06 38.52L177.54 38.85L178.11 38.66L177.93 39.21L178.3 39.67L177.7 39.67L177.36 40.16L177.17 39.61L176.61 39.45L177.08 39.1L177.06 38.52Z" />
					<path id="Layer" class="shp4" d="M177.95 42.37L178.33 42.71L178.82 42.61L178.6 43.06L178.87 43.49L178.36 43.43L178.01 43.8L177.92 43.31L177.45 43.11L177.9 42.87L177.95 42.37Z" />
					<path id="Layer" class="shp4" d="M179.42 45.53L179.67 45.91L180.12 45.93L179.83 46.26L179.94 46.7L179.53 46.53L179.15 46.78L179.18 46.34L178.82 46.06L179.26 45.95L179.42 45.53Z" />
					<path id="Layer" class="shp5" d="M191.05 26.53C189.11 27.91 187.34 29.65 186.18 31.84C179.74 43.93 190.61 56.75 190.61 56.75L187.47 55.02C187.47 55.02 174.96 45 181.65 30.32C183.22 26.88 185.08 24.67 188.28 22.6C189.25 25.48 191.05 26.53 191.05 26.53Z" />
					<path id="Layer" class="shp5" d="M202.25 20.08C202.25 22.78 200 24.99 197.23 24.99C194.45 24.99 192.19 22.79 192.19 20.08C192.19 17.37 194.44 15.16 197.23 15.16C200 15.16 202.25 17.36 202.25 20.08Z" />
					<path id="Layer" class="shp5" d="M216.26 30.11C212.47 30.11 209.23 31.42 206.53 34.06C203.86 36.68 202.52 39.83 202.52 43.53L202.52 56.69L207.27 56.69L207.27 43.53C207.27 41.1 208.15 39.03 209.92 37.33C211.67 35.63 213.78 34.78 216.26 34.78C218.74 34.78 220.86 35.63 222.62 37.33C224.38 39.04 225.24 41.11 225.24 43.53L225.24 56.69L230.02 56.69L230.02 43.53C230.02 39.83 228.68 36.67 225.98 34.06C223.3 31.42 220.05 30.11 216.26 30.11Z" />
					<path id="Layer" class="shp5" d="M246.1 34.63C250.94 34.6 254 38.92 254 38.92L257.45 35.57L255.75 33.92C253.1 31.33 249.87 30.02 246.1 30.02C242.34 30.02 239.13 31.33 236.45 33.94C233.77 36.55 232.44 39.69 232.44 43.37C232.44 47.02 233.77 50.17 236.45 52.76C239.13 55.38 242.34 56.69 246.1 56.69C249.88 56.69 253.1 55.38 255.75 52.76L252.43 49.52C250.68 51.22 248.57 52.08 246.1 52.08C243.63 52.08 241.54 51.22 239.79 49.52C238.04 47.82 237.16 45.77 237.16 43.37C237.16 40.96 238.04 38.89 239.79 37.2C241.54 35.49 243.63 34.64 246.1 34.63Z" />
					<path id="Layer" fill-rule="evenodd" class="shp5" d="M280.46 33.48C283.14 36.11 284.48 39.57 284.48 43.26L284.48 45.58L262.96 45.58C263.51 47.47 264.58 49.01 266.16 50.22C267.78 51.42 269.6 52.03 271.64 52.03C274.13 52.03 276.24 51.18 278.01 49.47L281.37 52.74C278.7 55.37 275.45 56.69 271.64 56.69C267.86 56.69 264.62 55.37 261.92 52.74C259.22 50.12 257.88 46.95 257.88 43.26C257.88 39.57 259.22 36.4 261.92 33.78C264.62 31.15 267.24 29.84 271.04 29.84C274.83 29.84 277.76 30.85 280.46 33.48ZM262.97 40.95L279.73 40.95C279.18 39.06 278.11 37.23 276.53 36.02C274.92 34.81 273.09 34.21 271.05 34.21C269.01 34.21 267.48 34.81 265.85 36.02C264.27 37.22 263.52 39.06 262.97 40.95Z" />
					<path id="Layer" class="shp5" d="M300.64 40.95L298.54 40.95C295.48 40.95 293.44 40.46 292.44 39.48C292.01 39.06 291.79 38.48 291.79 37.75C291.79 37.14 292 36.64 292.41 36.23C293.53 35.17 295.55 34.63 298.51 34.63C300.45 34.65 302.1 34.93 303.45 35.46C305 36.09 305.77 36.92 305.77 37.96L310.5 37.96C310.5 35.57 309.41 33.64 307.26 32.21C305.09 30.77 302.18 30.05 298.54 30.02C294.2 30.09 291.05 31.06 289.08 32.96C287.76 34.27 287.08 35.86 287.07 37.72C287.07 39.73 287.74 41.39 289.08 42.73C291.02 44.61 294.2 45.55 298.64 45.55L300.5 45.55C303.54 45.63 305.57 46.02 306.62 46.75C307.21 47.16 307.52 47.73 307.52 48.48C307.52 49.92 306.28 50.94 303.8 51.54C302.31 51.91 300.55 52.08 298.53 52.08C296.32 52.08 294.56 51.76 293.26 51.15C291.53 50.33 290.67 49 290.67 47.17L285.94 47.17C285.94 50.1 287.07 52.42 289.33 54.12C291.58 55.83 294.65 56.68 298.53 56.68C303.91 56.68 307.73 55.62 310.03 53.51C311.5 52.13 312.24 50.46 312.24 48.47C312.24 43.66 308.37 41.15 300.64 40.95Z" />
					<path id="Layer" class="shp5" d="M199.6 28.62L199.6 56.69L194.84 56.69L194.84 28.62C194.84 28.62 196.99 29.73 199.6 28.62Z" />
				</g>
			</g>
		</g>
	</g>
</svg>