<svg version="1.2" baseProfile="tiny-ps" xmlns="http://www.w3.org/2000/svg" viewBox="0 0 612 58" width="612" height="58">
	<title>cintillo-svg</title>
	<style>
		tspan { white-space:pre }
		.shp0 { fill: #d49b37 } 
		.shp1 { fill: #1c7e9e } 
		.shp2 { fill: #5c9b48 } 
		.shp3 { fill: #c8953a } 
		.shp4 { fill: #d36f50 } 
		.shp5 { fill: #f8faf7 } 
		.shp6 { fill: #4bc2c8 } 
		.shp7 { fill: #0a79a2 } 
		.shp8 { fill: #5eba4d } 
		.shp9 { fill: #faac23 } 
		.shp10 { fill: #f36c3b } 
		.shp11 { fill: #e7e8e6 } 
		.shp12 { fill: #04b2be } 
		.shp13 { fill: #ffffff } 
		.shp14 { fill: #f2f2f2 } 
		.shp15 { fill: #808184 } 
		.shp16 { fill: #59595d } 
		.shp17 { fill: #121113 } 
		.shp18 { fill: #e53333 } 
		.shp19 { fill: #e9e649 } 
		.shp20 { fill: #2a579f } 
		.shp21 { fill: #ebe84a } 
	</style>
	<g id="Layer">
		<g id="Layer" style="opacity: 0.322">
			<g id="Layer">
				<path id="Layer" class="shp0" d="M610.2 -30.7L610.2 -286.2L479.8 -161.1L610.2 -30.7Z" />
				<path id="Layer" class="shp1" d="M610.2 -102.7L610.2 -358.2L479.8 -233.1L610.2 -102.7Z" />
				<path id="Layer" class="shp2" d="M610.2 -191.8L610.2 -447.3L479.8 -322.2L610.2 -191.8Z" />
				<path id="Layer" class="shp3" d="M610.2 -228.9L610.2 -484.4L479.8 -359.3L610.2 -228.9Z" />
				<path id="Layer" class="shp4" d="M610.2 -277.4L610.2 -532.9L479.8 -407.8L610.2 -277.4Z" />
				<path id="Layer" class="shp0" d="M610.2 -346.5L610.2 -602L479.8 -476.9L610.2 -346.5Z" />
				<path id="Layer" class="shp5" d="M611 -360.6L611 -616.1L480.6 -491L611 -360.6Z" />
				<path id="Layer" class="shp6" d="M610.2 -431.1L610.2 -686.6L479.8 -561.6L610.2 -431.1Z" />
				<path id="Layer" class="shp1" d="M610.2 -520.4L610.2 -599.9L530.8 -599.9L610.2 -520.4Z" />
				<path id="Layer" class="shp7" d="M611.4 -101.5L740.6 -230.4L740.7 -230.4L740.7 -230.4L740.7 -230.4L740.6 -230.4L611.4 -359.4L610.2 -358.2L610.2 -102.7L611.4 -101.5Z" />
				<path id="Layer" class="shp8" d="M611.4 -190.6L740.6 -319.5L740.7 -319.5L740.7 -319.5L740.7 -319.5L740.6 -319.5L611.4 -448.4L610.2 -447.3L610.2 -191.8L611.4 -190.6Z" />
				<path id="Layer" class="shp9" d="M611.4 -227.7L740.6 -356.6L740.7 -356.6L740.7 -356.6L740.7 -356.6L740.6 -356.6L611.4 -485.6L610.2 -484.4L610.2 -228.9L611.4 -227.7Z" />
				<path id="Layer" class="shp10" d="M611.4 -276.2L740.6 -405.1L740.7 -405.1L740.7 -405.1L740.7 -405.1L740.6 -405.1L611.4 -534.1L610.2 -532.9L610.2 -277.4L611.4 -276.2Z" />
				<path id="Layer" class="shp9" d="M611.4 -345.3L740.6 -474.2L740.7 -474.2L740.7 -474.2L740.7 -474.2L740.6 -474.2L611.4 -603.1L610.2 -602L610.2 -346.5L611.4 -345.3Z" />
				<path id="Layer" class="shp11" d="M611.4 -359.4L740.6 -488.3L740.7 -488.3L740.7 -488.3L740.7 -488.3L740.6 -488.3L611.4 -617.2L610.2 -616.1L610.2 -360.6L611.4 -359.4Z" />
				<path id="Layer" class="shp12" d="M611.4 -429.9L740.6 -558.8L740.7 -558.8L740.7 -558.8L740.7 -558.9L740.6 -558.9L611.4 -687.8L610.2 -686.6L610.2 -431.1L611.4 -429.9Z" />
				<path id="Layer" class="shp7" d="M612.8 -517.8L694.1 -599.9L610.2 -599.9L610.2 -520.4L612.8 -517.8Z" />
				<path id="Layer" class="shp10" d="M613.1 -555.9L653 -599.9L610.2 -599.9L610.2 -558.8L613.1 -555.9Z" />
				<path id="Layer" class="shp4" d="M610.2 -558.8L610.2 -599.9L569.1 -599.9L610.2 -558.8Z" />
				<path id="Layer" class="shp13" d="M622.94 -589.67L631.36 -598.08L705.89 -523.55L697.47 -515.14L622.94 -589.67Z" />
				<path id="Layer" class="shp13" d="M611.51 -276.87L619.93 -285.29L707.61 -197.61L699.19 -189.19L611.51 -276.87Z" />
			</g>
		</g>
		<g id="Layer" style="opacity: 0.322">
			<g id="Layer">
				<path id="Layer" class="shp3" d="M610.2 309.2L610.2 53.7L479.8 178.8L610.2 309.2Z" />
				<path id="Layer" class="shp4" d="M610.2 260.7L610.2 5.2L479.8 130.3L610.2 260.7Z" />
				<path id="Layer" class="shp0" d="M610.2 191.7L610.2 -63.9L479.8 61.2L610.2 191.7Z" />
				<path id="Layer" class="shp5" d="M611 177.6L611 -78L480.6 47.1L611 177.6Z" />
				<path id="Layer" class="shp6" d="M610.2 107L610.2 -148.5L479.8 -23.4L610.2 107Z" />
				<path id="Layer" class="shp1" d="M610.2 17.7L610.2 -61.8L530.8 -61.8L610.2 17.7Z" />
				<path id="Layer" class="shp9" d="M611.4 310.4L740.6 181.5L740.7 181.5L740.7 181.5L740.7 181.5L740.6 181.5L611.4 52.6L610.2 53.7L610.2 309.2L611.4 310.4Z" />
				<path id="Layer" class="shp10" d="M611.4 261.9L740.6 133L740.7 133L740.7 133L740.7 133L740.6 133L611.4 4L610.2 5.2L610.2 260.7L611.4 261.9Z" />
				<path id="Layer" class="shp9" d="M611.4 192.9L740.6 63.9L740.7 63.9L740.7 63.9L740.7 63.9L740.6 63.9L611.4 -65L610.2 -63.9L610.2 191.7L611.4 192.9Z" />
				<path id="Layer" class="shp11" d="M611.4 178.8L740.6 49.8L740.7 49.8L740.7 49.8L740.7 49.8L740.6 49.8L611.4 -79.1L610.2 -78L610.2 177.6L611.4 178.8Z" />
				<path id="Layer" class="shp12" d="M611.4 108.2L740.6 -20.7L740.7 -20.7L740.7 -20.7L740.7 -20.7L740.6 -20.7L611.4 -149.7L610.2 -148.5L610.2 107L611.4 108.2Z" />
				<path id="Layer" class="shp7" d="M612.8 20.3L694.1 -61.8L610.2 -61.8L610.2 17.7L612.8 20.3Z" />
				<path id="Layer" class="shp10" d="M613.1 -17.8L653 -61.8L610.2 -61.8L610.2 -20.7L613.1 -17.8Z" />
				<path id="Layer" class="shp4" d="M610.2 -20.7L610.2 -61.8L569.1 -61.8L610.2 -20.7Z" />
				<path id="Layer" class="shp13" d="M622.99 -51.49L631.41 -59.9L705.94 14.62L697.52 23.04L622.99 -51.49Z" />
			</g>
		</g>
	</g>
	<path id="Layer" class="shp14" d="M-13.6 -2.5L-13.6 74.3L188.6 74.3L626.3 74.3L626.3 -2.5L-13.6 -2.5Z" />
	<path id="Layer" class="shp15" d="M356.3 23.7L357.2 23.7L357.2 30.3L356.3 30.3L356.3 23.7Z" />
	<g id="Layer">
		<path id="Layer" class="shp15" d="M358.6 30.3L358.6 25.5L359.3 25.5L359.3 26.2C359.7 25.7 360.2 25.4 360.8 25.4C361.1 25.4 361.4 25.4 361.6 25.6C361.8 25.7 362 25.8 362.1 26C362.2 26.2 362.3 26.4 362.4 26.6C362.4 26.7 362.4 27 362.4 27.4L362.4 30.4L361.6 30.4L361.6 27.5C361.6 27.2 361.6 26.9 361.5 26.8C361.4 26.6 361.3 26.5 361.2 26.4C361 26.3 360.8 26.3 360.6 26.3C360.3 26.3 360 26.4 359.7 26.6C359.4 26.8 359.3 27.2 359.3 27.9L359.3 30.5L358.6 30.5L358.6 30.3Z" />
		<path id="Layer" class="shp15" d="M363.5 28.9L364.3 28.8C364.3 29.1 364.5 29.4 364.7 29.5C364.9 29.7 365.2 29.8 365.6 29.8C366 29.8 366.3 29.7 366.4 29.6C366.6 29.4 366.7 29.3 366.7 29.1C366.7 28.9 366.6 28.8 366.5 28.7C366.4 28.6 366.1 28.5 365.7 28.4C365.1 28.2 364.7 28.1 364.5 28C364.3 27.9 364.1 27.7 364 27.5C363.9 27.3 363.8 27.1 363.8 26.9C363.8 26.7 363.8 26.5 363.9 26.3C364 26.1 364.1 26 364.3 25.8C364.4 25.7 364.6 25.6 364.8 25.6C365 25.5 365.3 25.5 365.5 25.5C365.9 25.5 366.2 25.6 366.5 25.7C366.8 25.8 367 26 367.1 26.1C367.2 26.3 367.3 26.5 367.4 26.8L366.6 26.9C366.6 26.7 366.5 26.5 366.3 26.3C366.1 26.2 365.9 26.1 365.6 26.1C365.2 26.1 365 26.2 364.8 26.3C364.6 26.4 364.6 26.6 364.6 26.7C364.6 26.8 364.6 26.9 364.7 27C364.8 27.1 364.9 27.2 365 27.2C365.1 27.2 365.3 27.3 365.7 27.4C366.3 27.6 366.7 27.7 366.9 27.8C367.1 27.9 367.3 28 367.4 28.2C367.5 28.4 367.6 28.6 367.6 28.9C367.6 29.2 367.5 29.4 367.4 29.7C367.2 29.9 367 30.1 366.7 30.3C366.4 30.4 366.1 30.5 365.7 30.5C365.1 30.5 364.6 30.4 364.3 30.1C363.8 29.8 363.5 29.4 363.5 28.9Z" />
		<path id="Layer" class="shp15" d="M370.2 29.6L370.3 30.3C370.1 30.3 369.9 30.4 369.7 30.4C369.4 30.4 369.2 30.4 369 30.3C368.8 30.2 368.7 30.1 368.7 29.9C368.6 29.7 368.6 29.4 368.6 28.9L368.6 26.1L368 26.1L368 25.5L368.6 25.5L368.6 24.3L369.4 23.8L369.4 25.5L370.2 25.5L370.2 26.1L369.4 26.1L369.4 28.9C369.4 29.1 369.4 29.3 369.4 29.4C369.4 29.5 369.5 29.5 369.5 29.6C369.6 29.6 369.7 29.7 369.8 29.7C369.9 29.6 370 29.6 370.2 29.6Z" />
		<path id="Layer" class="shp15" d="M371 23.7L371.8 23.7L371.8 24.6L371 24.6L371 23.7ZM371 25.5L371.8 25.5L371.8 30.3L371 30.3L371 25.5Z" />
		<path id="Layer" class="shp15" d="M374.8 29.6L374.9 30.3C374.7 30.3 374.5 30.4 374.3 30.4C374 30.4 373.8 30.4 373.6 30.3C373.4 30.2 373.3 30.1 373.3 29.9C373.2 29.7 373.2 29.4 373.2 28.9L373.2 26.1L372.6 26.1L372.6 25.5L373.2 25.5L373.2 24.3L374 23.8L374 25.5L374.8 25.5L374.8 26.1L374 26.1L374 28.9C374 29.1 374 29.3 374 29.4C374 29.5 374.1 29.5 374.1 29.6C374.2 29.6 374.3 29.7 374.4 29.7C374.5 29.6 374.7 29.6 374.8 29.6Z" />
		<path id="Layer" class="shp15" d="M378.8 30.3L378.8 29.6C378.4 30.1 377.9 30.4 377.3 30.4C377 30.4 376.8 30.3 376.5 30.2C376.3 30.1 376.1 30 376 29.8C375.9 29.6 375.8 29.4 375.7 29.2C375.7 29 375.7 28.8 375.7 28.4L375.7 25.4L376.5 25.4L376.5 28.1C376.5 28.5 376.5 28.8 376.6 29C376.7 29.2 376.8 29.4 376.9 29.5C377.1 29.6 377.3 29.7 377.5 29.7C377.7 29.7 378 29.6 378.2 29.5C378.4 29.4 378.6 29.2 378.7 29C378.8 28.8 378.8 28.5 378.8 28.1L378.8 25.5L379.6 25.5L379.6 30.3L378.8 30.3L378.8 30.3Z" />
		<path id="Layer" class="shp15" d="M382.5 29.6L382.6 30.3C382.4 30.3 382.2 30.4 382 30.4C381.7 30.4 381.5 30.4 381.3 30.3C381.1 30.2 381 30.1 381 29.9C380.9 29.7 380.9 29.4 380.9 28.9L380.9 26.1L380.3 26.1L380.3 25.5L380.9 25.5L380.9 24.3L381.7 23.8L381.7 25.5L382.5 25.5L382.5 26.1L381.7 26.1L381.7 28.9C381.7 29.1 381.7 29.3 381.7 29.4C381.7 29.5 381.8 29.5 381.8 29.6C381.9 29.6 382 29.7 382.1 29.7C382.3 29.6 382.4 29.6 382.5 29.6Z" />
		<path id="Layer" fill-rule="evenodd" class="shp15" d="M383 27.9C383 27 383.2 26.4 383.7 25.9C384.1 25.5 384.6 25.4 385.2 25.4C385.9 25.4 386.4 25.6 386.8 26C387.2 26.4 387.4 27 387.4 27.8C387.4 28.4 387.3 28.9 387.1 29.3C386.9 29.7 386.6 29.9 386.3 30.1C385.9 30.3 385.6 30.4 385.1 30.4C384.4 30.4 383.9 30.2 383.5 29.8C383.2 29.3 383 28.7 383 27.9ZM383.9 27.9C383.9 28.5 384 29 384.3 29.3C384.6 29.6 384.9 29.8 385.3 29.8C385.7 29.8 386 29.6 386.3 29.3C386.6 29 386.7 28.5 386.7 27.9C386.7 27.3 386.6 26.9 386.3 26.6C386 26.3 385.7 26.1 385.3 26.1C384.9 26.1 384.6 26.3 384.3 26.6C384 26.8 383.9 27.3 383.9 27.9Z" />
		<path id="Layer" class="shp15" d="M391.1 30.3L391.1 23.7L392 23.7L395.5 28.9L395.5 23.7L396.4 23.7L396.4 30.3L395.5 30.3L392 25.1L392 30.3L391.1 30.3Z" />
		<path id="Layer" fill-rule="evenodd" class="shp15" d="M400.9 29.7C400.6 30 400.3 30.1 400 30.2C399.7 30.3 399.4 30.4 399.1 30.4C398.6 30.4 398.2 30.3 397.9 30C397.6 29.7 397.5 29.4 397.5 29C397.5 28.8 397.6 28.6 397.7 28.4C397.8 28.2 397.9 28 398.1 27.9C398.3 27.8 398.5 27.7 398.7 27.6C398.9 27.6 399.1 27.5 399.4 27.5C400.1 27.4 400.5 27.3 400.9 27.2C400.9 27.1 400.9 27 400.9 27C400.9 26.7 400.8 26.4 400.7 26.3C400.5 26.1 400.2 26 399.8 26C399.4 26 399.1 26.1 399 26.2C398.8 26.3 398.7 26.6 398.6 26.9L397.8 26.8C397.9 26.5 398 26.2 398.2 26C398.4 25.8 398.6 25.6 398.9 25.5C399.2 25.4 399.6 25.3 400 25.3C400.4 25.3 400.7 25.3 401 25.4C401.3 25.5 401.4 25.6 401.6 25.8C401.7 25.9 401.8 26.1 401.9 26.4C401.9 26.5 401.9 26.8 401.9 27.2L401.9 28.3C401.9 29.1 401.9 29.5 402 29.7C402 29.9 402.1 30.1 402.2 30.3L401 30.3C400.9 30.1 400.9 29.9 400.9 29.7ZM400.7 27.9L400.7 27.93C400.73 27.92 400.77 27.91 400.8 27.9L400.7 27.9ZM399.5 28.2C399.2 28.2 398.9 28.3 398.8 28.4C398.7 28.5 398.6 28.5 398.5 28.7C398.4 28.8 398.4 28.9 398.4 29.1C398.4 29.3 398.5 29.5 398.6 29.6C398.8 29.7 399 29.8 399.3 29.8C399.6 29.8 399.9 29.7 400.1 29.6C400.3 29.5 400.5 29.3 400.6 29C400.7 28.8 400.7 28.5 400.7 28.2L400.7 27.93C400.41 28.02 400.04 28.11 399.5 28.2Z" />
		<path id="Layer" class="shp15" d="M406 28.6L406.8 28.7C406.7 29.3 406.5 29.7 406.1 30C405.7 30.3 405.3 30.5 404.8 30.5C404.1 30.5 403.6 30.3 403.2 29.9C402.8 29.5 402.6 28.9 402.6 28.1C402.6 27.6 402.7 27.1 402.9 26.7C403.1 26.3 403.3 26 403.7 25.8C404.1 25.6 404.4 25.5 404.8 25.5C405.3 25.5 405.7 25.6 406.1 25.9C406.4 26.2 406.6 26.5 406.7 27L406 27C405.9 26.7 405.8 26.4 405.6 26.3C405.4 26.1 405.2 26.1 404.9 26.1C404.5 26.1 404.2 26.2 403.9 26.5C403.6 26.8 403.5 27.3 403.5 27.9C403.5 28.5 403.6 29 403.9 29.3C404.1 29.6 404.5 29.7 404.9 29.7C405.2 29.7 405.5 29.6 405.7 29.4C405.8 29.3 406 29 406 28.6Z" />
		<path id="Layer" class="shp15" d="M407.5 23.7L408.3 23.7L408.3 24.6L407.5 24.6L407.5 23.7ZM407.5 25.5L408.3 25.5L408.3 30.3L407.5 30.3L407.5 25.5Z" />
		<path id="Layer" fill-rule="evenodd" class="shp15" d="M409.3 27.9C409.3 27 409.5 26.4 410 25.9C410.4 25.5 410.9 25.4 411.5 25.4C412.2 25.4 412.7 25.6 413.1 26C413.5 26.4 413.7 27 413.7 27.8C413.7 28.4 413.6 28.9 413.4 29.3C413.2 29.7 412.9 29.9 412.6 30.1C412.2 30.3 411.9 30.4 411.4 30.4C410.7 30.4 410.2 30.2 409.8 29.8C409.5 29.3 409.3 28.7 409.3 27.9ZM410.1 27.9C410.1 28.5 410.2 29 410.5 29.3C410.8 29.6 411.1 29.8 411.5 29.8C411.9 29.8 412.2 29.6 412.5 29.3C412.8 29 412.9 28.5 412.9 27.9C412.9 27.3 412.8 26.9 412.5 26.6C412.2 26.3 411.9 26.1 411.5 26.1C411.1 26.1 410.8 26.3 410.5 26.6C410.2 26.8 410.1 27.3 410.1 27.9Z" />
		<path id="Layer" class="shp15" d="M414.7 30.3L414.7 25.5L415.4 25.5L415.4 26.2C415.8 25.7 416.3 25.4 416.9 25.4C417.2 25.4 417.5 25.4 417.7 25.6C417.9 25.7 418.1 25.8 418.2 26C418.3 26.2 418.4 26.4 418.5 26.6C418.5 26.7 418.5 27 418.5 27.4L418.5 30.4L417.7 30.4L417.7 27.5C417.7 27.2 417.7 26.9 417.6 26.8C417.5 26.6 417.4 26.5 417.3 26.4C417.1 26.3 416.9 26.3 416.7 26.3C416.4 26.3 416.1 26.4 415.8 26.6C415.5 26.8 415.4 27.2 415.4 27.9L415.4 30.5L414.7 30.5L414.7 30.3Z" />
		<path id="Layer" fill-rule="evenodd" class="shp15" d="M423 29.7C422.7 30 422.4 30.1 422.1 30.2C421.8 30.3 421.5 30.4 421.2 30.4C420.7 30.4 420.3 30.3 420 30C419.7 29.7 419.6 29.4 419.6 29C419.6 28.8 419.7 28.6 419.8 28.4C419.9 28.2 420 28 420.2 27.9C420.4 27.8 420.6 27.7 420.8 27.6C421 27.6 421.2 27.5 421.5 27.5C422.2 27.4 422.6 27.3 423 27.2C423 27.1 423 27 423 27C423 26.7 422.9 26.4 422.8 26.3C422.6 26.1 422.3 26 421.9 26C421.5 26 421.2 26.1 421.1 26.2C420.9 26.3 420.8 26.6 420.7 26.9L419.9 26.8C420 26.5 420.1 26.2 420.3 26C420.5 25.8 420.7 25.6 421 25.5C421.3 25.4 421.7 25.3 422.1 25.3C422.5 25.3 422.8 25.3 423.1 25.4C423.4 25.5 423.5 25.6 423.7 25.8C423.8 25.9 423.9 26.1 424 26.4C424 26.5 424 26.8 424 27.2L424 28.3C424 29.1 424 29.5 424.1 29.7C424.1 29.9 424.2 30.1 424.3 30.3L423.5 30.3C423.1 30.1 423 29.9 423 29.7ZM422.8 27.9L422.8 27.93C422.83 27.92 422.87 27.91 422.9 27.9L422.8 27.9ZM421.6 28.2C421.3 28.2 421 28.3 420.9 28.4C420.8 28.5 420.7 28.5 420.6 28.7C420.5 28.8 420.5 28.9 420.5 29.1C420.5 29.3 420.6 29.5 420.7 29.6C420.9 29.7 421.1 29.8 421.4 29.8C421.7 29.8 422 29.7 422.2 29.6C422.4 29.5 422.6 29.3 422.7 29C422.8 28.8 422.8 28.5 422.8 28.2L422.8 27.93C422.51 28.02 422.14 28.11 421.6 28.2Z" />
		<path id="Layer" class="shp15" d="M425 23.7L425.8 23.7L425.8 30.3L425 30.3L425 23.7Z" />
		<path id="Layer" fill-rule="evenodd" class="shp15" d="M359.2 40.4C358.9 40.9 358.4 41.1 357.9 41.1C357.5 41.1 357.2 41 356.8 40.8C356.5 40.6 356.2 40.3 356.1 39.9C355.9 39.5 355.8 39.1 355.8 38.6C355.8 38.1 355.9 37.7 356 37.3C356.2 36.9 356.4 36.6 356.7 36.4C357 36.2 357.4 36.1 357.8 36.1C358.1 36.1 358.3 36.2 358.6 36.3C358.8 36.4 359 36.6 359.2 36.8L359.2 34.4L360 34.4L360 41L359.2 41L359.2 40.4ZM356.6 38.6C356.6 39.2 356.7 39.7 357 40C357.3 40.3 357.6 40.5 357.9 40.5C358.3 40.5 358.6 40.4 358.8 40.1C359 39.8 359.2 39.4 359.2 38.8C359.2 38.1 359.1 37.7 358.8 37.4C358.5 37.1 358.2 36.9 357.9 36.9C357.5 36.9 357.2 37.1 357 37.3C356.7 37.5 356.6 38 356.6 38.6Z" />
		<path id="Layer" fill-rule="evenodd" class="shp15" d="M364.5 39.5L365.3 39.6C365.2 40.1 364.9 40.5 364.6 40.7C364.2 41 363.8 41.1 363.2 41.1C362.5 41.1 361.9 40.9 361.5 40.4C361.1 40 360.9 39.4 360.9 38.6C360.9 37.8 361.1 37.2 361.5 36.7C361.9 36.3 362.5 36 363.1 36C363.7 36 364.3 36.2 364.7 36.7C365.1 37.1 365.3 37.8 365.3 38.5C365.3 38.5 365.3 38.6 365.3 38.7L361.7 38.7C361.7 39.2 361.9 39.6 362.1 39.9C362.4 40.2 362.7 40.3 363.1 40.3C363.4 40.3 363.7 40.2 363.9 40.1C364.2 40.1 364.4 39.8 364.5 39.5ZM361.8 38.2L364.5 38.2C364.5 37.8 364.4 37.5 364.2 37.3C363.9 37 363.6 36.8 363.2 36.8C362.8 36.8 362.5 36.9 362.3 37.2C362 37.4 361.8 37.8 361.8 38.2Z" />
		<path id="Layer" class="shp16" d="M373.2 38.6L374.5 39C374.3 39.7 374 40.3 373.5 40.6C373 41 372.4 41.1 371.7 41.1C370.8 41.1 370.1 40.8 369.5 40.2C368.9 39.6 368.7 38.8 368.7 37.7C368.7 36.6 369 35.7 369.6 35.1C370.2 34.5 370.9 34.2 371.8 34.2C372.6 34.2 373.3 34.4 373.8 34.9C374.1 35.2 374.3 35.6 374.5 36.1L373.2 36.4C373.1 36.1 373 35.8 372.7 35.6C372.5 35.4 372.1 35.3 371.8 35.3C371.3 35.3 370.9 35.5 370.6 35.8C370.3 36.2 370.1 36.7 370.1 37.5C370.1 38.3 370.3 38.9 370.6 39.3C370.9 39.7 371.3 39.8 371.8 39.8C372.2 39.8 372.5 39.7 372.7 39.5C372.9 39.4 373.1 39.1 373.2 38.6Z" />
		<path id="Layer" fill-rule="evenodd" class="shp16" d="M376.6 37.7L375.4 37.5C375.5 37 375.8 36.7 376.1 36.5C376.4 36.3 376.9 36.2 377.5 36.2C378.1 36.2 378.5 36.3 378.8 36.4C379.1 36.5 379.3 36.7 379.4 36.9C379.5 37.1 379.6 37.5 379.6 38L379.6 39.5C379.6 39.9 379.6 40.2 379.7 40.4C379.7 40.6 379.8 40.8 379.9 41L378.6 41C378.6 40.9 378.5 40.8 378.5 40.6C378.5 40.5 378.5 40.5 378.5 40.5C378.3 40.7 378.1 40.9 377.8 41C377.6 41.1 377.3 41.2 377 41.2C376.5 41.2 376.1 41.1 375.8 40.8C375.5 40.5 375.4 40.2 375.4 39.8C375.4 39.5 375.5 39.3 375.6 39.1C375.7 38.9 375.9 38.7 376.1 38.6C376.3 38.5 376.7 38.4 377.1 38.3C377.7 38.2 378.1 38.1 378.3 38L378.3 37.9C378.3 37.7 378.2 37.5 378.1 37.4C378 37.3 377.8 37.2 377.4 37.2C377.2 37.2 377 37.2 376.9 37.3C376.8 37.3 376.7 37.5 376.6 37.7ZM378.3 38.7C378.1 38.8 377.9 38.8 377.5 38.9C377.1 39 376.9 39.1 376.8 39.1C376.6 39.2 376.6 39.4 376.6 39.5C376.6 39.7 376.7 39.8 376.8 40C376.9 40.1 377.1 40.2 377.3 40.2C377.5 40.2 377.7 40.1 378 40C378.2 39.9 378.3 39.7 378.3 39.6C378.3 39.5 378.4 39.3 378.4 39L378.4 38.7L378.3 38.7Z" />
		<path id="Layer" fill-rule="evenodd" class="shp16" d="M380.8 36.2L382 36.2L382 36.9C382.2 36.7 382.4 36.5 382.6 36.3C382.9 36.2 383.2 36.1 383.5 36.1C384.1 36.1 384.5 36.3 384.9 36.8C385.3 37.2 385.5 37.8 385.5 38.6C385.5 39.4 385.3 40 384.9 40.5C384.5 40.9 384 41.2 383.5 41.2C383.2 41.2 383 41.1 382.8 41C382.6 40.9 382.4 40.7 382.1 40.5L382.1 42.9L380.8 42.9L380.8 36.2ZM382 38.6C382 39.1 382.1 39.5 382.3 39.8C382.5 40.1 382.8 40.2 383.1 40.2C383.4 40.2 383.6 40.1 383.8 39.8C384 39.6 384.1 39.2 384.1 38.6C384.1 38.1 384 37.7 383.8 37.5C383.6 37.3 383.4 37.1 383 37.1C382.7 37.1 382.4 37.2 382.2 37.5C382.1 37.7 382 38.1 382 38.6Z" />
		<path id="Layer" fill-rule="evenodd" class="shp16" d="M387.4 37.7L386.2 37.5C386.3 37 386.6 36.7 386.9 36.5C387.2 36.3 387.7 36.2 388.3 36.2C388.9 36.2 389.3 36.3 389.6 36.4C389.9 36.5 390.1 36.7 390.2 36.9C390.3 37.1 390.4 37.5 390.4 38L390.4 39.5C390.4 39.9 390.4 40.2 390.5 40.4C390.5 40.6 390.6 40.8 390.7 41L389.4 41C389.4 40.9 389.3 40.8 389.3 40.6C389.3 40.5 389.3 40.5 389.3 40.5C389.1 40.7 388.8 40.9 388.6 41C388.3 41.1 388.1 41.2 387.8 41.2C387.3 41.2 386.9 41.1 386.6 40.8C386.3 40.5 386.2 40.2 386.2 39.8C386.2 39.5 386.3 39.3 386.4 39.1C386.5 38.9 386.7 38.7 386.9 38.6C387.1 38.5 387.5 38.4 387.9 38.3C388.5 38.2 388.9 38.1 389.1 38L389.1 37.9C389.1 37.7 389 37.5 388.9 37.4C388.8 37.3 388.6 37.2 388.2 37.2C388 37.2 387.8 37.2 387.7 37.3C387.6 37.3 387.5 37.5 387.4 37.7ZM389.1 38.7C388.9 38.8 388.7 38.8 388.3 38.9C387.9 39 387.7 39.1 387.6 39.1C387.4 39.2 387.4 39.4 387.4 39.5C387.4 39.7 387.5 39.8 387.6 40C387.7 40.1 387.9 40.2 388.1 40.2C388.3 40.2 388.6 40.1 388.8 40C389 39.9 389.1 39.7 389.1 39.6C389.1 39.5 389.2 39.3 389.2 39L389.2 38.7L389.1 38.7Z" />
		<path id="Layer" class="shp16" d="M395.8 37.6L394.5 37.8C394.5 37.6 394.4 37.4 394.2 37.2C394.1 37.1 393.9 37 393.6 37C393.3 37 393 37.1 392.8 37.3C392.6 37.5 392.5 37.9 392.5 38.4C392.5 39 392.6 39.4 392.8 39.6C393 39.8 393.2 40 393.6 40C393.8 40 394 39.9 394.2 39.8C394.4 39.7 394.5 39.4 394.5 39.1L395.7 39.3C395.6 39.9 395.3 40.3 395 40.6C394.6 40.9 394.1 41 393.5 41C392.8 41 392.2 40.8 391.8 40.3C391.4 39.9 391.2 39.2 391.2 38.5C391.2 37.7 391.4 37.1 391.8 36.7C392.2 36.3 392.8 36 393.5 36C394.1 36 394.5 36.1 394.9 36.4C395.4 36.8 395.7 37.1 395.8 37.6Z" />
		<path id="Layer" class="shp16" d="M396.8 34.4L398.1 34.4L398.1 35.6L396.8 35.6L396.8 34.4ZM396.8 36.2L398.1 36.2L398.1 41L396.8 41L396.8 36.2Z" />
		<path id="Layer" class="shp16" d="M401.5 36.2L401.5 37.2L400.6 37.2L400.6 39.1C400.6 39.5 400.6 39.7 400.6 39.8C400.6 39.9 400.7 39.9 400.7 40C400.8 40 400.8 40.1 400.9 40.1C401 40.1 401.2 40.1 401.4 40L401.5 41C401.2 41.1 400.9 41.2 400.5 41.2C400.3 41.2 400.1 41.2 399.9 41.1C399.7 41 399.6 40.9 399.5 40.8C399.4 40.7 399.4 40.5 399.3 40.3C399.3 40.2 399.3 39.9 399.3 39.4L399.3 37.3L398.7 37.3L398.7 36.3L399.3 36.3L399.3 35.3L400.6 34.6L400.6 36.3L401.5 36.3L401.5 36.2Z" />
		<path id="Layer" fill-rule="evenodd" class="shp16" d="M403.4 37.7L402.2 37.5C402.3 37 402.6 36.7 402.9 36.5C403.2 36.3 403.7 36.2 404.3 36.2C404.9 36.2 405.3 36.3 405.6 36.4C405.9 36.5 406.1 36.7 406.2 36.9C406.3 37.1 406.4 37.5 406.4 38L406.4 39.5C406.4 39.9 406.4 40.2 406.5 40.4C406.5 40.6 406.6 40.8 406.7 41L405.4 41C405.4 40.9 405.3 40.8 405.3 40.6C405.3 40.5 405.3 40.5 405.3 40.5C405.1 40.7 404.9 40.9 404.6 41C404.4 41.1 404.1 41.2 403.8 41.2C403.3 41.2 402.9 41.1 402.6 40.8C402.3 40.5 402.2 40.2 402.2 39.8C402.2 39.5 402.3 39.3 402.4 39.1C402.5 38.9 402.7 38.7 402.9 38.6C403.1 38.5 403.5 38.4 403.9 38.3C404.5 38.2 404.9 38.1 405.1 38L405.1 37.9C405.1 37.7 405 37.5 404.9 37.4C404.8 37.3 404.6 37.2 404.2 37.2C404 37.2 403.8 37.2 403.7 37.3C403.6 37.3 403.5 37.5 403.4 37.7ZM405.1 38.7C404.9 38.8 404.7 38.8 404.3 38.9C403.9 39 403.7 39.1 403.6 39.1C403.4 39.2 403.4 39.4 403.4 39.5C403.4 39.7 403.5 39.8 403.6 40C403.7 40.1 403.9 40.2 404.1 40.2C404.3 40.2 404.6 40.1 404.8 40C405 39.9 405.1 39.7 405.1 39.6C405.1 39.5 405.2 39.3 405.2 39L405.2 38.7L405.1 38.7Z" />
		<path id="Layer" class="shp16" d="M411.8 37.6L410.5 37.8C410.5 37.6 410.4 37.4 410.2 37.2C410.1 37.1 409.9 37 409.6 37C409.3 37 409 37.1 408.8 37.3C408.6 37.5 408.5 37.9 408.5 38.4C408.5 39 408.6 39.4 408.8 39.6C409 39.8 409.2 40 409.6 40C409.8 40 410 39.9 410.2 39.8C410.4 39.7 410.5 39.4 410.5 39.1L411.7 39.3C411.6 39.9 411.3 40.3 411 40.6C410.6 40.9 410.1 41 409.5 41C408.8 41 408.2 40.8 407.8 40.3C407.4 39.9 407.2 39.2 407.2 38.5C407.2 37.7 407.4 37.1 407.8 36.7C408.2 36.3 408.8 36 409.5 36C410.1 36 410.5 36.1 410.9 36.4C411.4 36.8 411.6 37.1 411.8 37.6Z" />
		<path id="Layer" class="shp16" d="M412.7 34.4L414 34.4L414 35.6L412.7 35.6L412.7 34.4ZM412.7 36.2L414 36.2L414 41L412.7 41L412.7 36.2Z" />
		<path id="Layer" fill-rule="evenodd" class="shp16" d="M415 38.6C415 38.2 415.1 37.8 415.3 37.4C415.5 37 415.8 36.7 416.2 36.5C416.6 36.3 417 36.2 417.5 36.2C418.2 36.2 418.8 36.4 419.3 36.9C419.8 37.4 420 38 420 38.7C420 39.4 419.8 40 419.3 40.5C418.8 41 418.2 41.2 417.5 41.2C417.1 41.2 416.6 41.1 416.2 40.9C415.8 40.7 415.5 40.4 415.3 40C415.1 39.6 415 39.1 415 38.6ZM416.3 38.6C416.3 39.1 416.4 39.4 416.6 39.7C416.8 40 417.1 40.1 417.4 40.1C417.7 40.1 418 40 418.2 39.7C418.4 39.4 418.5 39.1 418.5 38.6C418.5 38.1 418.4 37.8 418.2 37.5C418 37.2 417.7 37.1 417.4 37.1C417.1 37.1 416.8 37.2 416.6 37.5C416.4 37.8 416.3 38.2 416.3 38.6ZM416.8 35.6L417.4 34.2L418.8 34.2L417.6 35.6L416.8 35.6Z" />
		<path id="Layer" class="shp16" d="M425.3 41L424 41L424 38.6C424 38.1 424 37.7 423.9 37.6C423.8 37.4 423.8 37.3 423.6 37.2C423.5 37.1 423.3 37.1 423.2 37.1C423 37.1 422.8 37.2 422.6 37.3C422.4 37.4 422.3 37.6 422.2 37.8C422.1 38 422.1 38.4 422.1 38.9L422.1 41.1L420.8 41.1L420.8 36.3L422 36.3L422 37C422.4 36.5 422.9 36.2 423.6 36.2C423.9 36.2 424.1 36.2 424.4 36.3C424.6 36.4 424.8 36.5 424.9 36.7C425 36.9 425.1 37 425.1 37.2C425.1 37.4 425.2 37.7 425.2 38.1L425.2 41L425.3 41Z" />
		<path id="Layer" class="shp16" d="M428.6 36.2L430 36.2L431.1 39.6L432.2 36.2L433.5 36.2L431.8 40.8L431.5 41.6C431.4 41.9 431.3 42.1 431.2 42.2C431.1 42.3 431 42.5 430.9 42.6C430.8 42.7 430.6 42.8 430.4 42.8C430.2 42.9 430 42.9 429.8 42.9C429.6 42.9 429.3 42.9 429.1 42.8L429 41.8C429.2 41.8 429.4 41.9 429.5 41.9C429.8 41.9 430 41.8 430.2 41.6C430.3 41.4 430.5 41.2 430.5 40.9L428.6 36.2Z" />
		<path id="Layer" class="shp16" d="M436.9 41L436.9 34.4L441.8 34.4L441.8 35.5L438.2 35.5L438.2 37L441.6 37L441.6 38.1L438.2 38.1L438.2 39.9L441.9 39.9L441.9 41L436.9 41Z" />
		<path id="Layer" fill-rule="evenodd" class="shp16" d="M446.3 41L446.3 40.3C446.1 40.6 445.9 40.8 445.6 40.9C445.3 41 445.1 41.1 444.8 41.1C444.2 41.1 443.8 40.9 443.4 40.4C443 40 442.8 39.3 442.8 38.5C442.8 37.7 443 37.1 443.4 36.6C443.8 36.2 444.3 36 444.9 36C445.4 36 445.9 36.2 446.3 36.7L446.3 34.3L447.6 34.3L447.6 41L446.3 41ZM444.1 38.5C444.1 39 444.2 39.4 444.3 39.6C444.5 39.9 444.8 40.1 445.2 40.1C445.5 40.1 445.7 40 445.9 39.7C446.1 39.5 446.2 39.1 446.2 38.6C446.2 38 446.1 37.6 445.9 37.4C445.7 37.2 445.4 37 445.1 37C444.8 37 444.5 37.1 444.3 37.4C444.2 37.7 444.1 38.1 444.1 38.5Z" />
		<path id="Layer" class="shp16" d="M451.9 41L451.9 40.3C451.7 40.6 451.5 40.8 451.2 40.9C450.9 41 450.6 41.1 450.3 41.1C450 41.1 449.7 41 449.4 40.9C449.1 40.8 449 40.6 448.8 40.3C448.7 40 448.6 39.7 448.6 39.2L448.6 36.2L449.9 36.2L449.9 38.4C449.9 39.1 449.9 39.5 450 39.6C450 39.8 450.1 39.9 450.3 40C450.4 40.1 450.6 40.1 450.8 40.1C451 40.1 451.2 40 451.4 39.9C451.6 39.8 451.7 39.6 451.8 39.5C451.9 39.3 451.9 38.9 451.9 38.2L451.9 36.2L453.2 36.2L453.2 41L451.9 41Z" />
		<path id="Layer" class="shp16" d="M458.6 37.6L457.3 37.8C457.3 37.6 457.2 37.4 457 37.2C456.9 37.1 456.7 37 456.4 37C456.1 37 455.8 37.1 455.6 37.3C455.4 37.5 455.3 37.9 455.3 38.4C455.3 39 455.4 39.4 455.6 39.6C455.8 39.8 456 40 456.4 40C456.6 40 456.8 39.9 457 39.8C457.2 39.7 457.3 39.4 457.3 39.1L458.5 39.3C458.4 39.9 458.1 40.3 457.8 40.6C457.4 40.9 456.9 41 456.3 41C455.6 41 455 40.8 454.6 40.3C454.2 39.9 454 39.2 454 38.5C454 37.7 454.2 37.1 454.6 36.7C455 36.3 455.6 36 456.3 36C456.9 36 457.3 36.1 457.7 36.4C458.2 36.8 458.4 37.1 458.6 37.6Z" />
		<path id="Layer" fill-rule="evenodd" class="shp16" d="M460.5 37.7L459.3 37.5C459.4 37 459.7 36.7 460 36.5C460.3 36.3 460.8 36.2 461.4 36.2C462 36.2 462.4 36.3 462.7 36.4C463 36.5 463.2 36.7 463.3 36.9C463.4 37.1 463.5 37.5 463.5 38L463.5 39.5C463.5 39.9 463.5 40.2 463.6 40.4C463.6 40.6 463.7 40.8 463.8 41L462.5 41C462.5 40.9 462.4 40.8 462.4 40.6C462.4 40.5 462.4 40.5 462.4 40.5C462.2 40.7 462 40.9 461.7 41C461.5 41.1 461.2 41.2 460.9 41.2C460.4 41.2 460 41.1 459.7 40.8C459.4 40.5 459.3 40.2 459.3 39.8C459.3 39.5 459.4 39.3 459.5 39.1C459.6 38.9 459.8 38.7 460 38.6C460.2 38.5 460.6 38.4 461 38.3C461.6 38.2 462 38.1 462.2 38L462.2 37.9C462.2 37.7 462.1 37.5 462 37.4C461.9 37.3 461.7 37.2 461.3 37.2C461.1 37.2 460.9 37.2 460.8 37.3C460.7 37.3 460.6 37.5 460.5 37.7ZM462.2 38.7C462 38.8 461.8 38.8 461.4 38.9C461 39 460.8 39.1 460.7 39.1C460.5 39.2 460.5 39.4 460.5 39.5C460.5 39.7 460.6 39.8 460.7 40C460.8 40.1 461 40.2 461.2 40.2C461.4 40.2 461.6 40.1 461.9 40C462.1 39.9 462.2 39.7 462.2 39.6C462.2 39.5 462.2 39.3 462.2 39L462.2 38.7Z" />
		<path id="Layer" class="shp16" d="M468.9 37.6L467.6 37.8C467.6 37.6 467.5 37.4 467.3 37.2C467.2 37.1 467 37 466.7 37C466.4 37 466.1 37.1 465.9 37.3C465.7 37.5 465.6 37.9 465.6 38.4C465.6 39 465.7 39.4 465.9 39.6C466.1 39.8 466.3 40 466.7 40C466.9 40 467.1 39.9 467.3 39.8C467.5 39.7 467.6 39.4 467.6 39.1L468.8 39.3C468.7 39.9 468.4 40.3 468.1 40.6C467.7 40.9 467.2 41 466.6 41C465.9 41 465.3 40.8 464.9 40.3C464.5 39.9 464.3 39.2 464.3 38.5C464.3 37.7 464.5 37.1 464.9 36.7C465.3 36.3 465.9 36 466.6 36C467.2 36 467.7 36.1 468 36.4C468.5 36.8 468.7 37.1 468.9 37.6Z" />
		<path id="Layer" class="shp16" d="M469.8 34.4L471.1 34.4L471.1 35.6L469.8 35.6L469.8 34.4ZM469.8 36.2L471.1 36.2L471.1 41L469.8 41L469.8 36.2Z" />
		<path id="Layer" fill-rule="evenodd" class="shp16" d="M472.1 38.6C472.1 38.2 472.2 37.8 472.4 37.4C472.6 37 472.9 36.7 473.3 36.5C473.7 36.3 474.1 36.2 474.6 36.2C475.3 36.2 475.9 36.4 476.4 36.9C476.9 37.4 477.1 38 477.1 38.7C477.1 39.4 476.9 40 476.4 40.5C475.9 41 475.3 41.2 474.6 41.2C474.2 41.2 473.7 41.1 473.3 40.9C472.9 40.7 472.6 40.4 472.4 40C472.2 39.6 472.1 39.1 472.1 38.6ZM473.4 38.6C473.4 39.1 473.5 39.4 473.7 39.7C473.9 40 474.2 40.1 474.5 40.1C474.8 40.1 475.1 40 475.3 39.7C475.5 39.4 475.6 39.1 475.6 38.6C475.6 38.1 475.5 37.8 475.3 37.5C475.1 37.2 474.8 37.1 474.5 37.1C474.2 37.1 473.9 37.2 473.7 37.5C473.5 37.8 473.4 38.2 473.4 38.6ZM473.9 35.6L474.5 34.2L475.9 34.2L474.7 35.6L473.9 35.6Z" />
		<path id="Layer" class="shp16" d="M482.4 41L481.1 41L481.1 38.6C481.1 38.1 481.1 37.7 481 37.6C480.9 37.5 480.9 37.3 480.7 37.2C480.6 37.1 480.4 37.1 480.3 37.1C480.1 37.1 479.9 37.2 479.7 37.3C479.5 37.4 479.4 37.6 479.3 37.8C479.2 38 479.2 38.4 479.2 38.9L479.2 41.1L478 41.1L478 36.3L479.2 36.3L479.2 37C479.6 36.5 480.1 36.2 480.8 36.2C481.1 36.2 481.3 36.2 481.6 36.3C481.8 36.4 482 36.5 482.1 36.7C482.2 36.9 482.3 37 482.3 37.2C482.3 37.4 482.4 37.7 482.4 38.1L482.4 41L482.4 41Z" />
		<path id="Layer" class="shp16" d="M486 38.9L487.3 38.8C487.4 39.2 487.5 39.6 487.8 39.8C488 40 488.4 40.1 488.8 40.1C489.2 40.1 489.6 40 489.8 39.8C490 39.6 490.1 39.4 490.1 39.2C490.1 39 490.1 38.9 490 38.8C489.9 38.7 489.7 38.6 489.5 38.5C489.3 38.4 489 38.4 488.4 38.2C487.7 38 487.2 37.8 486.9 37.5C486.5 37.1 486.3 36.7 486.3 36.2C486.3 35.9 486.4 35.5 486.6 35.3C486.8 35 487.1 34.8 487.4 34.6C487.8 34.4 488.2 34.4 488.7 34.4C489.5 34.4 490.2 34.6 490.6 34.9C491 35.3 491.2 35.8 491.3 36.4L490 36.5C489.9 36.2 489.8 35.9 489.6 35.8C489.4 35.7 489.1 35.6 488.8 35.6C488.4 35.6 488.1 35.7 487.9 35.8C487.8 35.9 487.7 36 487.7 36.2C487.7 36.4 487.8 36.5 487.9 36.6C488.1 36.7 488.5 36.9 489.1 37C489.7 37.2 490.2 37.3 490.5 37.5C490.8 37.7 491.1 37.9 491.2 38.2C491.4 38.5 491.5 38.8 491.5 39.3C491.5 39.7 491.4 40 491.2 40.4C491 40.7 490.7 41 490.3 41.1C489.9 41.3 489.4 41.3 488.9 41.3C488.1 41.3 487.4 41.1 487 40.7C486.3 40.2 486 39.6 486 38.9Z" />
		<path id="Layer" fill-rule="evenodd" class="shp16" d="M492.2 38.6C492.2 38.2 492.3 37.8 492.5 37.4C492.7 37 493 36.7 493.4 36.5C493.8 36.3 494.2 36.2 494.7 36.2C495.4 36.2 496 36.4 496.5 36.9C497 37.4 497.2 38 497.2 38.7C497.2 39.4 497 40 496.5 40.5C496 41 495.4 41.2 494.7 41.2C494.3 41.2 493.8 41.1 493.4 40.9C493 40.7 492.7 40.4 492.5 40C492.3 39.6 492.2 39.1 492.2 38.6ZM493.5 38.6C493.5 39.1 493.6 39.4 493.8 39.7C494 40 494.3 40.1 494.6 40.1C494.9 40.1 495.2 40 495.4 39.7C495.6 39.4 495.7 39.1 495.7 38.6C495.7 38.1 495.6 37.8 495.4 37.5C495.2 37.2 494.9 37.1 494.6 37.1C494.3 37.1 494 37.2 493.8 37.5C493.6 37.8 493.5 38.2 493.5 38.6Z" />
		<path id="Layer" class="shp16" d="M502.3 37.6L501 37.8C501 37.6 500.9 37.4 500.7 37.2C500.6 37.1 500.4 37 500.1 37C499.8 37 499.5 37.1 499.3 37.3C499.1 37.5 499 37.9 499 38.4C499 39 499.1 39.4 499.3 39.6C499.5 39.8 499.7 40 500.1 40C500.3 40 500.5 39.9 500.7 39.8C500.9 39.7 501 39.4 501 39.1L502.2 39.3C502.1 39.9 501.8 40.3 501.5 40.6C501.1 40.9 500.6 41 500 41C499.3 41 498.7 40.8 498.3 40.3C497.9 39.9 497.7 39.2 497.7 38.5C497.7 37.7 497.9 37.1 498.3 36.7C498.7 36.3 499.3 36 500 36C500.6 36 501.1 36.1 501.4 36.4C501.9 36.8 502.2 37.1 502.3 37.6Z" />
		<path id="Layer" class="shp16" d="M503.3 34.4L504.6 34.4L504.6 35.6L503.3 35.6L503.3 34.4ZM503.3 36.2L504.6 36.2L504.6 41L503.3 41L503.3 36.2Z" />
		<path id="Layer" fill-rule="evenodd" class="shp16" d="M506.8 37.7L505.6 37.5C505.7 37 506 36.7 506.3 36.5C506.6 36.3 507.1 36.2 507.7 36.2C508.3 36.2 508.7 36.3 509 36.4C509.3 36.5 509.5 36.7 509.6 36.9C509.7 37.1 509.8 37.5 509.8 38L509.8 39.5C509.8 39.9 509.8 40.2 509.9 40.4C509.9 40.6 510 40.8 510.1 41L508.8 41C508.8 40.9 508.7 40.8 508.7 40.6C508.7 40.5 508.7 40.5 508.7 40.5C508.5 40.7 508.3 40.9 508 41C507.8 41.1 507.5 41.2 507.2 41.2C506.7 41.2 506.3 41.1 506 40.8C505.7 40.5 505.6 40.2 505.6 39.8C505.6 39.5 505.7 39.3 505.8 39.1C505.9 38.9 506.1 38.7 506.3 38.6C506.5 38.5 506.9 38.4 507.3 38.3C507.9 38.2 508.3 38.1 508.5 38L508.5 37.9C508.5 37.7 508.4 37.5 508.3 37.4C508.2 37.3 508 37.2 507.6 37.2C507.4 37.2 507.2 37.2 507.1 37.3C507 37.3 506.9 37.5 506.8 37.7ZM508.4 38.7L508.4 38.74C508.43 38.73 508.47 38.72 508.5 38.7L508.4 38.7ZM507.7 38.9C507.3 39 507.1 39.1 507 39.1C506.8 39.2 506.7 39.4 506.7 39.5C506.7 39.7 506.8 39.8 506.9 40C507 40.1 507.2 40.2 507.4 40.2C507.6 40.2 507.8 40.1 508.1 40C508.3 39.9 508.4 39.7 508.4 39.6C508.4 39.5 508.4 39.3 508.4 39L508.4 38.74C508.23 38.8 508.03 38.82 507.7 38.9Z" />
		<path id="Layer" class="shp16" d="M511 34.4L512.3 34.4L512.3 41L511 41L511 34.4Z" />
		<path id="Layer" class="shp16" d="M513.6 34.4L514.9 34.4L514.9 35.6L513.6 35.6L513.6 34.4ZM513.6 36.2L514.9 36.2L514.9 41L513.6 41L513.6 36.2Z" />
		<path id="Layer" class="shp16" d="M515.7 39.7L517 39.5C517.1 39.7 517.2 39.9 517.3 40.1C517.5 40.2 517.7 40.3 518 40.3C518.3 40.3 518.6 40.2 518.7 40.1C518.8 40 518.9 39.9 518.9 39.8C518.9 39.7 518.9 39.6 518.8 39.6C518.7 39.5 518.6 39.5 518.4 39.4C517.4 39.2 516.7 39 516.5 38.8C516.1 38.5 515.9 38.2 515.9 37.7C515.9 37.3 516.1 36.9 516.4 36.7C516.7 36.4 517.2 36.3 517.9 36.3C518.6 36.3 519 36.4 519.4 36.6C519.7 36.8 519.9 37.1 520.1 37.5L518.9 37.7C518.9 37.5 518.8 37.4 518.6 37.3C518.5 37.2 518.3 37.2 518 37.2C517.7 37.2 517.4 37.2 517.3 37.3C517.2 37.4 517.2 37.5 517.2 37.6C517.2 37.7 517.2 37.8 517.3 37.8C517.4 37.9 517.8 38 518.5 38.2C519.2 38.4 519.6 38.5 519.9 38.8C520.2 39 520.3 39.3 520.3 39.7C520.3 40.1 520.1 40.5 519.7 40.8C519.3 41.1 518.8 41.3 518.1 41.3C517.4 41.3 516.9 41.2 516.5 40.9C516 40.5 515.8 40.1 515.7 39.7Z" />
		<path id="Layer" class="shp16" d="M523.5 36.2L523.5 37.2L522.6 37.2L522.6 39.1C522.6 39.5 522.6 39.7 522.6 39.8C522.6 39.9 522.7 39.9 522.7 40C522.8 40 522.8 40.1 522.9 40.1C523 40.1 523.2 40.1 523.4 40L523.5 41C523.2 41.1 522.9 41.2 522.5 41.2C522.3 41.2 522.1 41.2 521.9 41.1C521.7 41 521.6 40.9 521.5 40.8C521.4 40.7 521.4 40.5 521.3 40.3C521.3 40.2 521.3 39.9 521.3 39.4L521.3 37.3L520.7 37.3L520.7 36.3L521.3 36.3L521.3 35.3L522.6 34.6L522.6 36.3L523.5 36.3L523.5 36.2Z" />
		<path id="Layer" fill-rule="evenodd" class="shp16" d="M525.3 37.7L524.1 37.5C524.2 37 524.5 36.7 524.8 36.5C525.1 36.3 525.6 36.2 526.2 36.2C526.8 36.2 527.2 36.3 527.5 36.4C527.8 36.5 528 36.7 528.1 36.9C528.2 37.1 528.3 37.5 528.3 38L528.3 39.5C528.3 39.9 528.3 40.2 528.4 40.4C528.4 40.6 528.5 40.8 528.6 41L527.3 41C527.3 40.9 527.2 40.8 527.2 40.6C527.2 40.5 527.2 40.5 527.2 40.5C527 40.7 526.7 40.9 526.5 41C526.3 41.1 526 41.2 525.7 41.2C525.2 41.2 524.8 41.1 524.5 40.8C524.2 40.5 524.1 40.2 524.1 39.8C524.1 39.5 524.2 39.3 524.3 39.1C524.4 38.9 524.6 38.7 524.8 38.6C525 38.5 525.4 38.4 525.8 38.3C526.4 38.2 526.8 38.1 527 38L527 37.9C527 37.7 526.9 37.5 526.8 37.4C526.7 37.3 526.5 37.2 526.1 37.2C525.9 37.2 525.7 37.2 525.6 37.3C525.5 37.3 525.4 37.5 525.3 37.7ZM527 38.7C526.8 38.8 526.6 38.8 526.2 38.9C525.8 39 525.6 39.1 525.5 39.1C525.3 39.2 525.3 39.4 525.3 39.5C525.3 39.7 525.4 39.8 525.5 40C525.6 40.1 525.8 40.2 526 40.2C526.2 40.2 526.4 40.1 526.7 40C526.9 39.9 527 39.7 527 39.6C527 39.5 527 39.3 527 39L527 38.7Z" />
		<path id="Layer" fill-rule="evenodd" class="shp15" d="M85 40.4C84.5 41.2 83.8 41.5 82.8 41.5C82.2 41.5 81.6 41.3 81.1 41C80.6 40.7 80.2 40.2 79.9 39.6C79.6 39 79.5 38.3 79.5 37.5C79.5 36.7 79.6 36 79.9 35.4C80.2 34.8 80.5 34.3 81.1 34C81.6 33.7 82.2 33.5 82.8 33.5C83.3 33.5 83.7 33.6 84 33.8C84.4 34 84.7 34.2 84.9 34.6L84.9 30.8L86.2 30.8L86.2 41.5L85 41.5L85 40.4ZM80.9 37.5C80.9 38.5 81.1 39.2 81.5 39.7C81.9 40.2 82.4 40.4 83 40.4C83.6 40.4 84.1 40.2 84.5 39.7C84.9 39.2 85.1 38.5 85.1 37.6C85.1 36.5 84.9 35.8 84.5 35.3C84.1 34.8 83.6 34.6 83 34.6C82.4 34.6 81.9 34.8 81.5 35.3C81.1 35.7 80.9 36.5 80.9 37.5Z" />
		<path id="Layer" fill-rule="evenodd" class="shp15" d="M92.9 38.9L94.3 39.1C94.1 39.9 93.7 40.5 93.1 40.9C92.5 41.3 91.8 41.6 90.9 41.6C89.8 41.6 88.9 41.3 88.2 40.6C87.5 39.9 87.2 38.9 87.2 37.7C87.2 36.4 87.5 35.4 88.2 34.7C88.9 34 89.7 33.6 90.8 33.6C91.8 33.6 92.7 33.9 93.3 34.7C94 35.4 94.3 36.4 94.3 37.7C94.3 37.8 94.3 37.9 94.3 38L88.5 38C88.5 38.8 88.8 39.5 89.2 39.9C89.6 40.4 90.2 40.6 90.8 40.6C91.3 40.6 91.7 40.5 92 40.2C92.5 39.8 92.7 39.4 92.9 38.9ZM88.6 36.8L92.9 36.8C92.8 36.2 92.7 35.7 92.4 35.3C92 34.8 91.4 34.5 90.8 34.5C90.2 34.5 89.7 34.7 89.3 35.1C88.9 35.5 88.7 36.1 88.6 36.8Z" />
		<path id="Layer" class="shp15" d="M102 41.4L97.9 30.8L99.4 30.8L102.2 38.5C102.4 39.1 102.6 39.7 102.8 40.2C103 39.6 103.2 39 103.4 38.5L106.3 30.8L107.7 30.8L103.5 41.4L102 41.4Z" />
		<path id="Layer" fill-rule="evenodd" class="shp15" d="M113.3 38.9L114.7 39.1C114.5 39.9 114.1 40.5 113.5 40.9C112.9 41.3 112.2 41.6 111.3 41.6C110.2 41.6 109.3 41.3 108.6 40.6C107.9 39.9 107.6 38.9 107.6 37.7C107.6 36.4 107.9 35.4 108.6 34.7C109.3 34 110.1 33.6 111.2 33.6C112.2 33.6 113.1 33.9 113.7 34.7C114.4 35.4 114.7 36.4 114.7 37.7C114.7 37.8 114.7 37.9 114.7 38L108.9 38C108.9 38.8 109.2 39.5 109.6 39.9C110 40.4 110.6 40.6 111.2 40.6C111.7 40.6 112.1 40.5 112.4 40.2C112.8 39.8 113.1 39.4 113.3 38.9ZM109 36.8L113.3 36.8C113.2 36.2 113.1 35.7 112.8 35.3C112.4 34.8 111.8 34.5 111.2 34.5C110.6 34.5 110.1 34.7 109.7 35.1C109.3 35.5 109.1 36.1 109 36.8Z" />
		<path id="Layer" class="shp15" d="M115.6 41.4L115.6 33.7L116.8 33.7L116.8 34.8C117.4 34 118.2 33.5 119.3 33.5C119.8 33.5 120.2 33.6 120.6 33.8C121 34 121.3 34.2 121.5 34.5C121.7 34.8 121.8 35.1 121.9 35.5C121.9 35.7 122 36.2 122 36.8L122 41.5L120.7 41.5L120.7 36.8C120.7 36.3 120.6 35.9 120.5 35.6C120.4 35.3 120.2 35.1 120 35C119.7 34.8 119.4 34.8 119.1 34.8C118.5 34.8 118.1 35 117.7 35.3C117.3 35.7 117.1 36.3 117.1 37.3L117.1 41.5L115.6 41.5L115.6 41.4Z" />
		<path id="Layer" fill-rule="evenodd" class="shp15" d="M128.5 38.9L129.9 39.1C129.7 39.9 129.3 40.5 128.7 40.9C128.1 41.3 127.4 41.6 126.5 41.6C125.4 41.6 124.5 41.3 123.8 40.6C123.1 39.9 122.8 38.9 122.8 37.7C122.8 36.4 123.1 35.4 123.8 34.7C124.5 34 125.3 33.6 126.4 33.6C127.4 33.6 128.3 33.9 128.9 34.7C129.6 35.4 129.9 36.4 129.9 37.7C129.9 37.8 129.9 37.9 129.9 38L124.1 38C124.2 38.8 124.4 39.5 124.8 39.9C125.2 40.4 125.8 40.6 126.4 40.6C126.9 40.6 127.3 40.5 127.6 40.2C128.1 39.8 128.3 39.4 128.5 38.9ZM124.3 36.8L128.6 36.8C128.5 36.2 128.4 35.7 128.1 35.3C127.7 34.8 127.1 34.5 126.5 34.5C125.9 34.5 125.4 34.7 125 35.1C124.5 35.5 124.3 36.1 124.3 36.8Z" />
		<path id="Layer" class="shp15" d="M130.2 41.4L130.2 40.3L135.1 34.7C134.5 34.7 134 34.7 133.6 34.7L130.5 34.7L130.5 33.6L136.8 33.6L136.8 34.5L132.6 39.4L131.8 40.3C132.4 40.3 132.9 40.2 133.4 40.2L137 40.2L137 41.3L130.2 41.3L130.2 41.4Z" />
		<path id="Layer" class="shp15" d="M142.7 41.4L142.7 40.3C142.1 41.2 141.3 41.6 140.2 41.6C139.7 41.6 139.3 41.5 138.9 41.3C138.5 41.1 138.2 40.9 138 40.6C137.8 40.3 137.7 40 137.6 39.6C137.5 39.3 137.5 38.9 137.5 38.4L137.5 33.6L138.8 33.6L138.8 37.9C138.8 38.6 138.8 39 138.9 39.3C139 39.6 139.2 39.9 139.4 40.1C139.7 40.3 140 40.4 140.4 40.4C140.8 40.4 141.2 40.3 141.5 40.1C141.8 39.9 142.1 39.6 142.2 39.3C142.3 39 142.4 38.4 142.4 37.8L142.4 33.7L143.7 33.7L143.7 41.4L142.7 41.4L142.7 41.4Z" />
		<path id="Layer" fill-rule="evenodd" class="shp15" d="M150.6 38.9L152 39.1C151.8 39.9 151.4 40.5 150.8 40.9C150.2 41.3 149.5 41.6 148.6 41.6C147.5 41.6 146.6 41.3 145.9 40.6C145.2 39.9 144.9 38.9 144.9 37.7C144.9 36.4 145.2 35.4 145.9 34.7C146.6 34 147.4 33.6 148.5 33.6C149.5 33.6 150.4 33.9 151 34.7C151.7 35.4 152 36.4 152 37.7C152 37.8 152 37.9 152 38L146.2 38C146.2 38.8 146.5 39.5 146.9 39.9C147.3 40.4 147.9 40.6 148.5 40.6C149 40.6 149.4 40.5 149.7 40.2C150.1 39.8 150.4 39.4 150.6 38.9ZM146.3 36.8L150.6 36.8C150.5 36.2 150.4 35.7 150.1 35.3C149.7 34.8 149.1 34.5 148.5 34.5C147.9 34.5 147.4 34.7 147 35.1C146.5 35.5 146.3 36.1 146.3 36.8Z" />
		<path id="Layer" class="shp15" d="M152.9 30.7L154.2 30.7L154.2 41.3L152.9 41.3L152.9 30.7Z" />
		<path id="Layer" fill-rule="evenodd" class="shp15" d="M160.6 40.4C160.1 40.8 159.6 41.1 159.2 41.3C158.8 41.5 158.3 41.6 157.8 41.6C156.9 41.6 156.3 41.4 155.8 41C155.3 40.6 155.1 40.1 155.1 39.4C155.1 39 155.2 38.7 155.4 38.4C155.6 38.1 155.8 37.8 156.1 37.6C156.4 37.4 156.7 37.3 157 37.2C157.3 37.1 157.6 37.1 158.2 37C159.3 36.9 160 36.7 160.5 36.6C160.5 36.4 160.5 36.3 160.5 36.3C160.5 35.8 160.4 35.4 160.1 35.2C159.8 34.9 159.3 34.8 158.6 34.8C158 34.8 157.5 34.9 157.2 35.1C156.9 35.3 156.7 35.7 156.6 36.2L155.3 36C155.4 35.5 155.6 35 155.9 34.7C156.2 34.4 156.5 34.1 157.1 33.9C157.6 33.7 158.2 33.6 158.9 33.6C159.6 33.6 160.1 33.7 160.5 33.8C160.9 34 161.2 34.2 161.4 34.4C161.6 34.6 161.7 34.9 161.8 35.3C161.8 35.5 161.9 35.9 161.9 36.5L161.9 38.2C161.9 39.4 161.9 40.2 162 40.5C162.1 40.8 162.2 41.1 162.3 41.4L160.9 41.4C160.7 41.1 160.6 40.8 160.6 40.4ZM160.5 37.5C160 37.7 159.3 37.9 158.4 38C157.9 38.1 157.5 38.2 157.3 38.3C157.1 38.4 156.9 38.5 156.8 38.7C156.7 38.9 156.6 39.1 156.6 39.3C156.6 39.6 156.7 39.9 157 40.2C157.3 40.4 157.7 40.5 158.2 40.5C158.7 40.5 159.2 40.4 159.5 40.2C159.9 40 160.2 39.7 160.4 39.3C160.5 39 160.6 38.6 160.6 38L160.6 37.5L160.5 37.5Z" />
		<path id="Layer" class="shp15" d="M85.2 24.9L85.2 23.7L89.7 23.7L89.7 27.7C89 28.3 88.3 28.7 87.6 28.9C86.9 29.2 86.1 29.3 85.3 29.3C84.3 29.3 83.3 29.1 82.4 28.6C81.5 28.1 80.9 27.5 80.5 26.7C80.1 25.9 79.8 24.9 79.8 23.9C79.8 22.9 80 21.9 80.4 21C80.8 20.1 81.5 19.4 82.3 19C83.1 18.6 84.1 18.3 85.1 18.3C85.9 18.3 86.6 18.4 87.2 18.7C87.8 18.9 88.3 19.3 88.7 19.7C89.1 20.1 89.3 20.7 89.5 21.4L88.2 21.8C88 21.3 87.8 20.8 87.6 20.5C87.4 20.2 87 19.9 86.6 19.8C86.2 19.6 85.7 19.5 85.1 19.5C84.5 19.5 83.9 19.6 83.4 19.8C82.9 20 82.6 20.3 82.3 20.6C82 20.9 81.8 21.3 81.6 21.7C81.3 22.4 81.2 23.1 81.2 23.8C81.2 24.7 81.4 25.5 81.7 26.2C82 26.8 82.5 27.3 83.1 27.6C83.7 27.9 84.4 28.1 85.1 28.1C85.7 28.1 86.3 28 86.9 27.7C87.5 27.5 87.9 27.2 88.2 26.9L88.2 24.9L85.2 24.9Z" />
		<path id="Layer" fill-rule="evenodd" class="shp15" d="M90.5 25.2C90.5 23.8 90.9 22.7 91.7 22C92.4 21.4 93.2 21.1 94.1 21.1C95.2 21.1 96 21.5 96.7 22.1C97.4 22.8 97.7 23.8 97.7 25C97.7 26 97.5 26.8 97.2 27.3C96.9 27.9 96.5 28.3 95.9 28.6C95.3 28.9 94.7 29.1 94 29.1C92.9 29.1 92 28.8 91.4 28.1C90.8 27.5 90.5 26.5 90.5 25.2ZM91.8 25.2C91.8 26.2 92 26.9 92.4 27.4C92.8 27.9 93.4 28.1 94 28.1C94.6 28.1 95.2 27.9 95.6 27.4C96 26.9 96.2 26.2 96.2 25.1C96.2 24.1 96 23.4 95.5 22.9C95.1 22.4 94.5 22.2 93.9 22.2C93.2 22.2 92.7 22.4 92.3 22.9C92 23.5 91.8 24.2 91.8 25.2Z" />
		<path id="Layer" fill-rule="evenodd" class="shp15" d="M98.6 29.1L98.6 18.4L99.9 18.4L99.9 22.2C100.5 21.5 101.2 21.2 102 21.2C102.5 21.2 102.9 21.3 103.3 21.5C103.7 21.7 104.1 22 104.3 22.3C104.6 22.6 104.8 23.1 104.9 23.5C105.1 24 105.1 24.5 105.1 25.1C105.1 26.4 104.8 27.4 104.1 28.2C103.4 28.9 102.7 29.3 101.7 29.3C100.8 29.3 100.1 28.9 99.6 28.2L99.6 29.1L98.6 29.1ZM99.8 25.2C99.8 26.1 99.9 26.8 100.2 27.2C100.6 27.9 101.2 28.2 101.9 28.2C102.5 28.2 103 28 103.4 27.5C103.8 27 104 26.3 104 25.3C104 24.3 103.8 23.5 103.4 23.1C103 22.6 102.5 22.4 102 22.4C101.4 22.4 100.9 22.6 100.5 23.2C100 23.5 99.8 24.2 99.8 25.2Z" />
		<path id="Layer" fill-rule="evenodd" class="shp15" d="M106.2 19.9L107.5 19.9L107.5 18.4L106.2 18.4L106.2 19.9ZM106.2 29.1L107.5 29.1L107.5 21.4L106.2 21.4L106.2 29.1Z" />
		<path id="Layer" fill-rule="evenodd" class="shp15" d="M114.1 26.6L115.5 26.8C115.3 27.6 114.9 28.2 114.3 28.6C113.7 29 113 29.3 112.1 29.3C111 29.3 110.1 29 109.4 28.3C108.7 27.6 108.4 26.6 108.4 25.4C108.4 24.1 108.7 23.1 109.4 22.4C110.1 21.7 110.9 21.3 112 21.3C113 21.3 113.9 21.7 114.5 22.4C115.2 23.1 115.5 24.1 115.5 25.4C115.5 25.5 115.5 25.6 115.5 25.7L109.7 25.7C109.7 26.5 110 27.2 110.4 27.6C110.8 28.1 111.4 28.3 112 28.3C112.5 28.3 112.9 28.2 113.2 27.9C113.7 27.6 113.9 27.2 114.1 26.6ZM109.8 24.5L114.1 24.5C114 23.8 113.9 23.4 113.6 23C113.2 22.5 112.6 22.2 112 22.2C111.4 22.2 110.9 22.4 110.5 22.8C110.1 23.3 109.9 23.8 109.8 24.5Z" />
		<path id="Layer" class="shp15" d="M116.5 29.1L116.5 21.4L117.7 21.4L117.7 22.6C118 22.1 118.3 21.7 118.5 21.5C118.8 21.3 119 21.2 119.3 21.2C119.7 21.2 120.2 21.3 120.6 21.6L120.2 22.8C119.9 22.6 119.6 22.5 119.2 22.5C118.9 22.5 118.7 22.6 118.4 22.8C118.2 23 118 23.2 117.9 23.5C117.8 24 117.7 24.5 117.7 25L117.7 29L116.5 29L116.5 29.1Z" />
		<path id="Layer" class="shp15" d="M120.8 29.1L120.8 21.4L122 21.4L122 22.5C122.6 21.6 123.4 21.2 124.5 21.2C125 21.2 125.4 21.3 125.8 21.5C126.2 21.7 126.5 21.9 126.7 22.2C126.9 22.5 127 22.8 127.1 23.2C127.2 23.4 127.2 23.9 127.2 24.5L127.2 29.2L125.9 29.2L125.9 24.5C125.9 24 125.9 23.6 125.7 23.3C125.6 23 125.4 22.8 125.2 22.7C124.9 22.5 124.6 22.5 124.3 22.5C123.7 22.5 123.3 22.7 122.9 23C122.5 23.4 122.3 24 122.3 25L122.3 29.2L120.8 29.2L120.8 29.1Z" />
		<path id="Layer" fill-rule="evenodd" class="shp15" d="M127.9 25.2C127.9 23.8 128.3 22.7 129.1 22C129.8 21.4 130.6 21.1 131.5 21.1C132.6 21.1 133.4 21.5 134.1 22.1C134.8 22.8 135.1 23.8 135.1 25C135.1 26 134.9 26.8 134.6 27.3C134.3 27.9 133.9 28.3 133.3 28.6C132.7 28.9 132.1 29.1 131.4 29.1C130.3 29.1 129.4 28.8 128.8 28.1C128.2 27.5 127.9 26.5 127.9 25.2ZM129.2 25.2C129.2 26.2 129.4 26.9 129.8 27.4C130.2 27.9 130.8 28.1 131.4 28.1C132 28.1 132.6 27.9 133 27.4C133.4 26.9 133.6 26.2 133.6 25.1C133.6 24.1 133.4 23.4 132.9 22.9C132.5 22.4 131.9 22.2 131.3 22.2C130.6 22.2 130.1 22.4 129.7 22.9C129.5 23.5 129.2 24.2 129.2 25.2Z" />
		<path id="Layer" fill-rule="evenodd" class="shp16" d="M143.9 18.4C144.7 18.4 145.4 18.4 145.8 18.5C146.2 18.6 146.6 18.7 146.9 18.9C147.2 19.1 147.5 19.4 147.7 19.8C147.9 20.2 148 20.6 148 21C148 21.5 147.9 22 147.6 22.4C147.3 22.8 147 23.1 146.5 23.3C147.1 23.5 147.6 23.8 148 24.3C148.3 24.8 148.5 25.3 148.5 25.9C148.5 26.4 148.4 26.9 148.2 27.3C148 27.8 147.7 28.1 147.3 28.4C146.9 28.7 146.4 28.8 145.9 28.9C145.5 28.9 144.7 29 143.3 29L139.7 29L139.7 18.4L143.9 18.4ZM141.7 22.7C142.5 22.7 144.5 22.7 144.7 22.7C145.1 22.7 145.4 22.5 145.6 22.3C145.8 22.1 145.9 21.8 145.9 21.5C145.9 21.2 145.8 20.9 145.6 20.7C145.4 20.5 145.2 20.4 144.8 20.3C144.6 20.3 144 20.3 143 20.3L141.7 20.3L141.7 22.7ZM141.7 27.3L143.7 27.3C144.5 27.3 145 27.3 145.2 27.2C145.5 27.1 145.8 27 146 26.8C146.2 26.6 146.3 26.3 146.3 25.9C146.3 25.6 146.2 25.3 146.1 25.1C145.9 24.9 145.7 24.7 145.4 24.6C145.1 24.5 144.5 24.4 143.5 24.4L141.7 24.4L141.7 27.3Z" />
		<path id="Layer" fill-rule="evenodd" class="shp16" d="M149.2 25.1C149.2 24.4 149.4 23.8 149.7 23.1C150 22.5 150.5 22 151.1 21.6C151.7 21.3 152.4 21.1 153.2 21.1C154.4 21.1 155.3 21.5 156.1 22.2C156.8 23 157.2 23.9 157.2 25.1C157.2 26.3 156.8 27.2 156.1 28C155.3 28.8 154.4 29.1 153.3 29.1C152.6 29.1 151.9 28.9 151.3 28.6C150.7 28.3 150.2 27.8 149.8 27.2C149.4 26.8 149.2 26 149.2 25.1ZM151.3 25.2C151.3 26 151.5 26.6 151.8 27C152.2 27.4 152.6 27.6 153.1 27.6C153.6 27.6 154.1 27.4 154.4 27C154.8 26.6 154.9 26 154.9 25.2C154.9 24.4 154.7 23.9 154.4 23.5C154 23.1 153.6 22.9 153.1 22.9C152.6 22.9 152.1 23.1 151.8 23.5C151.5 23.9 151.3 24.5 151.3 25.2Z" />
		<path id="Layer" class="shp16" d="M158.1 18.4L160.1 18.4L160.1 29.1L158.1 29.1L158.1 18.4Z" />
		<path id="Layer" fill-rule="evenodd" class="shp16" d="M161.6 20.3L163.6 20.3L163.6 18.4L161.6 18.4L161.6 20.3ZM161.6 29.1L163.6 29.1L163.6 21.4L161.6 21.4L161.6 29.1Z" />
		<path id="Layer" class="shp16" d="M167.2 29.1L164.1 21.4L166.2 21.4L167.7 25.3L168.1 26.6C168.2 26.3 168.3 26 168.3 25.9C168.4 25.7 168.4 25.5 168.5 25.2L170 21.3L172.1 21.3L169 29L167.2 29L167.2 29.1Z" />
		<path id="Layer" fill-rule="evenodd" class="shp16" d="M174.2 23.7L172.3 23.4C172.5 22.7 172.9 22.1 173.4 21.7C173.9 21.3 174.7 21.2 175.7 21.2C176.6 21.2 177.3 21.3 177.7 21.5C178.1 21.7 178.5 22 178.6 22.3C178.8 22.6 178.9 23.2 178.9 24.1L178.9 26.5C178.9 27.2 178.9 27.7 179 28C179.1 28.3 179.2 28.7 179.4 29L177.4 29C177.3 28.9 177.3 28.7 177.2 28.4C177.2 28.3 177.1 28.2 177.1 28.2C176.8 28.5 176.4 28.8 176 29C175.6 29.2 175.2 29.3 174.7 29.3C173.9 29.3 173.3 29.1 172.8 28.7C172.3 28.3 172.1 27.7 172.1 27.1C172.1 26.7 172.2 26.3 172.4 25.9C172.6 25.6 172.9 25.3 173.3 25.1C173.7 24.9 174.2 24.8 174.9 24.6C175.9 24.4 176.5 24.3 176.9 24.1L176.9 23.9C176.9 23.5 176.8 23.2 176.6 23.1C176.4 22.9 176 22.8 175.5 22.8C175.1 22.8 174.9 22.9 174.6 23C174.5 23.1 174.3 23.4 174.2 23.7ZM176.9 25.4C176.6 25.5 176.2 25.6 175.7 25.7C175.1 25.8 174.8 25.9 174.6 26.1C174.3 26.3 174.2 26.5 174.2 26.8C174.2 27.1 174.3 27.3 174.5 27.5C174.7 27.7 175 27.8 175.3 27.8C175.7 27.8 176 27.7 176.4 27.4C176.6 27.2 176.8 27 176.9 26.7C177 26.5 177 26.2 177 25.7L177 25.4L176.9 25.4Z" />
		<path id="Layer" class="shp16" d="M182.3 29.1L180.3 29.1L180.3 21.4L182.2 21.4L182.2 22.5C182.5 22 182.8 21.6 183.1 21.5C183.4 21.3 183.7 21.3 184 21.3C184.5 21.3 184.9 21.4 185.3 21.7L184.7 23.5C184.4 23.3 184 23.2 183.7 23.2C183.4 23.2 183.2 23.3 183 23.4C182.8 23.6 182.6 23.8 182.5 24.2C182.4 24.6 182.3 25.5 182.3 26.8L182.3 29.1L182.3 29.1Z" />
		<path id="Layer" fill-rule="evenodd" class="shp16" d="M185.4 20.3L187.4 20.3L187.4 18.4L185.4 18.4L185.4 20.3ZM185.4 29.1L187.4 29.1L187.4 21.4L185.4 21.4L185.4 29.1Z" />
		<path id="Layer" fill-rule="evenodd" class="shp16" d="M190.4 23.7L188.5 23.4C188.7 22.7 189.1 22.1 189.6 21.7C190.1 21.3 190.9 21.2 191.9 21.2C192.8 21.2 193.5 21.3 193.9 21.5C194.3 21.7 194.7 22 194.8 22.3C195 22.6 195.1 23.2 195.1 24.1L195.1 26.5C195.1 27.2 195.1 27.7 195.2 28C195.3 28.3 195.4 28.7 195.6 29L193.6 29C193.5 28.9 193.5 28.7 193.4 28.4C193.4 28.3 193.3 28.2 193.3 28.2C193 28.5 192.6 28.8 192.2 29C191.8 29.2 191.4 29.3 190.9 29.3C190.1 29.3 189.5 29.1 189 28.7C188.5 28.3 188.3 27.7 188.3 27.1C188.3 26.7 188.4 26.3 188.6 25.9C188.8 25.6 189.1 25.3 189.5 25.1C189.9 24.9 190.4 24.8 191.1 24.6C192.1 24.4 192.7 24.3 193.1 24.1L193.1 23.9C193.1 23.5 193 23.2 192.8 23.1C192.6 22.9 192.2 22.8 191.7 22.8C191.3 22.8 191.1 22.9 190.8 23C190.7 23.1 190.6 23.4 190.4 23.7ZM193.2 25.4C192.9 25.5 192.5 25.6 192 25.7C191.4 25.8 191.1 25.9 190.9 26.1C190.6 26.3 190.5 26.5 190.5 26.8C190.5 27.1 190.6 27.3 190.8 27.5C191 27.7 191.3 27.8 191.6 27.8C192 27.8 192.3 27.7 192.7 27.4C192.9 27.2 193.1 27 193.2 26.7C193.3 26.5 193.3 26.2 193.3 25.7L193.3 25.4L193.2 25.4Z" />
		<path id="Layer" class="shp16" d="M203.6 29.1L201.6 29.1L201.6 25.2C201.6 24.4 201.6 23.8 201.5 23.6C201.4 23.4 201.3 23.2 201.1 23C200.9 22.9 200.7 22.8 200.4 22.8C200.1 22.8 199.7 22.9 199.5 23.1C199.2 23.3 199 23.6 198.9 23.9C198.8 24.2 198.7 24.8 198.7 25.7L198.7 29.2L196.7 29.2L196.7 21.5L198.6 21.5L198.6 22.6C199.3 21.7 200.1 21.3 201.1 21.3C201.5 21.3 202 21.4 202.3 21.5C202.7 21.7 203 21.9 203.1 22.1C203.3 22.4 203.4 22.6 203.5 23C203.6 23.3 203.6 23.8 203.6 24.4L203.6 29.1L203.6 29.1Z" />
		<path id="Layer" fill-rule="evenodd" class="shp16" d="M204.5 25.1C204.5 24.4 204.7 23.8 205 23.1C205.3 22.5 205.8 22 206.4 21.6C207 21.3 207.7 21.1 208.5 21.1C209.7 21.1 210.6 21.5 211.4 22.2C212.1 23 212.5 23.9 212.5 25.1C212.5 26.3 212.1 27.2 211.4 28C210.6 28.8 209.7 29.1 208.6 29.1C207.9 29.1 207.2 28.9 206.6 28.6C206 28.3 205.5 27.8 205.1 27.2C204.7 26.8 204.5 26 204.5 25.1ZM206.6 25.2C206.6 26 206.8 26.6 207.1 27C207.5 27.4 207.9 27.6 208.4 27.6C208.9 27.6 209.4 27.4 209.7 27C210.1 26.6 210.2 26 210.2 25.2C210.2 24.4 210 23.9 209.7 23.5C209.3 23.1 208.9 22.9 208.4 22.9C207.9 22.9 207.4 23.1 207.1 23.5C206.8 23.9 206.6 24.5 206.6 25.2Z" />
		<path id="Layer" class="shp17" d="M217.7 19L219.4 19L219.4 42L217.7 42L217.7 19Z" />
		<path id="Layer" class="shp17" d="M347.9 19.1L349.6 19.1L349.6 42.1L347.9 42.1L347.9 19.1Z" />
		<path id="Layer" class="shp15" d="M225.4 31.8L225.4 25.1L226.7 25.1L228.3 29.8C228.4 30.2 228.6 30.6 228.6 30.8C228.7 30.6 228.8 30.2 229 29.7L230.6 25.1L231.8 25.1L231.8 31.8L231 31.8L231 26.2L229.1 31.8L228.3 31.8L226.4 26.1L226.4 31.8L225.4 31.8Z" />
		<path id="Layer" class="shp15" d="M233 25.1L233.8 25.1L233.8 26L233 26L233 25.1ZM233 27L233.8 27L233.8 31.8L233 31.8L233 27Z" />
		<path id="Layer" class="shp15" d="M235.1 31.8L235.1 27L235.8 27L235.8 27.7C236.2 27.2 236.7 26.9 237.3 26.9C237.6 26.9 237.9 27 238.1 27.1C238.3 27.2 238.5 27.3 238.6 27.5C238.7 27.7 238.8 27.9 238.9 28.1C238.9 28.3 238.9 28.5 238.9 28.9L238.9 31.9L238.1 31.9L238.1 29C238.1 28.7 238.1 28.4 238 28.3C237.9 28.1 237.8 28 237.7 27.9C237.5 27.8 237.3 27.8 237.1 27.8C236.8 27.8 236.5 27.9 236.2 28.1C235.9 28.3 235.8 28.7 235.8 29.4L235.8 32L235.1 32L235.1 31.8Z" />
		<path id="Layer" class="shp15" d="M240.3 25.1L241.1 25.1L241.1 26L240.3 26L240.3 25.1ZM240.3 27L241.1 27L241.1 31.8L240.3 31.8L240.3 27Z" />
		<path id="Layer" class="shp15" d="M242 30.4L242.8 30.3C242.8 30.6 243 30.9 243.2 31C243.4 31.2 243.7 31.3 244.1 31.3C244.5 31.3 244.8 31.2 244.9 31.1C245.1 30.9 245.2 30.8 245.2 30.6C245.2 30.4 245.1 30.3 245 30.2C244.9 30.1 244.6 30 244.2 29.9C243.6 29.8 243.2 29.6 243 29.5C242.8 29.4 242.6 29.2 242.5 29C242.4 28.8 242.3 28.6 242.3 28.4C242.3 28.2 242.3 28 242.4 27.8C242.5 27.6 242.6 27.5 242.8 27.3C242.9 27.2 243.1 27.1 243.3 27.1C243.5 27 243.8 27 244 27C244.4 27 244.7 27.1 245 27.2C245.3 27.3 245.5 27.5 245.6 27.6C245.7 27.8 245.8 28 245.9 28.3L245.1 28.4C245.1 28.2 245 28 244.8 27.8C244.6 27.7 244.4 27.6 244.1 27.6C243.7 27.6 243.5 27.7 243.3 27.8C243.1 27.9 243.1 28.1 243.1 28.2C243.1 28.3 243.1 28.4 243.2 28.5C243.3 28.6 243.4 28.7 243.5 28.7C243.6 28.7 243.8 28.8 244.2 28.9C244.8 29.1 245.2 29.2 245.4 29.3C245.6 29.4 245.8 29.5 245.9 29.7C246 29.9 246.1 30.1 246.1 30.4C246.1 30.7 246 30.9 245.9 31.2C245.7 31.4 245.5 31.6 245.2 31.8C244.9 31.9 244.6 32 244.2 32C243.6 32 243.1 31.9 242.8 31.6C242.3 31.3 242.1 30.9 242 30.4Z" />
		<path id="Layer" class="shp15" d="M248.8 31.1L248.9 31.8C248.7 31.8 248.5 31.9 248.3 31.9C248 31.9 247.8 31.8 247.6 31.8C247.4 31.7 247.3 31.6 247.3 31.4C247.2 31.2 247.2 30.9 247.2 30.4L247.2 27.6L246.6 27.6L246.6 27L247.2 27L247.2 25.8L248 25.3L248 27L248.8 27L248.8 27.6L248 27.6L248 30.4C248 30.6 248 30.8 248 30.9C248 31 248.1 31 248.1 31.1C248.2 31.1 248.3 31.2 248.4 31.2C248.5 31.1 248.6 31.1 248.8 31.1Z" />
		<path id="Layer" fill-rule="evenodd" class="shp15" d="M252.9 30.2L253.7 30.3C253.6 30.8 253.3 31.2 253 31.4C252.6 31.7 252.2 31.8 251.6 31.8C250.9 31.8 250.3 31.6 249.9 31.2C249.5 30.8 249.3 30.2 249.3 29.4C249.3 28.6 249.5 28 249.9 27.5C250.3 27.1 250.9 26.8 251.5 26.8C252.1 26.8 252.7 27 253.1 27.5C253.5 27.9 253.7 28.6 253.7 29.4C253.7 29.4 253.7 29.5 253.7 29.6L250.1 29.6C250.1 30.1 250.3 30.5 250.5 30.8C250.8 31.1 251.1 31.2 251.5 31.2C251.8 31.2 252.1 31.1 252.3 31C252.6 30.8 252.7 30.6 252.9 30.2ZM250.2 28.9L252.9 28.9C252.9 28.5 252.8 28.2 252.6 28C252.3 27.7 252 27.5 251.6 27.5C251.2 27.5 250.9 27.6 250.7 27.9C250.4 28.2 250.2 28.5 250.2 28.9Z" />
		<path id="Layer" class="shp15" d="M254.7 31.8L254.7 27L255.4 27L255.4 27.7C255.6 27.4 255.8 27.1 255.9 27C256.1 26.9 256.2 26.8 256.4 26.8C256.7 26.8 257 26.9 257.2 27.1L256.9 27.9C256.7 27.8 256.5 27.7 256.3 27.7C256.1 27.7 256 27.8 255.8 27.9C255.7 28 255.6 28.2 255.5 28.3C255.4 28.6 255.4 28.9 255.4 29.3L255.4 31.8L254.7 31.8L254.7 31.8Z" />
		<path id="Layer" class="shp15" d="M257.8 25.1L258.6 25.1L258.6 26L257.8 26L257.8 25.1ZM257.8 27L258.6 27L258.6 31.8L257.8 31.8L257.8 27Z" />
		<path id="Layer" fill-rule="evenodd" class="shp15" d="M259.6 29.4C259.6 28.5 259.8 27.8 260.3 27.4C260.7 27 261.2 26.9 261.8 26.9C262.5 26.9 263 27.1 263.4 27.6C263.8 28 264 28.6 264 29.4C264 30 263.9 30.5 263.7 30.9C263.5 31.3 263.2 31.5 262.9 31.7C262.5 31.9 262.2 32 261.7 32C261 32 260.5 31.8 260.1 31.4C259.8 30.8 259.6 30.2 259.6 29.4ZM260.4 29.4C260.4 30 260.5 30.5 260.8 30.8C261.1 31.1 261.4 31.3 261.8 31.3C262.2 31.3 262.5 31.1 262.8 30.8C263.1 30.5 263.2 30 263.2 29.4C263.2 28.8 263.1 28.3 262.8 28C262.5 27.7 262.2 27.5 261.8 27.5C261.4 27.5 261.1 27.7 260.8 28C260.6 28.3 260.4 28.8 260.4 29.4Z" />
		<path id="Layer" fill-rule="evenodd" class="shp15" d="M270.8 31.2C270.5 31.7 270 31.9 269.5 31.9C269.1 31.9 268.8 31.8 268.4 31.6C268.1 31.4 267.8 31.1 267.7 30.7C267.5 30.3 267.4 29.9 267.4 29.4C267.4 28.9 267.5 28.5 267.6 28.1C267.8 27.7 268 27.4 268.3 27.2C268.6 27 269 26.9 269.4 26.9C269.7 26.9 270 27 270.2 27.1C270.4 27.2 270.6 27.4 270.8 27.6L270.8 25.2L271.6 25.2L271.6 31.9L270.8 31.9L270.8 31.2ZM268.2 29.4C268.2 30 268.3 30.5 268.6 30.8C268.9 31.1 269.2 31.3 269.5 31.3C269.9 31.3 270.2 31.2 270.4 30.9C270.6 30.6 270.8 30.2 270.8 29.6C270.8 28.9 270.7 28.5 270.4 28.1C270.1 27.8 269.8 27.6 269.5 27.6C269.1 27.6 268.8 27.7 268.6 28C268.3 28.3 268.2 28.8 268.2 29.4Z" />
		<path id="Layer" fill-rule="evenodd" class="shp15" d="M276.1 30.2L276.9 30.3C276.8 30.8 276.5 31.2 276.2 31.4C275.8 31.7 275.4 31.8 274.8 31.8C274.1 31.8 273.5 31.6 273.1 31.2C272.7 30.8 272.5 30.2 272.5 29.4C272.5 28.6 272.7 28 273.1 27.5C273.5 27.1 274.1 26.8 274.7 26.8C275.3 26.8 275.9 27 276.3 27.5C276.7 27.9 276.9 28.6 276.9 29.4C276.9 29.4 276.9 29.5 276.9 29.6L273.3 29.6C273.3 30.1 273.5 30.5 273.8 30.8C274.1 31.1 274.4 31.2 274.8 31.2C275.1 31.2 275.4 31.1 275.6 31C275.8 30.8 276 30.6 276.1 30.2ZM273.5 28.9L276.2 28.9C276.2 28.5 276.1 28.2 275.9 28C275.6 27.7 275.3 27.5 274.9 27.5C274.5 27.5 274.2 27.6 274 27.9C273.6 28.2 273.5 28.5 273.5 28.9Z" />
		<path id="Layer" class="shp15" d="M278 25.1L278.8 25.1L278.8 31.8L278 31.8L278 25.1Z" />
		<path id="Layer" fill-rule="evenodd" class="shp15" d="M282.8 25.1L285.3 25.1C285.7 25.1 286.1 25.1 286.3 25.2C286.6 25.3 286.9 25.4 287.1 25.5C287.3 25.7 287.5 25.9 287.6 26.1C287.7 26.4 287.8 26.7 287.8 27C287.8 27.6 287.6 28 287.3 28.4C286.9 28.8 286.3 29 285.3 29L283.6 29L283.6 31.7L282.8 31.7L282.8 25.1ZM285.3 28.3C285.9 28.3 286.3 28.2 286.5 28C286.7 27.8 286.9 27.5 286.9 27.1C286.9 26.8 286.8 26.6 286.7 26.4C286.6 26.2 286.4 26.1 286.1 26C286 26 285.7 25.9 285.3 25.9L283.6 25.9L283.6 28.3L285.3 28.3Z" />
		<path id="Layer" fill-rule="evenodd" class="shp15" d="M288.6 29.4C288.6 28.5 288.8 27.8 289.3 27.4C289.7 27 290.2 26.9 290.8 26.9C291.5 26.9 292 27.1 292.4 27.6C292.8 28 293 28.6 293 29.4C293 30 292.9 30.5 292.7 30.9C292.5 31.3 292.2 31.5 291.9 31.7C291.5 31.9 291.2 32 290.7 32C290 32 289.5 31.8 289.1 31.4C288.8 30.8 288.6 30.2 288.6 29.4ZM289.4 29.4C289.4 30 289.5 30.5 289.8 30.8C290.1 31.1 290.4 31.3 290.8 31.3C291.2 31.3 291.5 31.1 291.8 30.8C292.1 30.5 292.2 30 292.2 29.4C292.2 28.8 292.1 28.3 291.8 28C291.5 27.7 291.2 27.5 290.8 27.5C290.4 27.5 290.1 27.7 289.8 28C289.5 28.3 289.4 28.8 289.4 29.4Z" />
		<path id="Layer" fill-rule="evenodd" class="shp15" d="M297.2 31.2C296.9 31.7 296.4 31.9 295.8 31.9C295.4 31.9 295.1 31.8 294.7 31.6C294.4 31.4 294.1 31.1 294 30.7C293.8 30.3 293.7 29.9 293.7 29.4C293.7 28.9 293.8 28.5 293.9 28.1C294.1 27.7 294.3 27.4 294.6 27.2C294.9 27 295.3 26.9 295.7 26.9C296 26.9 296.3 27 296.5 27.1C296.7 27.2 296.9 27.4 297.1 27.6L297.1 25.2L297.9 25.2L297.9 31.9L297.2 31.9L297.2 31.2ZM294.6 29.4C294.6 30 294.7 30.5 295 30.8C295.3 31.1 295.6 31.3 295.9 31.3C296.3 31.3 296.6 31.2 296.8 30.9C297 30.6 297.2 30.2 297.2 29.6C297.2 28.9 297.1 28.5 296.8 28.1C296.5 27.8 296.2 27.6 295.9 27.6C295.5 27.6 295.2 27.7 295 28C294.7 28.3 294.6 28.8 294.6 29.4Z" />
		<path id="Layer" fill-rule="evenodd" class="shp15" d="M302.5 30.2L303.3 30.3C303.2 30.8 302.9 31.2 302.6 31.4C302.2 31.7 301.8 31.8 301.2 31.8C300.5 31.8 299.9 31.6 299.5 31.2C299.1 30.8 298.9 30.2 298.9 29.4C298.9 28.6 299.1 28 299.5 27.5C299.9 27.1 300.5 26.8 301.1 26.8C301.7 26.8 302.3 27 302.7 27.5C303.1 27.9 303.3 28.6 303.3 29.4C303.3 29.4 303.3 29.5 303.3 29.6L299.7 29.6C299.7 30.1 299.9 30.5 300.1 30.8C300.4 31.1 300.7 31.2 301.1 31.2C301.4 31.2 301.7 31.1 301.9 31C302.2 30.8 302.4 30.6 302.5 30.2ZM299.8 28.9L302.5 28.9C302.5 28.5 302.4 28.2 302.2 28C301.9 27.7 301.6 27.5 301.2 27.5C300.8 27.5 300.5 27.6 300.3 27.9C300 28.2 299.9 28.5 299.8 28.9Z" />
		<path id="Layer" class="shp15" d="M304.4 31.8L304.4 27L305.1 27L305.1 27.7C305.3 27.4 305.5 27.1 305.6 27C305.8 26.9 305.9 26.8 306.1 26.8C306.4 26.8 306.7 26.9 306.9 27.1L306.6 27.9C306.4 27.8 306.2 27.7 306 27.7C305.8 27.7 305.7 27.8 305.5 27.9C305.4 28 305.3 28.2 305.2 28.3C305.1 28.6 305.1 28.9 305.1 29.3L305.1 31.8L304.4 31.8L304.4 31.8Z" />
		<path id="Layer" fill-rule="evenodd" class="shp15" d="M310.2 25.1L312.7 25.1C313.1 25.1 313.5 25.1 313.7 25.2C314 25.3 314.3 25.4 314.5 25.5C314.7 25.7 314.9 25.9 315 26.1C315.1 26.4 315.2 26.7 315.2 27C315.2 27.6 315 28 314.7 28.4C314.3 28.8 313.7 29 312.7 29L311 29L311 31.7L310.2 31.7L310.2 25.1ZM312.8 28.3C313.4 28.3 313.8 28.2 314 28C314.2 27.8 314.4 27.5 314.4 27.1C314.4 26.8 314.3 26.6 314.2 26.4C314.1 26.2 313.9 26.1 313.6 26C313.5 26 313.2 25.9 312.8 25.9L311.1 25.9L311.1 28.3L312.8 28.3Z" />
		<path id="Layer" fill-rule="evenodd" class="shp15" d="M316 29.4C316 28.5 316.2 27.8 316.7 27.4C317.1 27 317.6 26.9 318.2 26.9C318.9 26.9 319.4 27.1 319.8 27.6C320.2 28 320.4 28.6 320.4 29.4C320.4 30 320.3 30.5 320.1 30.9C319.9 31.3 319.6 31.5 319.3 31.7C318.9 31.9 318.6 32 318.1 32C317.4 32 316.9 31.8 316.5 31.4C316.2 30.8 316 30.2 316 29.4ZM316.8 29.4C316.8 30 316.9 30.5 317.2 30.8C317.5 31.1 317.8 31.3 318.2 31.3C318.6 31.3 318.9 31.1 319.2 30.8C319.5 30.5 319.6 30 319.6 29.4C319.6 28.8 319.5 28.3 319.2 28C318.9 27.7 318.6 27.5 318.2 27.5C317.8 27.5 317.5 27.7 317.2 28C316.9 28.3 316.8 28.8 316.8 29.4Z" />
		<path id="Layer" fill-rule="evenodd" class="shp15" d="M321.5 27L322.2 27L322.2 27.6C322.4 27.4 322.6 27.2 322.8 27.1C323 27 323.3 26.9 323.6 26.9C324 26.9 324.4 27 324.7 27.2C325 27.4 325.3 27.7 325.4 28.1C325.6 28.5 325.6 28.9 325.6 29.4C325.6 29.9 325.5 30.3 325.3 30.7C325.1 31.1 324.9 31.4 324.5 31.6C324.2 31.8 323.8 31.9 323.4 31.9C323.1 31.9 322.9 31.8 322.7 31.7C322.5 31.6 322.3 31.4 322.2 31.3L322.2 33.6L321.5 33.6L321.5 27ZM322.2 29.4C322.2 30 322.3 30.5 322.6 30.8C322.9 31.1 323.2 31.2 323.5 31.2C323.9 31.2 324.2 31 324.4 30.7C324.7 30.4 324.8 29.9 324.8 29.3C324.8 28.7 324.7 28.2 324.4 27.9C324.2 27.6 323.8 27.4 323.5 27.4C323.2 27.4 322.8 27.6 322.6 27.9C322.3 28.3 322.2 28.8 322.2 29.4Z" />
		<path id="Layer" class="shp15" d="M329.8 31.8L329.8 31.1C329.4 31.6 328.9 31.9 328.3 31.9C328 31.9 327.7 31.8 327.5 31.7C327.3 31.6 327.1 31.5 327 31.3C326.9 31.1 326.8 30.9 326.7 30.7C326.7 30.5 326.6 30.3 326.6 29.9L326.6 26.9L327.4 26.9L327.4 29.6C327.4 30 327.4 30.3 327.4 30.5C327.4 30.7 327.6 30.9 327.7 31C327.9 31.1 328.1 31.2 328.3 31.2C328.5 31.2 328.8 31.1 329 31C329.2 30.9 329.4 30.7 329.5 30.5C329.6 30.3 329.6 30 329.6 29.6L329.6 27L330.4 27L330.4 31.8L329.8 31.8Z" />
		<path id="Layer" class="shp15" d="M331.8 25.1L332.6 25.1L332.6 31.8L331.8 31.8L331.8 25.1Z" />
		<path id="Layer" fill-rule="evenodd" class="shp15" d="M337 31.2C336.7 31.5 336.4 31.6 336.1 31.7C335.8 31.8 335.5 31.9 335.2 31.9C334.7 31.9 334.3 31.8 334 31.5C333.7 31.2 333.6 30.9 333.6 30.5C333.6 30.3 333.7 30 333.8 29.9C333.9 29.7 334 29.5 334.2 29.4C334.4 29.3 334.6 29.2 334.8 29.1C335 29.1 335.2 29 335.5 29C336.2 28.9 336.6 28.8 337 28.7C337 28.6 337 28.5 337 28.5C337 28.2 336.9 27.9 336.8 27.8C336.6 27.6 336.3 27.5 335.9 27.5C335.5 27.5 335.2 27.6 335 27.7C334.8 27.8 334.7 28.1 334.6 28.4L333.8 28.3C333.9 28 334 27.7 334.2 27.5C334.4 27.3 334.6 27.1 334.9 27C335.2 26.9 335.6 26.8 336 26.8C336.4 26.8 336.7 26.8 337 26.9C337.3 27 337.4 27.1 337.6 27.3C337.7 27.4 337.8 27.6 337.9 27.9C337.9 28 337.9 28.3 337.9 28.7L337.9 29.8C337.9 30.6 337.9 31 338 31.2C338 31.4 338.1 31.6 338.2 31.8L337.3 31.8C337.1 31.6 337 31.4 337 31.2ZM336.8 29.4L336.8 29.43C336.83 29.42 336.87 29.41 336.9 29.4L336.8 29.4ZM335.6 29.7C335.3 29.7 335 29.8 334.9 29.9C334.8 30 334.7 30 334.6 30.2C334.5 30.3 334.5 30.4 334.5 30.6C334.5 30.8 334.6 31 334.7 31.1C334.9 31.2 335.1 31.3 335.4 31.3C335.7 31.3 336 31.2 336.2 31.1C336.4 31 336.6 30.8 336.7 30.5C336.8 30.3 336.8 30 336.8 29.7L336.8 29.43C336.51 29.52 336.14 29.61 335.6 29.7Z" />
		<path id="Layer" class="shp15" d="M339 31.8L339 27L339.7 27L339.7 27.7C339.9 27.4 340.1 27.1 340.2 27C340.4 26.9 340.5 26.8 340.7 26.8C341 26.8 341.3 26.9 341.5 27.1L341.2 27.9C341 27.8 340.8 27.7 340.6 27.7C340.4 27.7 340.3 27.8 340.1 27.9C340 28 339.9 28.2 339.8 28.3C339.7 28.6 339.7 28.9 339.7 29.3L339.7 31.8L339 31.8L339 31.8Z" />
		<path id="Layer" fill-rule="evenodd" class="shp15" d="M225.3 36.3L226 36.3L226 36.9C226.2 36.7 226.4 36.5 226.6 36.3C226.8 36.2 227.1 36.1 227.4 36.1C227.8 36.1 228.2 36.2 228.5 36.4C228.8 36.6 229.1 36.9 229.2 37.3C229.4 37.7 229.4 38.1 229.4 38.6C229.4 39.1 229.3 39.5 229.1 39.9C228.9 40.3 228.7 40.6 228.3 40.8C228 41 227.6 41.1 227.2 41.1C226.9 41.1 226.7 41 226.5 40.9C226.3 40.8 226.1 40.6 226 40.5L226 42.8L225.3 42.8L225.3 36.3ZM226 38.7C226 39.3 226.1 39.8 226.4 40.1C226.7 40.4 227 40.5 227.3 40.5C227.7 40.5 228 40.3 228.2 40C228.5 39.7 228.6 39.2 228.6 38.6C228.6 38 228.5 37.5 228.2 37.2C227.9 36.9 227.6 36.7 227.3 36.7C227 36.7 226.6 36.9 226.4 37.2C226.1 37.6 226 38.1 226 38.7Z" />
		<path id="Layer" fill-rule="evenodd" class="shp15" d="M233.6 40.5C233.3 40.8 233 40.9 232.7 41C232.4 41.1 232.1 41.2 231.8 41.2C231.3 41.2 230.9 41.1 230.6 40.8C230.3 40.5 230.2 40.2 230.2 39.8C230.2 39.6 230.3 39.3 230.4 39.2C230.5 39 230.6 38.8 230.8 38.7C231 38.6 231.2 38.5 231.4 38.4C231.6 38.4 231.8 38.3 232.1 38.3C232.8 38.2 233.2 38.1 233.6 38C233.6 37.9 233.6 37.8 233.6 37.8C233.6 37.5 233.5 37.2 233.4 37.1C233.2 36.9 232.9 36.8 232.5 36.8C232.1 36.8 231.8 36.9 231.6 37C231.4 37.1 231.3 37.4 231.2 37.7L230.4 37.6C230.5 37.3 230.6 37 230.8 36.8C231 36.6 231.2 36.4 231.5 36.3C231.8 36.2 232.2 36.1 232.6 36.1C233 36.1 233.3 36.1 233.6 36.2C233.9 36.3 234 36.4 234.2 36.6C234.3 36.7 234.4 36.9 234.5 37.2C234.5 37.3 234.5 37.6 234.5 38L234.5 39.1C234.5 39.9 234.5 40.3 234.6 40.5C234.6 40.7 234.7 40.9 234.8 41.1L233.9 41.1C233.7 40.9 233.6 40.7 233.6 40.5ZM233.4 38.7L233.4 38.73C233.43 38.72 233.47 38.71 233.5 38.7L233.4 38.7ZM232.2 39C231.9 39 231.6 39.1 231.5 39.2C231.4 39.3 231.3 39.3 231.2 39.5C231.1 39.6 231.1 39.7 231.1 39.9C231.1 40.1 231.2 40.3 231.3 40.4C231.5 40.5 231.7 40.6 232 40.6C232.3 40.6 232.6 40.5 232.8 40.4C233 40.3 233.2 40.1 233.3 39.8C233.4 39.6 233.4 39.3 233.4 39L233.4 38.73C233.11 38.82 232.74 38.91 232.2 39Z" />
		<path id="Layer" class="shp15" d="M235.6 41.1L235.6 36.3L236.3 36.3L236.3 37C236.5 36.7 236.7 36.4 236.8 36.3C237 36.2 237.1 36.1 237.3 36.1C237.6 36.1 237.9 36.2 238.1 36.4L237.8 37.2C237.6 37.1 237.4 37 237.2 37C237 37 236.9 37.1 236.7 37.2C236.6 37.3 236.5 37.5 236.4 37.6C236.3 37.9 236.3 38.2 236.3 38.6L236.3 41.1L235.6 41.1L235.6 41.1Z" />
		<path id="Layer" fill-rule="evenodd" class="shp15" d="M241.9 40.5C241.6 40.8 241.3 40.9 241 41C240.7 41.1 240.4 41.2 240.1 41.2C239.6 41.2 239.2 41.1 238.9 40.8C238.6 40.5 238.5 40.2 238.5 39.8C238.5 39.6 238.6 39.3 238.7 39.2C238.8 39 238.9 38.8 239.1 38.7C239.3 38.6 239.5 38.5 239.7 38.4C239.9 38.4 240.1 38.3 240.4 38.3C241.1 38.2 241.5 38.1 241.9 38C241.9 37.9 241.9 37.8 241.9 37.8C241.9 37.5 241.8 37.2 241.7 37.1C241.5 36.9 241.2 36.8 240.8 36.8C240.4 36.8 240.1 36.9 239.9 37C239.7 37.1 239.6 37.4 239.5 37.7L238.7 37.6C238.8 37.3 238.9 37 239.1 36.8C239.3 36.6 239.5 36.4 239.8 36.3C240.1 36.2 240.5 36.1 240.9 36.1C241.3 36.1 241.6 36.1 241.9 36.2C242.2 36.3 242.3 36.4 242.5 36.6C242.6 36.7 242.7 36.9 242.8 37.2C242.8 37.3 242.8 37.6 242.8 38L242.8 39.1C242.8 39.9 242.8 40.3 242.9 40.5C242.9 40.7 243 40.9 243.1 41.1L242 41.1C241.9 40.9 241.9 40.7 241.9 40.5ZM241.7 38.7L241.7 38.73C241.73 38.72 241.77 38.71 241.8 38.7L241.7 38.7ZM240.5 39C240.2 39 239.9 39.1 239.8 39.2C239.7 39.3 239.6 39.3 239.5 39.5C239.4 39.6 239.4 39.7 239.4 39.9C239.4 40.1 239.5 40.3 239.6 40.4C239.8 40.5 240 40.6 240.3 40.6C240.6 40.6 240.9 40.5 241.1 40.4C241.3 40.3 241.5 40.1 241.6 39.8C241.7 39.6 241.7 39.3 241.7 39L241.7 38.73C241.41 38.82 241.04 38.91 240.5 39Z" />
		<path id="Layer" class="shp16" d="M246.5 34.4L247.3 34.4L247.3 41.1L246.5 41.1L246.5 34.4Z" />
		<path id="Layer" fill-rule="evenodd" class="shp16" d="M251.7 40.5C251.4 40.8 251.1 40.9 250.8 41C250.5 41.1 250.2 41.2 249.9 41.2C249.4 41.2 249 41.1 248.7 40.8C248.4 40.5 248.3 40.2 248.3 39.8C248.3 39.6 248.4 39.3 248.5 39.2C248.6 39 248.7 38.8 248.9 38.7C249.1 38.6 249.3 38.5 249.5 38.4C249.7 38.4 249.9 38.3 250.2 38.3C250.9 38.2 251.3 38.1 251.7 38C251.7 37.9 251.7 37.8 251.7 37.8C251.7 37.5 251.6 37.2 251.5 37.1C251.3 36.9 251 36.8 250.6 36.8C250.2 36.8 249.9 36.9 249.7 37C249.5 37.1 249.4 37.4 249.3 37.7L248.5 37.6C248.6 37.3 248.7 37 248.9 36.8C249.1 36.6 249.3 36.4 249.6 36.3C249.9 36.2 250.3 36.1 250.7 36.1C251.1 36.1 251.4 36.1 251.7 36.2C252 36.3 252.1 36.4 252.3 36.6C252.5 36.8 252.5 36.9 252.6 37.2C252.6 37.3 252.6 37.6 252.6 38L252.6 39.1C252.6 39.9 252.6 40.3 252.7 40.5C252.7 40.7 252.8 40.9 252.9 41.1L252 41.1C251.8 40.9 251.7 40.7 251.7 40.5ZM251.5 38.7L251.5 38.73C251.53 38.72 251.57 38.71 251.6 38.7L251.5 38.7ZM250.3 39C250 39 249.7 39.1 249.6 39.2C249.5 39.3 249.4 39.3 249.3 39.5C249.2 39.6 249.2 39.7 249.2 39.9C249.2 40.1 249.3 40.3 249.4 40.4C249.6 40.5 249.8 40.6 250.1 40.6C250.4 40.6 250.7 40.5 250.9 40.4C251.1 40.3 251.3 40.1 251.4 39.8C251.5 39.6 251.5 39.3 251.5 39L251.5 38.73C251.21 38.82 250.84 38.91 250.3 39Z" />
		<path id="Layer" class="shp16" d="M256.4 41.1L256.4 34.4L261.3 34.4L261.3 35.6L257.7 35.6L257.7 37L261.1 37L261.1 38.2L257.7 38.2L257.7 40L261.4 40L261.4 41.1L256.4 41.1Z" />
		<path id="Layer" fill-rule="evenodd" class="shp16" d="M265.8 41.1L265.8 40.4C265.6 40.7 265.4 40.9 265.1 41C264.8 41.1 264.6 41.2 264.3 41.2C263.7 41.2 263.3 41 262.9 40.5C262.5 40.1 262.3 39.4 262.3 38.6C262.3 37.8 262.5 37.2 262.9 36.7C263.3 36.3 263.8 36.1 264.4 36.1C264.9 36.1 265.4 36.3 265.8 36.8L265.8 34.4L267.1 34.4L267.1 41.1L265.8 41.1ZM263.6 38.6C263.6 39.1 263.7 39.5 263.8 39.7C264 40 264.3 40.2 264.7 40.2C265 40.2 265.2 40.1 265.5 39.8C265.7 39.6 265.8 39.2 265.8 38.7C265.8 38.1 265.7 37.7 265.5 37.5C265.3 37.3 265 37.1 264.7 37.1C264.4 37.1 264.1 37.2 263.9 37.5C263.7 37.7 263.6 38.1 263.6 38.6Z" />
		<path id="Layer" class="shp16" d="M271.4 41.1L271.4 40.4C271.2 40.7 271 40.9 270.7 41C270.4 41.1 270.1 41.2 269.8 41.2C269.5 41.2 269.2 41.1 268.9 41C268.6 40.9 268.5 40.7 268.3 40.4C268.2 40.1 268.1 39.8 268.1 39.3L268.1 36.2L269.4 36.2L269.4 38.4C269.4 39.1 269.4 39.5 269.5 39.6C269.5 39.7 269.6 39.9 269.8 40C269.9 40.1 270.1 40.1 270.3 40.1C270.5 40.1 270.7 40 270.9 39.9C271.1 39.8 271.2 39.6 271.3 39.5C271.4 39.3 271.4 38.9 271.4 38.2L271.4 36.2L272.7 36.2L272.7 41L271.4 41L271.4 41.1Z" />
		<path id="Layer" class="shp16" d="M278.1 37.7L276.8 37.9C276.8 37.6 276.7 37.5 276.5 37.3C276.3 37.2 276.2 37.1 275.9 37.1C275.6 37.1 275.3 37.2 275.1 37.4C274.9 37.6 274.8 38 274.8 38.5C274.8 39.1 274.9 39.5 275.1 39.7C275.3 39.9 275.6 40.1 275.9 40.1C276.1 40.1 276.3 40 276.5 39.9C276.7 39.8 276.8 39.5 276.8 39.2L278.1 39.4C278 40 277.7 40.4 277.4 40.7C277 41 276.5 41.1 275.9 41.1C275.2 41.1 274.6 40.9 274.2 40.4C273.8 40 273.6 39.3 273.6 38.6C273.6 37.8 273.8 37.2 274.2 36.7C274.6 36.3 275.2 36 275.9 36C276.5 36 277 36.1 277.3 36.4C277.7 36.8 278 37.2 278.1 37.7Z" />
		<path id="Layer" fill-rule="evenodd" class="shp16" d="M280.1 37.7L278.9 37.5C279 37 279.3 36.7 279.6 36.5C279.9 36.3 280.4 36.2 281 36.2C281.6 36.2 282 36.3 282.3 36.4C282.6 36.5 282.8 36.7 282.9 36.9C283 37.1 283.1 37.5 283.1 38L283.1 39.5C283.1 39.9 283.1 40.2 283.2 40.4C283.2 40.6 283.3 40.8 283.4 41L282 41C282 40.9 281.9 40.8 281.9 40.6C281.9 40.5 281.9 40.5 281.9 40.5C281.7 40.7 281.4 40.9 281.2 41C281 41.1 280.7 41.2 280.4 41.2C279.9 41.2 279.5 41.1 279.2 40.8C278.9 40.5 278.8 40.2 278.8 39.8C278.8 39.5 278.9 39.3 279 39.1C279.1 38.9 279.3 38.7 279.5 38.6C279.7 38.5 280.1 38.4 280.5 38.3C281.1 38.2 281.5 38.1 281.7 38L281.7 37.9C281.7 37.7 281.6 37.5 281.5 37.4C281.4 37.3 281.1 37.2 280.8 37.2C280.6 37.2 280.4 37.2 280.3 37.3C280.2 37.4 280.1 37.5 280.1 37.7ZM281.8 38.8C281.6 38.9 281.4 38.9 281 39C280.6 39.1 280.4 39.2 280.3 39.2C280.1 39.3 280 39.5 280 39.6C280 39.8 280.1 39.9 280.2 40.1C280.3 40.2 280.5 40.3 280.7 40.3C280.9 40.3 281.2 40.2 281.4 40.1C281.6 40 281.7 39.8 281.7 39.7C281.7 39.6 281.8 39.4 281.8 39.1L281.8 38.8Z" />
		<path id="Layer" class="shp16" d="M288.5 37.7L287.2 37.9C287.2 37.6 287.1 37.5 286.9 37.3C286.7 37.2 286.6 37.1 286.3 37.1C286 37.1 285.7 37.2 285.5 37.4C285.3 37.6 285.2 38 285.2 38.5C285.2 39.1 285.3 39.5 285.5 39.7C285.7 39.9 286 40.1 286.3 40.1C286.5 40.1 286.7 40 286.9 39.9C287.1 39.8 287.2 39.5 287.2 39.2L288.5 39.4C288.4 40 288.1 40.4 287.8 40.7C287.4 41 286.9 41.1 286.3 41.1C285.6 41.1 285 40.9 284.6 40.4C284.2 40 284 39.3 284 38.6C284 37.8 284.2 37.2 284.6 36.7C285 36.3 285.6 36 286.3 36C286.9 36 287.4 36.1 287.7 36.4C288.1 36.8 288.3 37.2 288.5 37.7Z" />
		<path id="Layer" class="shp16" d="M289.4 34.4L290.7 34.4L290.7 35.6L289.4 35.6L289.4 34.4ZM289.4 36.3L290.7 36.3L290.7 41.1L289.4 41.1L289.4 36.3Z" />
		<path id="Layer" fill-rule="evenodd" class="shp16" d="M291.7 38.6C291.7 38.2 291.8 37.8 292 37.4C292.2 37 292.5 36.7 292.9 36.5C293.3 36.3 293.7 36.2 294.2 36.2C294.9 36.2 295.5 36.4 296 36.9C296.5 37.4 296.7 38 296.7 38.7C296.7 39.4 296.5 40 296 40.5C295.5 41 294.9 41.2 294.2 41.2C293.8 41.2 293.3 41.1 292.9 40.9C292.5 40.7 292.2 40.4 292 40C291.8 39.6 291.7 39.2 291.7 38.6ZM293 38.7C293 39.2 293.1 39.5 293.3 39.8C293.5 40.1 293.8 40.2 294.1 40.2C294.4 40.2 294.7 40.1 294.9 39.8C295.1 39.5 295.2 39.2 295.2 38.7C295.2 38.2 295.1 37.9 294.9 37.6C294.7 37.3 294.4 37.2 294.1 37.2C293.8 37.2 293.5 37.3 293.3 37.6C293.2 37.8 293 38.2 293 38.7ZM293.6 35.7L294.2 34.3L295.6 34.3L294.3 35.7L293.6 35.7Z" />
		<path id="Layer" class="shp16" d="M302.1 41.1L300.8 41.1L300.8 38.6C300.8 38.1 300.8 37.7 300.7 37.6C300.6 37.4 300.6 37.3 300.4 37.2C300.3 37.1 300.1 37.1 300 37.1C299.8 37.1 299.6 37.2 299.4 37.3C299.2 37.4 299.1 37.6 299 37.8C298.9 38 298.9 38.4 298.9 38.9L298.9 41.1L297.6 41.1L297.6 36.3L298.8 36.3L298.8 37C299.2 36.5 299.8 36.2 300.4 36.2C300.7 36.2 300.9 36.2 301.2 36.4C301.4 36.5 301.6 36.6 301.7 36.8C301.8 37 301.9 37.1 301.9 37.3C301.9 37.5 302 37.8 302 38.2L302 41.1L302.1 41.1Z" />
		<path id="Layer" class="shp13" d="M58.9 29.9L59.2 30.9L59.6 30L60.6 30.1L59.8 29.4L60.2 28.5L59.3 29L58.6 28.4L58.8 29.3L57.9 29.8L58.9 29.9Z" />
		<path id="Layer" class="shp13" d="M62.7 29.3L63 30.2L63.4 29.3L64.4 29.4L63.6 28.7L64 27.8L63.1 28.3L62.4 27.7L62.6 28.7L61.7 29.2L62.7 29.3Z" />
		<path id="Layer" class="shp13" d="M74.1 25.9L73.3 26.4L72.5 25.7L72.7 26.7L71.9 27.2L72.9 27.3L73.1 28.3L73.5 27.4L74.5 27.5L73.7 26.8L74.1 25.9Z" />
		<path id="Layer" class="shp13" d="M52 34.1L52.2 35.1L52.6 34.1L53.6 34.2L52.9 33.6L53.3 32.7L52.4 33.2L51.7 32.5L51.9 33.5L51 34L52 34.1Z" />
		<path id="Layer" class="shp13" d="M55.5 32.6L55.9 31.7L56.9 31.8L56.2 31.1L56.5 30.2L55.7 30.7L54.9 30.1L55.2 31.1L54.3 31.6L55.3 31.7L55.5 32.6Z" />
		<path id="Layer" class="shp13" d="M70.6 27.5L69.8 28.1L69 27.4L69.2 28.4L68.4 28.9L69.4 29L69.6 30L70 29L71 29.1L70.2 28.5L70.6 27.5Z" />
		<path id="Layer" class="shp18" d="M61.4 39.9C63.4 38.8 65.6 38.7 66.5 38.7L66.6 38.7L65.8 33.7L65.8 33.7L65.5 32.3C64.3 32.5 59.7 33.4 55.9 35.8C51.9 38.3 47.9 43.2 47.2 44.2L56 44.2C56.3 43.8 58.6 41.4 61.4 39.9Z" />
		<path id="Layer" class="shp19" d="M53.9 27.7C57.8 25.4 61.2 25 63.1 25C63.8 25 64.3 25.1 64.5 25.1L63.7 19.9L63.7 19.9L63.5 18.5C63.4 18.5 63.3 18.5 63.2 18.5C61.9 18.5 57.2 18.6 53.7 20.5C49 23 47.2 25.9 47.1 26.1L47.1 34.4C47.4 33.7 49.6 30.2 53.9 27.7Z" />
		<path id="Layer" fill-rule="evenodd" class="shp20" d="M47.1 44L47.1 35C47.7 34.1 50.4 30.1 54.4 27.8C59.9 24.7 64.5 25.5 64.6 25.5L64.8 26.7L64.8 27L65.5 31.7C63.5 31.9 59.3 33 55.7 35.3C50.6 38.5 47.6 43.1 47.1 44ZM62.8 28.7L61.9 29.2L62.9 29.3L63.1 30.3L63.5 29.4L64.5 29.5L63.7 28.8L64.1 27.9L63.2 28.4L62.4 27.7L62.8 28.7ZM59 29.4L58.1 29.9L59.1 30L59.3 31L59.7 30.1L60.7 30.2L59.9 29.5L60.3 28.6L59.4 29.1L58.6 28.4L59 29.4ZM54.5 31.6L55.5 31.7L55.7 32.7L56.1 31.8L57.1 31.9L56.3 31.2L56.7 30.3L55.8 30.8L55 30.1L55.2 31.1L54.5 31.6ZM52.1 33.5L51.2 34L52.2 34.1L52.4 35.1L52.8 34.2L53.8 34.3L53 33.6L53.4 32.7L52.5 33.2L51.7 32.5L52.1 33.5ZM50.6 36.7L49.8 36L50.2 35.1L49.3 35.6L48.5 34.9L48.7 35.9L47.8 36.4L48.8 36.5L49 37.5L49.4 36.6L50.6 36.7Z" />
		<path id="Layer" fill-rule="evenodd" class="shp20" d="M76.3 29.3C75.7 29.8 75 30.3 74.4 30.7C71.8 32.5 68.5 33.3 66.2 33.5L65.9 31.9L65.6 30.1L66 30.1L66.2 31.1L66.6 30.2L67.6 30.3L66.8 29.6L67.2 28.7L66.3 29.2L65.5 28.5L65.7 29.5L65.4 29.7L64.9 26.9C66.9 26.5 69.7 25.5 72.7 23.5C74 22.7 75.1 21.6 76.1 20.5L76.3 29.3ZM71.2 29.1L70.4 28.4L70.8 27.5L69.9 28L69.1 27.3L69.3 28.3L68.4 28.8L69.4 28.9L69.6 29.9L70 29L71.2 29.1ZM74.7 27.5L73.9 26.8L74.3 25.9L73.4 26.4L72.6 25.7L72.8 26.7L71.9 27.2L72.9 27.3L73.1 28.3L73.5 27.4L74.7 27.5Z" />
		<path id="Layer" class="shp19" d="M64.9 26.5C66.9 26 69.7 25 72.3 23.3C73.6 22.5 75 21.3 76.2 19.8L76.2 11.3C75.7 12.1 73.6 15.4 69.5 17.7C66.4 19.4 64.3 19.9 63.9 20L64.9 26.5Z" />
		<path id="Layer" class="shp18" d="M66.7 38.8L67 40.9C67.4 40.8 69.9 40.4 72.2 39.5C74.5 38.6 75.9 37.7 76.1 37.6L76.1 30C75.7 30.3 75.2 30.7 74.7 31C71.4 33.3 68.1 33.9 66 34.1L66.8 38.8L66.7 38.8C66.8 38.8 66.8 38.8 66.7 38.8Z" />
	</g>
	<g id="Layer">
		<path id="Layer" class="shp21" d="M48.5 -668.8C50.2 -673.1 53.3 -675.4 55.5 -676.6C55.9 -677.3 56.6 -678 57.3 -678.4C49.6 -677 46.2 -670.4 45.8 -668.4C44.3 -660.9 48.4 -658 52.2 -656C46.1 -660.9 47.7 -666.7 48.5 -668.8Z" />
		<path id="Layer" fill-rule="evenodd" class="shp20" d="M54.6 -655C51.4 -657 47.2 -660.7 48.9 -667.7C49.7 -670.7 52.3 -674.5 55.9 -676.2C55.6 -675.6 55.4 -674.8 55.4 -674C55.4 -673.5 55.5 -673 55.6 -672.6C54.4 -671.7 52.8 -671.3 51.3 -666.3C50.8 -664.1 50.2 -659.5 54.6 -655ZM53.2 -673.2L53.8 -673L54 -672.4L54.4 -672.8L55 -672.8L54.7 -673.3L54.9 -673.9L54.3 -673.7L53.8 -674.1L53.8 -673.5L53.2 -673.2ZM51.7 -671.4L52.2 -671.2L52.3 -670.7L52.6 -671.1L53.1 -671.1L52.8 -671.5L53 -672L52.5 -671.9L52.1 -672.2L52.1 -671.7L51.7 -671.4ZM50.8 -669.6L50.5 -669.3L51 -669.2L51.1 -668.7L51.3 -669.1L51.8 -669.2L51.5 -669.5L51.6 -670L51.2 -669.8L50.8 -670L50.8 -669.6ZM49.6 -667.5L50 -667.3L50.1 -666.9L50.4 -667.2L50.8 -667.2L50.6 -667.5L50.8 -667.8L50.4 -667.7L50.1 -668L50.1 -667.6L49.6 -667.5ZM49.5 -665.6L49.7 -665.3L49.6 -665L49.8 -665.1L50.1 -664.9L50.1 -665.2L50.4 -665.4L50.1 -665.5L50 -665.8L49.8 -665.5L49.5 -665.6ZM49.8 -662.7L50 -663L50.4 -662.9L50.2 -663.2L50.3 -663.5L50 -663.4L49.7 -663.6L49.7 -663.3L49.4 -663.1L49.7 -663L49.8 -662.7ZM50.2 -660.9L50.5 -660.9L50.4 -661.1L50.5 -661.4L50.2 -661.3L50 -661.5L50 -661.2L49.8 -661.1L50.1 -661L50.1 -660.7L50.2 -660.9ZM50.9 -659.7L50.8 -659.5L50.6 -659.4L50.8 -659.2L50.8 -659L51 -659.2L51.1 -659.1L51 -659.3L51.2 -659.5L51 -659.5L50.9 -659.7Z" />
		<path id="Layer" class="shp18" d="M57.6 -670.3C57 -670.9 56.6 -671.6 56.3 -672.4C54.6 -671.5 53.1 -669.5 52.2 -666.6C50.8 -661.4 53.1 -657.4 55.8 -654.8C56.1 -654.5 56.6 -654.2 57.4 -653.8C54.7 -657.4 53.7 -662.1 54.3 -665C55.2 -668.7 56.5 -669.2 57.6 -670.3Z" />
		<path id="Layer" class="shp18" d="M61 -676.8C59.4 -676.8 58.2 -675.5 58.2 -674C58.2 -672.4 59.5 -671.2 61 -671.2C62.6 -671.2 63.8 -672.5 63.8 -674C63.8 -675.5 62.6 -676.8 61 -676.8Z" />
		<path id="Layer" class="shp18" d="M71.4 -668.4C69.3 -668.4 67.5 -667.6 66 -666.2C64.5 -664.7 63.8 -662.9 63.8 -660.8L63.8 -653.3L66.6 -653.3L66.6 -660.8C66.6 -662.1 67.1 -663.3 68 -664.2C68.9 -665.1 70.1 -665.6 71.4 -665.6C72.7 -665.6 73.9 -665.1 74.8 -664.2C75.7 -663.3 76.2 -662.1 76.2 -660.8L76.2 -653.3L79 -653.3L79 -660.8C79 -662.9 78.2 -664.7 76.8 -666.2C75.3 -667.7 73.5 -668.4 71.4 -668.4Z" />
		<path id="Layer" class="shp18" d="M87.7 -665.7L87.7 -665.7C90.3 -665.7 91.9 -663.4 91.9 -663.3L92 -663.2L94 -665.2L93 -666.2C91.5 -667.7 89.7 -668.4 87.7 -668.4C85.6 -668.4 83.9 -667.7 82.4 -666.2C80.9 -664.7 80.2 -662.9 80.2 -660.9C80.2 -658.8 80.9 -657 82.4 -655.6C83.9 -654.1 85.7 -653.4 87.7 -653.4C89.8 -653.4 91.6 -654.1 93 -655.6L93.1 -655.7L91.2 -657.6L91.1 -657.5C90.2 -656.6 89 -656.1 87.7 -656.1C86.4 -656.1 85.3 -656.6 84.3 -657.5C83.4 -658.4 82.9 -659.6 82.9 -660.9C82.9 -662.2 83.4 -663.4 84.3 -664.3C85.2 -665.3 86.4 -665.7 87.7 -665.7Z" />
		<path id="Layer" fill-rule="evenodd" class="shp18" d="M106.6 -666.5C108 -665.1 108.8 -663.2 108.8 -661L108.8 -659.6L97.1 -659.6C97.4 -658.7 98 -657.8 98.8 -657.2C99.6 -656.5 100.6 -656.2 101.7 -656.2C103 -656.2 104.2 -656.7 105.1 -657.6L105.2 -657.7L107.2 -655.7L107.1 -655.6C105.6 -654.2 103.8 -653.4 101.7 -653.4C99.6 -653.4 97.8 -654.1 96.3 -655.6C94.9 -657.1 94.1 -658.9 94.1 -661C94.1 -663.1 94.8 -664.9 96.3 -666.4C97.8 -668 99.3 -668.6 101.3 -668.6C103.5 -668.6 105.1 -668 106.6 -666.5ZM98.5 -665C97.7 -664.3 97.3 -663.3 97 -662.4L105.9 -662.4C105.6 -663.5 105 -664.4 104.2 -665C103.4 -665.7 102.4 -666 101.3 -666C100.3 -666 99.5 -665.7 98.5 -665Z" />
		<path id="Layer" class="shp18" d="M117.5 -662.4L116.4 -662.4C114.8 -662.4 113.7 -662.7 113.1 -663.2C112.9 -663.4 112.8 -663.7 112.8 -664.1C112.8 -664.4 112.9 -664.7 113.1 -664.9C113.7 -665.5 114.8 -665.8 116.4 -665.8C117.4 -665.8 118.3 -665.6 119.1 -665.3C119.9 -665 120.3 -664.5 120.3 -664L120.3 -663.9L123 -663.9L123 -664C123 -665.4 122.4 -666.5 121.2 -667.3C120 -668.1 118.4 -668.5 116.4 -668.5C114 -668.5 112.3 -667.9 111.2 -666.8C110.5 -666 110.1 -665.1 110.1 -664.1C110.1 -663 110.5 -662 111.2 -661.2C112.3 -660.1 114 -659.6 116.5 -659.6L117.5 -659.6C119.1 -659.6 120.2 -659.3 120.8 -658.9C121.1 -658.7 121.3 -658.4 121.3 -658C121.3 -657.2 120.6 -656.7 119.3 -656.4C118.5 -656.2 117.5 -656.1 116.4 -656.1C115.2 -656.1 114.3 -656.3 113.6 -656.6C112.7 -657 112.2 -657.7 112.2 -658.7L112.2 -658.8L109.5 -658.8L109.5 -658.7C109.5 -657 110.1 -655.7 111.4 -654.7C112.6 -653.7 114.4 -653.3 116.5 -653.3C119.4 -653.3 121.6 -653.9 122.8 -655.1C123.6 -655.9 124 -656.8 124 -658C123.9 -660.8 121.8 -662.3 117.5 -662.4Z" />
		<path id="Layer" class="shp18" d="M62.3 -669.3C61.9 -669.1 61.4 -669 61 -669C60.3 -669 59.8 -669.3 59.7 -669.3L59.6 -669.4L59.6 -653.5L62.4 -653.5L62.4 -669.3L62.3 -669.3Z" />
	</g>
</svg>